<?xml version="1.0" encoding="utf-8" standalone="no"?>
<!DOCTYPE svg PUBLIC "-//W3C//DTD SVG 1.1//EN"
  "http://www.w3.org/Graphics/SVG/1.1/DTD/svg11.dtd">
<svg xmlns:xlink="http://www.w3.org/1999/xlink" width="590.4pt" height="331.2pt" viewBox="0 0 590.4 331.2" xmlns="http://www.w3.org/2000/svg" version="1.1">
 <metadata>
  <rdf:RDF xmlns:dc="http://purl.org/dc/elements/1.1/" xmlns:cc="http://creativecommons.org/ns#" xmlns:rdf="http://www.w3.org/1999/02/22-rdf-syntax-ns#">
   <cc:Work>
    <dc:type rdf:resource="http://purl.org/dc/dcmitype/StillImage"/>
    <dc:date>2026-07-20T11:11:30.903216</dc:date>
    <dc:format>image/svg+xml</dc:format>
    <dc:creator>
     <cc:Agent>
      <dc:title>Matplotlib v3.6.3, https://matplotlib.org/</dc:title>
     </cc:Agent>
    </dc:creator>
   </cc:Work>
  </rdf:RDF>
 </metadata>
 <defs>
  <style type="text/css">*{stroke-linejoin: round; stroke-linecap: butt}</style>
 </defs>
 <g id="figure_1">
  <g id="patch_1">
   <path d="M 0 331.2 
L 590.4 331.2 
L 590.4 0 
L 0 0 
z
" style="fill: #ffffff"/>
  </g>
  <g id="axes_1">
   <g id="patch_2">
    <path d="M 44.66 303.32 
L 579.6 303.32 
L 579.6 25.44 
L 44.66 25.44 
z
" style="fill: #ffffff"/>
   </g>
   <g id="patch_3">
    <path d="M 68.975455 303.32 
L 113.185372 303.32 
L 113.185372 181.104259 
L 68.975455 181.104259 
z
" clip-path="url(#p5b661ddab8)" style="fill: #1f77b4"/>
   </g>
   <g id="patch_4">
    <path d="M 245.815124 303.32 
L 290.025041 303.32 
L 290.025041 245.428333 
L 245.815124 245.428333 
z
" clip-path="url(#p5b661ddab8)" style="fill: #1f77b4"/>
   </g>
   <g id="patch_5">
    <path d="M 422.654793 303.32 
L 466.864711 303.32 
L 466.864711 232.563519 
L 422.654793 232.563519 
z
" clip-path="url(#p5b661ddab8)" style="fill: #1f77b4"/>
   </g>
   <g id="patch_6">
    <path d="M 113.185372 303.32 
L 157.395289 303.32 
L 157.395289 168.239444 
L 113.185372 168.239444 
z
" clip-path="url(#p5b661ddab8)" style="fill: #ff7f0e"/>
   </g>
   <g id="patch_7">
    <path d="M 290.025041 303.32 
L 334.234959 303.32 
L 334.234959 181.104259 
L 290.025041 181.104259 
z
" clip-path="url(#p5b661ddab8)" style="fill: #ff7f0e"/>
   </g>
   <g id="patch_8">
    <path d="M 466.864711 303.32 
L 511.074628 303.32 
L 511.074628 290.455185 
L 466.864711 290.455185 
z
" clip-path="url(#p5b661ddab8)" style="fill: #ff7f0e"/>
   </g>
   <g id="patch_9">
    <path d="M 157.395289 303.32 
L 201.605207 303.32 
L 201.605207 168.239444 
L 157.395289 168.239444 
z
" clip-path="url(#p5b661ddab8)" style="fill: #2ca02c"/>
   </g>
   <g id="patch_10">
    <path d="M 334.234959 303.32 
L 378.444876 303.32 
L 378.444876 187.536667 
L 334.234959 187.536667 
z
" clip-path="url(#p5b661ddab8)" style="fill: #2ca02c"/>
   </g>
   <g id="patch_11">
    <path d="M 511.074628 303.32 
L 555.284545 303.32 
L 555.284545 245.428333 
L 511.074628 245.428333 
z
" clip-path="url(#p5b661ddab8)" style="fill: #2ca02c"/>
   </g>
   <g id="matplotlib.axis_1">
    <g id="xtick_1">
     <g id="line2d_1">
      <defs>
       <path id="m0feebb1e38" d="M 0 0 
L 0 3.5 
" style="stroke: #000000; stroke-width: 0.8"/>
      </defs>
      <g>
       <use xlink:href="#m0feebb1e38" x="135.290331" y="303.32" style="stroke: #000000; stroke-width: 0.8"/>
      </g>
     </g>
     <g id="text_1">
      <!-- Jar -->
      <g transform="translate(128.695799 317.918437) scale(0.1 -0.1)">
       <defs>
        <path id="DejaVuSans-4a" d="M 628 4666 
L 1259 4666 
L 1259 325 
Q 1259 -519 939 -900 
Q 619 -1281 -91 -1281 
L -331 -1281 
L -331 -750 
L -134 -750 
Q 284 -750 456 -515 
Q 628 -281 628 325 
L 628 4666 
z
" transform="scale(0.015625)"/>
        <path id="DejaVuSans-61" d="M 2194 1759 
Q 1497 1759 1228 1600 
Q 959 1441 959 1056 
Q 959 750 1161 570 
Q 1363 391 1709 391 
Q 2188 391 2477 730 
Q 2766 1069 2766 1631 
L 2766 1759 
L 2194 1759 
z
M 3341 1997 
L 3341 0 
L 2766 0 
L 2766 531 
Q 2569 213 2275 61 
Q 1981 -91 1556 -91 
Q 1019 -91 701 211 
Q 384 513 384 1019 
Q 384 1609 779 1909 
Q 1175 2209 1959 2209 
L 2766 2209 
L 2766 2266 
Q 2766 2663 2505 2880 
Q 2244 3097 1772 3097 
Q 1472 3097 1187 3025 
Q 903 2953 641 2809 
L 641 3341 
Q 956 3463 1253 3523 
Q 1550 3584 1831 3584 
Q 2591 3584 2966 3190 
Q 3341 2797 3341 1997 
z
" transform="scale(0.015625)"/>
        <path id="DejaVuSans-72" d="M 2631 2963 
Q 2534 3019 2420 3045 
Q 2306 3072 2169 3072 
Q 1681 3072 1420 2755 
Q 1159 2438 1159 1844 
L 1159 0 
L 581 0 
L 581 3500 
L 1159 3500 
L 1159 2956 
Q 1341 3275 1631 3429 
Q 1922 3584 2338 3584 
Q 2397 3584 2469 3576 
Q 2541 3569 2628 3553 
L 2631 2963 
z
" transform="scale(0.015625)"/>
       </defs>
       <use xlink:href="#DejaVuSans-4a"/>
       <use xlink:href="#DejaVuSans-61" x="29.492188"/>
       <use xlink:href="#DejaVuSans-72" x="90.771484"/>
      </g>
     </g>
    </g>
    <g id="xtick_2">
     <g id="line2d_2">
      <g>
       <use xlink:href="#m0feebb1e38" x="312.13" y="303.32" style="stroke: #000000; stroke-width: 0.8"/>
      </g>
     </g>
     <g id="text_2">
      <!-- Cellphone -->
      <g transform="translate(287.13625 317.918437) scale(0.1 -0.1)">
       <defs>
        <path id="DejaVuSans-43" d="M 4122 4306 
L 4122 3641 
Q 3803 3938 3442 4084 
Q 3081 4231 2675 4231 
Q 1875 4231 1450 3742 
Q 1025 3253 1025 2328 
Q 1025 1406 1450 917 
Q 1875 428 2675 428 
Q 3081 428 3442 575 
Q 3803 722 4122 1019 
L 4122 359 
Q 3791 134 3420 21 
Q 3050 -91 2638 -91 
Q 1578 -91 968 557 
Q 359 1206 359 2328 
Q 359 3453 968 4101 
Q 1578 4750 2638 4750 
Q 3056 4750 3426 4639 
Q 3797 4528 4122 4306 
z
" transform="scale(0.015625)"/>
        <path id="DejaVuSans-65" d="M 3597 1894 
L 3597 1613 
L 953 1613 
Q 991 1019 1311 708 
Q 1631 397 2203 397 
Q 2534 397 2845 478 
Q 3156 559 3463 722 
L 3463 178 
Q 3153 47 2828 -22 
Q 2503 -91 2169 -91 
Q 1331 -91 842 396 
Q 353 884 353 1716 
Q 353 2575 817 3079 
Q 1281 3584 2069 3584 
Q 2775 3584 3186 3129 
Q 3597 2675 3597 1894 
z
M 3022 2063 
Q 3016 2534 2758 2815 
Q 2500 3097 2075 3097 
Q 1594 3097 1305 2825 
Q 1016 2553 972 2059 
L 3022 2063 
z
" transform="scale(0.015625)"/>
        <path id="DejaVuSans-6c" d="M 603 4863 
L 1178 4863 
L 1178 0 
L 603 0 
L 603 4863 
z
" transform="scale(0.015625)"/>
        <path id="DejaVuSans-70" d="M 1159 525 
L 1159 -1331 
L 581 -1331 
L 581 3500 
L 1159 3500 
L 1159 2969 
Q 1341 3281 1617 3432 
Q 1894 3584 2278 3584 
Q 2916 3584 3314 3078 
Q 3713 2572 3713 1747 
Q 3713 922 3314 415 
Q 2916 -91 2278 -91 
Q 1894 -91 1617 61 
Q 1341 213 1159 525 
z
M 3116 1747 
Q 3116 2381 2855 2742 
Q 2594 3103 2138 3103 
Q 1681 3103 1420 2742 
Q 1159 2381 1159 1747 
Q 1159 1113 1420 752 
Q 1681 391 2138 391 
Q 2594 391 2855 752 
Q 3116 1113 3116 1747 
z
" transform="scale(0.015625)"/>
        <path id="DejaVuSans-68" d="M 3513 2113 
L 3513 0 
L 2938 0 
L 2938 2094 
Q 2938 2591 2744 2837 
Q 2550 3084 2163 3084 
Q 1697 3084 1428 2787 
Q 1159 2491 1159 1978 
L 1159 0 
L 581 0 
L 581 4863 
L 1159 4863 
L 1159 2956 
Q 1366 3272 1645 3428 
Q 1925 3584 2291 3584 
Q 2894 3584 3203 3211 
Q 3513 2838 3513 2113 
z
" transform="scale(0.015625)"/>
        <path id="DejaVuSans-6f" d="M 1959 3097 
Q 1497 3097 1228 2736 
Q 959 2375 959 1747 
Q 959 1119 1226 758 
Q 1494 397 1959 397 
Q 2419 397 2687 759 
Q 2956 1122 2956 1747 
Q 2956 2369 2687 2733 
Q 2419 3097 1959 3097 
z
M 1959 3584 
Q 2709 3584 3137 3096 
Q 3566 2609 3566 1747 
Q 3566 888 3137 398 
Q 2709 -91 1959 -91 
Q 1206 -91 779 398 
Q 353 888 353 1747 
Q 353 2609 779 3096 
Q 1206 3584 1959 3584 
z
" transform="scale(0.015625)"/>
        <path id="DejaVuSans-6e" d="M 3513 2113 
L 3513 0 
L 2938 0 
L 2938 2094 
Q 2938 2591 2744 2837 
Q 2550 3084 2163 3084 
Q 1697 3084 1428 2787 
Q 1159 2491 1159 1978 
L 1159 0 
L 581 0 
L 581 3500 
L 1159 3500 
L 1159 2956 
Q 1366 3272 1645 3428 
Q 1925 3584 2291 3584 
Q 2894 3584 3203 3211 
Q 3513 2838 3513 2113 
z
" transform="scale(0.015625)"/>
       </defs>
       <use xlink:href="#DejaVuSans-43"/>
       <use xlink:href="#DejaVuSans-65" x="69.824219"/>
       <use xlink:href="#DejaVuSans-6c" x="131.347656"/>
       <use xlink:href="#DejaVuSans-6c" x="159.130859"/>
       <use xlink:href="#DejaVuSans-70" x="186.914062"/>
       <use xlink:href="#DejaVuSans-68" x="250.390625"/>
       <use xlink:href="#DejaVuSans-6f" x="313.769531"/>
       <use xlink:href="#DejaVuSans-6e" x="374.951172"/>
       <use xlink:href="#DejaVuSans-65" x="438.330078"/>
      </g>
     </g>
    </g>
    <g id="xtick_3">
     <g id="line2d_3">
      <g>
       <use xlink:href="#m0feebb1e38" x="488.969669" y="303.32" style="stroke: #000000; stroke-width: 0.8"/>
      </g>
     </g>
     <g id="text_3">
      <!-- USB stick -->
      <g transform="translate(465.518107 317.918437) scale(0.1 -0.1)">
       <defs>
        <path id="DejaVuSans-55" d="M 556 4666 
L 1191 4666 
L 1191 1831 
Q 1191 1081 1462 751 
Q 1734 422 2344 422 
Q 2950 422 3222 751 
Q 3494 1081 3494 1831 
L 3494 4666 
L 4128 4666 
L 4128 1753 
Q 4128 841 3676 375 
Q 3225 -91 2344 -91 
Q 1459 -91 1007 375 
Q 556 841 556 1753 
L 556 4666 
z
" transform="scale(0.015625)"/>
        <path id="DejaVuSans-53" d="M 3425 4513 
L 3425 3897 
Q 3066 4069 2747 4153 
Q 2428 4238 2131 4238 
Q 1616 4238 1336 4038 
Q 1056 3838 1056 3469 
Q 1056 3159 1242 3001 
Q 1428 2844 1947 2747 
L 2328 2669 
Q 3034 2534 3370 2195 
Q 3706 1856 3706 1288 
Q 3706 609 3251 259 
Q 2797 -91 1919 -91 
Q 1588 -91 1214 -16 
Q 841 59 441 206 
L 441 856 
Q 825 641 1194 531 
Q 1563 422 1919 422 
Q 2459 422 2753 634 
Q 3047 847 3047 1241 
Q 3047 1584 2836 1778 
Q 2625 1972 2144 2069 
L 1759 2144 
Q 1053 2284 737 2584 
Q 422 2884 422 3419 
Q 422 4038 858 4394 
Q 1294 4750 2059 4750 
Q 2388 4750 2728 4690 
Q 3069 4631 3425 4513 
z
" transform="scale(0.015625)"/>
        <path id="DejaVuSans-42" d="M 1259 2228 
L 1259 519 
L 2272 519 
Q 2781 519 3026 730 
Q 3272 941 3272 1375 
Q 3272 1813 3026 2020 
Q 2781 2228 2272 2228 
L 1259 2228 
z
M 1259 4147 
L 1259 2741 
L 2194 2741 
Q 2656 2741 2882 2914 
Q 3109 3088 3109 3444 
Q 3109 3797 2882 3972 
Q 2656 4147 2194 4147 
L 1259 4147 
z
M 628 4666 
L 2241 4666 
Q 2963 4666 3353 4366 
Q 3744 4066 3744 3513 
Q 3744 3084 3544 2831 
Q 3344 2578 2956 2516 
Q 3422 2416 3680 2098 
Q 3938 1781 3938 1306 
Q 3938 681 3513 340 
Q 3088 0 2303 0 
L 628 0 
L 628 4666 
z
" transform="scale(0.015625)"/>
        <path id="DejaVuSans-20" transform="scale(0.015625)"/>
        <path id="DejaVuSans-73" d="M 2834 3397 
L 2834 2853 
Q 2591 2978 2328 3040 
Q 2066 3103 1784 3103 
Q 1356 3103 1142 2972 
Q 928 2841 928 2578 
Q 928 2378 1081 2264 
Q 1234 2150 1697 2047 
L 1894 2003 
Q 2506 1872 2764 1633 
Q 3022 1394 3022 966 
Q 3022 478 2636 193 
Q 2250 -91 1575 -91 
Q 1294 -91 989 -36 
Q 684 19 347 128 
L 347 722 
Q 666 556 975 473 
Q 1284 391 1588 391 
Q 1994 391 2212 530 
Q 2431 669 2431 922 
Q 2431 1156 2273 1281 
Q 2116 1406 1581 1522 
L 1381 1569 
Q 847 1681 609 1914 
Q 372 2147 372 2553 
Q 372 3047 722 3315 
Q 1072 3584 1716 3584 
Q 2034 3584 2315 3537 
Q 2597 3491 2834 3397 
z
" transform="scale(0.015625)"/>
        <path id="DejaVuSans-74" d="M 1172 4494 
L 1172 3500 
L 2356 3500 
L 2356 3053 
L 1172 3053 
L 1172 1153 
Q 1172 725 1289 603 
Q 1406 481 1766 481 
L 2356 481 
L 2356 0 
L 1766 0 
Q 1100 0 847 248 
Q 594 497 594 1153 
L 594 3053 
L 172 3053 
L 172 3500 
L 594 3500 
L 594 4494 
L 1172 4494 
z
" transform="scale(0.015625)"/>
        <path id="DejaVuSans-69" d="M 603 3500 
L 1178 3500 
L 1178 0 
L 603 0 
L 603 3500 
z
M 603 4863 
L 1178 4863 
L 1178 4134 
L 603 4134 
L 603 4863 
z
" transform="scale(0.015625)"/>
        <path id="DejaVuSans-63" d="M 3122 3366 
L 3122 2828 
Q 2878 2963 2633 3030 
Q 2388 3097 2138 3097 
Q 1578 3097 1268 2742 
Q 959 2388 959 1747 
Q 959 1106 1268 751 
Q 1578 397 2138 397 
Q 2388 397 2633 464 
Q 2878 531 3122 666 
L 3122 134 
Q 2881 22 2623 -34 
Q 2366 -91 2075 -91 
Q 1284 -91 818 406 
Q 353 903 353 1747 
Q 353 2603 823 3093 
Q 1294 3584 2113 3584 
Q 2378 3584 2631 3529 
Q 2884 3475 3122 3366 
z
" transform="scale(0.015625)"/>
        <path id="DejaVuSans-6b" d="M 581 4863 
L 1159 4863 
L 1159 1991 
L 2875 3500 
L 3609 3500 
L 1753 1863 
L 3688 0 
L 2938 0 
L 1159 1709 
L 1159 0 
L 581 0 
L 581 4863 
z
" transform="scale(0.015625)"/>
       </defs>
       <use xlink:href="#DejaVuSans-55"/>
       <use xlink:href="#DejaVuSans-53" x="73.193359"/>
       <use xlink:href="#DejaVuSans-42" x="136.669922"/>
       <use xlink:href="#DejaVuSans-20" x="205.273438"/>
       <use xlink:href="#DejaVuSans-73" x="237.060547"/>
       <use xlink:href="#DejaVuSans-74" x="289.160156"/>
       <use xlink:href="#DejaVuSans-69" x="328.369141"/>
       <use xlink:href="#DejaVuSans-63" x="356.152344"/>
       <use xlink:href="#DejaVuSans-6b" x="411.132812"/>
      </g>
     </g>
    </g>
   </g>
   <g id="matplotlib.axis_2">
    <g id="ytick_1">
     <g id="line2d_4">
      <path d="M 44.66 303.32 
L 579.6 303.32 
" clip-path="url(#p5b661ddab8)" style="fill: none; stroke: #b0b0b0; stroke-opacity: 0.25; stroke-width: 0.8; stroke-linecap: square"/>
     </g>
     <g id="line2d_5">
      <defs>
       <path id="m0bd868b994" d="M 0 0 
L -3.5 0 
" style="stroke: #000000; stroke-width: 0.8"/>
      </defs>
      <g>
       <use xlink:href="#m0bd868b994" x="44.66" y="303.32" style="stroke: #000000; stroke-width: 0.8"/>
      </g>
     </g>
     <g id="text_4">
      <!-- 0 -->
      <g transform="translate(31.2975 307.119219) scale(0.1 -0.1)">
       <defs>
        <path id="DejaVuSans-30" d="M 2034 4250 
Q 1547 4250 1301 3770 
Q 1056 3291 1056 2328 
Q 1056 1369 1301 889 
Q 1547 409 2034 409 
Q 2525 409 2770 889 
Q 3016 1369 3016 2328 
Q 3016 3291 2770 3770 
Q 2525 4250 2034 4250 
z
M 2034 4750 
Q 2819 4750 3233 4129 
Q 3647 3509 3647 2328 
Q 3647 1150 3233 529 
Q 2819 -91 2034 -91 
Q 1250 -91 836 529 
Q 422 1150 422 2328 
Q 422 3509 836 4129 
Q 1250 4750 2034 4750 
z
" transform="scale(0.015625)"/>
       </defs>
       <use xlink:href="#DejaVuSans-30"/>
      </g>
     </g>
    </g>
    <g id="ytick_2">
     <g id="line2d_6">
      <path d="M 44.66 264.725556 
L 579.6 264.725556 
" clip-path="url(#p5b661ddab8)" style="fill: none; stroke: #b0b0b0; stroke-opacity: 0.25; stroke-width: 0.8; stroke-linecap: square"/>
     </g>
     <g id="line2d_7">
      <g>
       <use xlink:href="#m0bd868b994" x="44.66" y="264.725556" style="stroke: #000000; stroke-width: 0.8"/>
      </g>
     </g>
     <g id="text_5">
      <!-- 10 -->
      <g transform="translate(24.935 268.524774) scale(0.1 -0.1)">
       <defs>
        <path id="DejaVuSans-31" d="M 794 531 
L 1825 531 
L 1825 4091 
L 703 3866 
L 703 4441 
L 1819 4666 
L 2450 4666 
L 2450 531 
L 3481 531 
L 3481 0 
L 794 0 
L 794 531 
z
" transform="scale(0.015625)"/>
       </defs>
       <use xlink:href="#DejaVuSans-31"/>
       <use xlink:href="#DejaVuSans-30" x="63.623047"/>
      </g>
     </g>
    </g>
    <g id="ytick_3">
     <g id="line2d_8">
      <path d="M 44.66 226.131111 
L 579.6 226.131111 
" clip-path="url(#p5b661ddab8)" style="fill: none; stroke: #b0b0b0; stroke-opacity: 0.25; stroke-width: 0.8; stroke-linecap: square"/>
     </g>
     <g id="line2d_9">
      <g>
       <use xlink:href="#m0bd868b994" x="44.66" y="226.131111" style="stroke: #000000; stroke-width: 0.8"/>
      </g>
     </g>
     <g id="text_6">
      <!-- 20 -->
      <g transform="translate(24.935 229.93033) scale(0.1 -0.1)">
       <defs>
        <path id="DejaVuSans-32" d="M 1228 531 
L 3431 531 
L 3431 0 
L 469 0 
L 469 531 
Q 828 903 1448 1529 
Q 2069 2156 2228 2338 
Q 2531 2678 2651 2914 
Q 2772 3150 2772 3378 
Q 2772 3750 2511 3984 
Q 2250 4219 1831 4219 
Q 1534 4219 1204 4116 
Q 875 4013 500 3803 
L 500 4441 
Q 881 4594 1212 4672 
Q 1544 4750 1819 4750 
Q 2544 4750 2975 4387 
Q 3406 4025 3406 3419 
Q 3406 3131 3298 2873 
Q 3191 2616 2906 2266 
Q 2828 2175 2409 1742 
Q 1991 1309 1228 531 
z
" transform="scale(0.015625)"/>
       </defs>
       <use xlink:href="#DejaVuSans-32"/>
       <use xlink:href="#DejaVuSans-30" x="63.623047"/>
      </g>
     </g>
    </g>
    <g id="ytick_4">
     <g id="line2d_10">
      <path d="M 44.66 187.536667 
L 579.6 187.536667 
" clip-path="url(#p5b661ddab8)" style="fill: none; stroke: #b0b0b0; stroke-opacity: 0.25; stroke-width: 0.8; stroke-linecap: square"/>
     </g>
     <g id="line2d_11">
      <g>
       <use xlink:href="#m0bd868b994" x="44.66" y="187.536667" style="stroke: #000000; stroke-width: 0.8"/>
      </g>
     </g>
     <g id="text_7">
      <!-- 30 -->
      <g transform="translate(24.935 191.335885) scale(0.1 -0.1)">
       <defs>
        <path id="DejaVuSans-33" d="M 2597 2516 
Q 3050 2419 3304 2112 
Q 3559 1806 3559 1356 
Q 3559 666 3084 287 
Q 2609 -91 1734 -91 
Q 1441 -91 1130 -33 
Q 819 25 488 141 
L 488 750 
Q 750 597 1062 519 
Q 1375 441 1716 441 
Q 2309 441 2620 675 
Q 2931 909 2931 1356 
Q 2931 1769 2642 2001 
Q 2353 2234 1838 2234 
L 1294 2234 
L 1294 2753 
L 1863 2753 
Q 2328 2753 2575 2939 
Q 2822 3125 2822 3475 
Q 2822 3834 2567 4026 
Q 2313 4219 1838 4219 
Q 1578 4219 1281 4162 
Q 984 4106 628 3988 
L 628 4550 
Q 988 4650 1302 4700 
Q 1616 4750 1894 4750 
Q 2613 4750 3031 4423 
Q 3450 4097 3450 3541 
Q 3450 3153 3228 2886 
Q 3006 2619 2597 2516 
z
" transform="scale(0.015625)"/>
       </defs>
       <use xlink:href="#DejaVuSans-33"/>
       <use xlink:href="#DejaVuSans-30" x="63.623047"/>
      </g>
     </g>
    </g>
    <g id="ytick_5">
     <g id="line2d_12">
      <path d="M 44.66 148.942222 
L 579.6 148.942222 
" clip-path="url(#p5b661ddab8)" style="fill: none; stroke: #b0b0b0; stroke-opacity: 0.25; stroke-width: 0.8; stroke-linecap: square"/>
     </g>
     <g id="line2d_13">
      <g>
       <use xlink:href="#m0bd868b994" x="44.66" y="148.942222" style="stroke: #000000; stroke-width: 0.8"/>
      </g>
     </g>
     <g id="text_8">
      <!-- 40 -->
      <g transform="translate(24.935 152.741441) scale(0.1 -0.1)">
       <defs>
        <path id="DejaVuSans-34" d="M 2419 4116 
L 825 1625 
L 2419 1625 
L 2419 4116 
z
M 2253 4666 
L 3047 4666 
L 3047 1625 
L 3713 1625 
L 3713 1100 
L 3047 1100 
L 3047 0 
L 2419 0 
L 2419 1100 
L 313 1100 
L 313 1709 
L 2253 4666 
z
" transform="scale(0.015625)"/>
       </defs>
       <use xlink:href="#DejaVuSans-34"/>
       <use xlink:href="#DejaVuSans-30" x="63.623047"/>
      </g>
     </g>
    </g>
    <g id="ytick_6">
     <g id="line2d_14">
      <path d="M 44.66 110.347778 
L 579.6 110.347778 
" clip-path="url(#p5b661ddab8)" style="fill: none; stroke: #b0b0b0; stroke-opacity: 0.25; stroke-width: 0.8; stroke-linecap: square"/>
     </g>
     <g id="line2d_15">
      <g>
       <use xlink:href="#m0bd868b994" x="44.66" y="110.347778" style="stroke: #000000; stroke-width: 0.8"/>
      </g>
     </g>
     <g id="text_9">
      <!-- 50 -->
      <g transform="translate(24.935 114.146997) scale(0.1 -0.1)">
       <defs>
        <path id="DejaVuSans-35" d="M 691 4666 
L 3169 4666 
L 3169 4134 
L 1269 4134 
L 1269 2991 
Q 1406 3038 1543 3061 
Q 1681 3084 1819 3084 
Q 2600 3084 3056 2656 
Q 3513 2228 3513 1497 
Q 3513 744 3044 326 
Q 2575 -91 1722 -91 
Q 1428 -91 1123 -41 
Q 819 9 494 109 
L 494 744 
Q 775 591 1075 516 
Q 1375 441 1709 441 
Q 2250 441 2565 725 
Q 2881 1009 2881 1497 
Q 2881 1984 2565 2268 
Q 2250 2553 1709 2553 
Q 1456 2553 1204 2497 
Q 953 2441 691 2322 
L 691 4666 
z
" transform="scale(0.015625)"/>
       </defs>
       <use xlink:href="#DejaVuSans-35"/>
       <use xlink:href="#DejaVuSans-30" x="63.623047"/>
      </g>
     </g>
    </g>
    <g id="ytick_7">
     <g id="line2d_16">
      <path d="M 44.66 71.753333 
L 579.6 71.753333 
" clip-path="url(#p5b661ddab8)" style="fill: none; stroke: #b0b0b0; stroke-opacity: 0.25; stroke-width: 0.8; stroke-linecap: square"/>
     </g>
     <g id="line2d_17">
      <g>
       <use xlink:href="#m0bd868b994" x="44.66" y="71.753333" style="stroke: #000000; stroke-width: 0.8"/>
      </g>
     </g>
     <g id="text_10">
      <!-- 60 -->
      <g transform="translate(24.935 75.552552) scale(0.1 -0.1)">
       <defs>
        <path id="DejaVuSans-36" d="M 2113 2584 
Q 1688 2584 1439 2293 
Q 1191 2003 1191 1497 
Q 1191 994 1439 701 
Q 1688 409 2113 409 
Q 2538 409 2786 701 
Q 3034 994 3034 1497 
Q 3034 2003 2786 2293 
Q 2538 2584 2113 2584 
z
M 3366 4563 
L 3366 3988 
Q 3128 4100 2886 4159 
Q 2644 4219 2406 4219 
Q 1781 4219 1451 3797 
Q 1122 3375 1075 2522 
Q 1259 2794 1537 2939 
Q 1816 3084 2150 3084 
Q 2853 3084 3261 2657 
Q 3669 2231 3669 1497 
Q 3669 778 3244 343 
Q 2819 -91 2113 -91 
Q 1303 -91 875 529 
Q 447 1150 447 2328 
Q 447 3434 972 4092 
Q 1497 4750 2381 4750 
Q 2619 4750 2861 4703 
Q 3103 4656 3366 4563 
z
" transform="scale(0.015625)"/>
       </defs>
       <use xlink:href="#DejaVuSans-36"/>
       <use xlink:href="#DejaVuSans-30" x="63.623047"/>
      </g>
     </g>
    </g>
    <g id="ytick_8">
     <g id="line2d_18">
      <path d="M 44.66 33.158889 
L 579.6 33.158889 
" clip-path="url(#p5b661ddab8)" style="fill: none; stroke: #b0b0b0; stroke-opacity: 0.25; stroke-width: 0.8; stroke-linecap: square"/>
     </g>
     <g id="line2d_19">
      <g>
       <use xlink:href="#m0bd868b994" x="44.66" y="33.158889" style="stroke: #000000; stroke-width: 0.8"/>
      </g>
     </g>
     <g id="text_11">
      <!-- 70 -->
      <g transform="translate(24.935 36.958108) scale(0.1 -0.1)">
       <defs>
        <path id="DejaVuSans-37" d="M 525 4666 
L 3525 4666 
L 3525 4397 
L 1831 0 
L 1172 0 
L 2766 4134 
L 525 4134 
L 525 4666 
z
" transform="scale(0.015625)"/>
       </defs>
       <use xlink:href="#DejaVuSans-37"/>
       <use xlink:href="#DejaVuSans-30" x="63.623047"/>
      </g>
     </g>
    </g>
    <g id="text_12">
     <!-- Success rate (%) -->
     <g transform="translate(18.855313 206.494062) rotate(-90) scale(0.1 -0.1)">
      <defs>
       <path id="DejaVuSans-75" d="M 544 1381 
L 544 3500 
L 1119 3500 
L 1119 1403 
Q 1119 906 1312 657 
Q 1506 409 1894 409 
Q 2359 409 2629 706 
Q 2900 1003 2900 1516 
L 2900 3500 
L 3475 3500 
L 3475 0 
L 2900 0 
L 2900 538 
Q 2691 219 2414 64 
Q 2138 -91 1772 -91 
Q 1169 -91 856 284 
Q 544 659 544 1381 
z
M 1991 3584 
L 1991 3584 
z
" transform="scale(0.015625)"/>
       <path id="DejaVuSans-28" d="M 1984 4856 
Q 1566 4138 1362 3434 
Q 1159 2731 1159 2009 
Q 1159 1288 1364 580 
Q 1569 -128 1984 -844 
L 1484 -844 
Q 1016 -109 783 600 
Q 550 1309 550 2009 
Q 550 2706 781 3412 
Q 1013 4119 1484 4856 
L 1984 4856 
z
" transform="scale(0.015625)"/>
       <path id="DejaVuSans-25" d="M 4653 2053 
Q 4381 2053 4226 1822 
Q 4072 1591 4072 1178 
Q 4072 772 4226 539 
Q 4381 306 4653 306 
Q 4919 306 5073 539 
Q 5228 772 5228 1178 
Q 5228 1588 5073 1820 
Q 4919 2053 4653 2053 
z
M 4653 2450 
Q 5147 2450 5437 2106 
Q 5728 1763 5728 1178 
Q 5728 594 5436 251 
Q 5144 -91 4653 -91 
Q 4153 -91 3862 251 
Q 3572 594 3572 1178 
Q 3572 1766 3864 2108 
Q 4156 2450 4653 2450 
z
M 1428 4353 
Q 1159 4353 1004 4120 
Q 850 3888 850 3481 
Q 850 3069 1003 2837 
Q 1156 2606 1428 2606 
Q 1700 2606 1854 2837 
Q 2009 3069 2009 3481 
Q 2009 3884 1853 4118 
Q 1697 4353 1428 4353 
z
M 4250 4750 
L 4750 4750 
L 1831 -91 
L 1331 -91 
L 4250 4750 
z
M 1428 4750 
Q 1922 4750 2215 4408 
Q 2509 4066 2509 3481 
Q 2509 2891 2217 2550 
Q 1925 2209 1428 2209 
Q 931 2209 642 2551 
Q 353 2894 353 3481 
Q 353 4063 643 4406 
Q 934 4750 1428 4750 
z
" transform="scale(0.015625)"/>
       <path id="DejaVuSans-29" d="M 513 4856 
L 1013 4856 
Q 1481 4119 1714 3412 
Q 1947 2706 1947 2009 
Q 1947 1309 1714 600 
Q 1481 -109 1013 -844 
L 513 -844 
Q 928 -128 1133 580 
Q 1338 1288 1338 2009 
Q 1338 2731 1133 3434 
Q 928 4138 513 4856 
z
" transform="scale(0.015625)"/>
      </defs>
      <use xlink:href="#DejaVuSans-53"/>
      <use xlink:href="#DejaVuSans-75" x="63.476562"/>
      <use xlink:href="#DejaVuSans-63" x="126.855469"/>
      <use xlink:href="#DejaVuSans-63" x="181.835938"/>
      <use xlink:href="#DejaVuSans-65" x="236.816406"/>
      <use xlink:href="#DejaVuSans-73" x="298.339844"/>
      <use xlink:href="#DejaVuSans-73" x="350.439453"/>
      <use xlink:href="#DejaVuSans-20" x="402.539062"/>
      <use xlink:href="#DejaVuSans-72" x="434.326172"/>
      <use xlink:href="#DejaVuSans-61" x="475.439453"/>
      <use xlink:href="#DejaVuSans-74" x="536.71875"/>
      <use xlink:href="#DejaVuSans-65" x="575.927734"/>
      <use xlink:href="#DejaVuSans-20" x="637.451172"/>
      <use xlink:href="#DejaVuSans-28" x="669.238281"/>
      <use xlink:href="#DejaVuSans-25" x="708.251953"/>
      <use xlink:href="#DejaVuSans-29" x="803.271484"/>
     </g>
    </g>
   </g>
   <g id="LineCollection_1">
    <path d="M 91.080413 287.385072 
L 91.080413 74.823447 
" clip-path="url(#p5b661ddab8)" style="fill: none; stroke: #000000; stroke-width: 1.5"/>
    <path d="M 267.920083 264.725556 
L 267.920083 226.131111 
" clip-path="url(#p5b661ddab8)" style="fill: none; stroke: #000000; stroke-width: 1.5"/>
    <path d="M 444.759752 262.040512 
L 444.759752 203.086525 
" clip-path="url(#p5b661ddab8)" style="fill: none; stroke: #000000; stroke-width: 1.5"/>
   </g>
   <g id="line2d_20">
    <defs>
     <path id="ma417db0414" d="M 4 0 
L -4 -0 
" style="stroke: #000000"/>
    </defs>
    <g clip-path="url(#p5b661ddab8)">
     <use xlink:href="#ma417db0414" x="91.080413" y="287.385072" style="stroke: #000000"/>
     <use xlink:href="#ma417db0414" x="267.920083" y="264.725556" style="stroke: #000000"/>
     <use xlink:href="#ma417db0414" x="444.759752" y="262.040512" style="stroke: #000000"/>
    </g>
   </g>
   <g id="line2d_21">
    <g clip-path="url(#p5b661ddab8)">
     <use xlink:href="#ma417db0414" x="91.080413" y="74.823447" style="stroke: #000000"/>
     <use xlink:href="#ma417db0414" x="267.920083" y="226.131111" style="stroke: #000000"/>
     <use xlink:href="#ma417db0414" x="444.759752" y="203.086525" style="stroke: #000000"/>
    </g>
   </g>
   <g id="LineCollection_2">
    <path d="M 135.290331 285.619865 
L 135.290331 50.859024 
" clip-path="url(#p5b661ddab8)" style="fill: none; stroke: #000000; stroke-width: 1.5"/>
    <path d="M 312.13 192.245516 
L 312.13 169.963003 
" clip-path="url(#p5b661ddab8)" style="fill: none; stroke: #000000; stroke-width: 1.5"/>
    <path d="M 488.969669 301.596442 
L 488.969669 279.313929 
" clip-path="url(#p5b661ddab8)" style="fill: none; stroke: #000000; stroke-width: 1.5"/>
   </g>
   <g id="line2d_22">
    <g clip-path="url(#p5b661ddab8)">
     <use xlink:href="#ma417db0414" x="135.290331" y="285.619865" style="stroke: #000000"/>
     <use xlink:href="#ma417db0414" x="312.13" y="192.245516" style="stroke: #000000"/>
     <use xlink:href="#ma417db0414" x="488.969669" y="301.596442" style="stroke: #000000"/>
    </g>
   </g>
   <g id="line2d_23">
    <g clip-path="url(#p5b661ddab8)">
     <use xlink:href="#ma417db0414" x="135.290331" y="50.859024" style="stroke: #000000"/>
     <use xlink:href="#ma417db0414" x="312.13" y="169.963003" style="stroke: #000000"/>
     <use xlink:href="#ma417db0414" x="488.969669" y="279.313929" style="stroke: #000000"/>
    </g>
   </g>
   <g id="patch_12">
    <path d="M 44.66 303.32 
L 44.66 25.44 
" style="fill: none; stroke: #000000; stroke-width: 0.8; stroke-linejoin: miter; stroke-linecap: square"/>
   </g>
   <g id="patch_13">
    <path d="M 579.6 303.32 
L 579.6 25.44 
" style="fill: none; stroke: #000000; stroke-width: 0.8; stroke-linejoin: miter; stroke-linecap: square"/>
   </g>
   <g id="patch_14">
    <path d="M 44.66 303.32 
L 579.6 303.32 
" style="fill: none; stroke: #000000; stroke-width: 0.8; stroke-linejoin: miter; stroke-linecap: square"/>
   </g>
   <g id="patch_15">
    <path d="M 44.66 25.44 
L 579.6 25.44 
" style="fill: none; stroke: #000000; stroke-width: 0.8; stroke-linejoin: miter; stroke-linecap: square"/>
   </g>
   <g id="text_13">
    <!-- 35% -->
    <g transform="translate(169.498295 164.38) scale(0.09 -0.09)">
     <use xlink:href="#DejaVuSans-33"/>
     <use xlink:href="#DejaVuSans-35" x="63.623047"/>
     <use xlink:href="#DejaVuSans-25" x="127.246094"/>
    </g>
   </g>
   <g id="text_14">
    <!-- 30% -->
    <g transform="translate(346.337964 183.677222) scale(0.09 -0.09)">
     <use xlink:href="#DejaVuSans-33"/>
     <use xlink:href="#DejaVuSans-30" x="63.623047"/>
     <use xlink:href="#DejaVuSans-25" x="127.246094"/>
    </g>
   </g>
   <g id="text_15">
    <!-- 15% -->
    <g transform="translate(523.177634 241.568889) scale(0.09 -0.09)">
     <use xlink:href="#DejaVuSans-31"/>
     <use xlink:href="#DejaVuSans-35" x="63.623047"/>
     <use xlink:href="#DejaVuSans-25" x="127.246094"/>
    </g>
   </g>
   <g id="text_16">
    <!-- Post-hoc adaptive ensemble: fixed-trajectory exploratory replay -->
    <g transform="translate(120.32875 19.44) scale(0.12 -0.12)">
     <defs>
      <path id="DejaVuSans-50" d="M 1259 4147 
L 1259 2394 
L 2053 2394 
Q 2494 2394 2734 2622 
Q 2975 2850 2975 3272 
Q 2975 3691 2734 3919 
Q 2494 4147 2053 4147 
L 1259 4147 
z
M 628 4666 
L 2053 4666 
Q 2838 4666 3239 4311 
Q 3641 3956 3641 3272 
Q 3641 2581 3239 2228 
Q 2838 1875 2053 1875 
L 1259 1875 
L 1259 0 
L 628 0 
L 628 4666 
z
" transform="scale(0.015625)"/>
      <path id="DejaVuSans-2d" d="M 313 2009 
L 1997 2009 
L 1997 1497 
L 313 1497 
L 313 2009 
z
" transform="scale(0.015625)"/>
      <path id="DejaVuSans-64" d="M 2906 2969 
L 2906 4863 
L 3481 4863 
L 3481 0 
L 2906 0 
L 2906 525 
Q 2725 213 2448 61 
Q 2172 -91 1784 -91 
Q 1150 -91 751 415 
Q 353 922 353 1747 
Q 353 2572 751 3078 
Q 1150 3584 1784 3584 
Q 2172 3584 2448 3432 
Q 2725 3281 2906 2969 
z
M 947 1747 
Q 947 1113 1208 752 
Q 1469 391 1925 391 
Q 2381 391 2643 752 
Q 2906 1113 2906 1747 
Q 2906 2381 2643 2742 
Q 2381 3103 1925 3103 
Q 1469 3103 1208 2742 
Q 947 2381 947 1747 
z
" transform="scale(0.015625)"/>
      <path id="DejaVuSans-76" d="M 191 3500 
L 800 3500 
L 1894 563 
L 2988 3500 
L 3597 3500 
L 2284 0 
L 1503 0 
L 191 3500 
z
" transform="scale(0.015625)"/>
      <path id="DejaVuSans-6d" d="M 3328 2828 
Q 3544 3216 3844 3400 
Q 4144 3584 4550 3584 
Q 5097 3584 5394 3201 
Q 5691 2819 5691 2113 
L 5691 0 
L 5113 0 
L 5113 2094 
Q 5113 2597 4934 2840 
Q 4756 3084 4391 3084 
Q 3944 3084 3684 2787 
Q 3425 2491 3425 1978 
L 3425 0 
L 2847 0 
L 2847 2094 
Q 2847 2600 2669 2842 
Q 2491 3084 2119 3084 
Q 1678 3084 1418 2786 
Q 1159 2488 1159 1978 
L 1159 0 
L 581 0 
L 581 3500 
L 1159 3500 
L 1159 2956 
Q 1356 3278 1631 3431 
Q 1906 3584 2284 3584 
Q 2666 3584 2933 3390 
Q 3200 3197 3328 2828 
z
" transform="scale(0.015625)"/>
      <path id="DejaVuSans-62" d="M 3116 1747 
Q 3116 2381 2855 2742 
Q 2594 3103 2138 3103 
Q 1681 3103 1420 2742 
Q 1159 2381 1159 1747 
Q 1159 1113 1420 752 
Q 1681 391 2138 391 
Q 2594 391 2855 752 
Q 3116 1113 3116 1747 
z
M 1159 2969 
Q 1341 3281 1617 3432 
Q 1894 3584 2278 3584 
Q 2916 3584 3314 3078 
Q 3713 2572 3713 1747 
Q 3713 922 3314 415 
Q 2916 -91 2278 -91 
Q 1894 -91 1617 61 
Q 1341 213 1159 525 
L 1159 0 
L 581 0 
L 581 4863 
L 1159 4863 
L 1159 2969 
z
" transform="scale(0.015625)"/>
      <path id="DejaVuSans-3a" d="M 750 794 
L 1409 794 
L 1409 0 
L 750 0 
L 750 794 
z
M 750 3309 
L 1409 3309 
L 1409 2516 
L 750 2516 
L 750 3309 
z
" transform="scale(0.015625)"/>
      <path id="DejaVuSans-66" d="M 2375 4863 
L 2375 4384 
L 1825 4384 
Q 1516 4384 1395 4259 
Q 1275 4134 1275 3809 
L 1275 3500 
L 2222 3500 
L 2222 3053 
L 1275 3053 
L 1275 0 
L 697 0 
L 697 3053 
L 147 3053 
L 147 3500 
L 697 3500 
L 697 3744 
Q 697 4328 969 4595 
Q 1241 4863 1831 4863 
L 2375 4863 
z
" transform="scale(0.015625)"/>
      <path id="DejaVuSans-78" d="M 3513 3500 
L 2247 1797 
L 3578 0 
L 2900 0 
L 1881 1375 
L 863 0 
L 184 0 
L 1544 1831 
L 300 3500 
L 978 3500 
L 1906 2253 
L 2834 3500 
L 3513 3500 
z
" transform="scale(0.015625)"/>
      <path id="DejaVuSans-6a" d="M 603 3500 
L 1178 3500 
L 1178 -63 
Q 1178 -731 923 -1031 
Q 669 -1331 103 -1331 
L -116 -1331 
L -116 -844 
L 38 -844 
Q 366 -844 484 -692 
Q 603 -541 603 -63 
L 603 3500 
z
M 603 4863 
L 1178 4863 
L 1178 4134 
L 603 4134 
L 603 4863 
z
" transform="scale(0.015625)"/>
      <path id="DejaVuSans-79" d="M 2059 -325 
Q 1816 -950 1584 -1140 
Q 1353 -1331 966 -1331 
L 506 -1331 
L 506 -850 
L 844 -850 
Q 1081 -850 1212 -737 
Q 1344 -625 1503 -206 
L 1606 56 
L 191 3500 
L 800 3500 
L 1894 763 
L 2988 3500 
L 3597 3500 
L 2059 -325 
z
" transform="scale(0.015625)"/>
     </defs>
     <use xlink:href="#DejaVuSans-50"/>
     <use xlink:href="#DejaVuSans-6f" x="56.677734"/>
     <use xlink:href="#DejaVuSans-73" x="117.859375"/>
     <use xlink:href="#DejaVuSans-74" x="169.958984"/>
     <use xlink:href="#DejaVuSans-2d" x="209.167969"/>
     <use xlink:href="#DejaVuSans-68" x="245.251953"/>
     <use xlink:href="#DejaVuSans-6f" x="308.630859"/>
     <use xlink:href="#DejaVuSans-63" x="369.8125"/>
     <use xlink:href="#DejaVuSans-20" x="424.792969"/>
     <use xlink:href="#DejaVuSans-61" x="456.580078"/>
     <use xlink:href="#DejaVuSans-64" x="517.859375"/>
     <use xlink:href="#DejaVuSans-61" x="581.335938"/>
     <use xlink:href="#DejaVuSans-70" x="642.615234"/>
     <use xlink:href="#DejaVuSans-74" x="706.091797"/>
     <use xlink:href="#DejaVuSans-69" x="745.300781"/>
     <use xlink:href="#DejaVuSans-76" x="773.083984"/>
     <use xlink:href="#DejaVuSans-65" x="832.263672"/>
     <use xlink:href="#DejaVuSans-20" x="893.787109"/>
     <use xlink:href="#DejaVuSans-65" x="925.574219"/>
     <use xlink:href="#DejaVuSans-6e" x="987.097656"/>
     <use xlink:href="#DejaVuSans-73" x="1050.476562"/>
     <use xlink:href="#DejaVuSans-65" x="1102.576172"/>
     <use xlink:href="#DejaVuSans-6d" x="1164.099609"/>
     <use xlink:href="#DejaVuSans-62" x="1261.511719"/>
     <use xlink:href="#DejaVuSans-6c" x="1324.988281"/>
     <use xlink:href="#DejaVuSans-65" x="1352.771484"/>
     <use xlink:href="#DejaVuSans-3a" x="1414.294922"/>
     <use xlink:href="#DejaVuSans-20" x="1447.986328"/>
     <use xlink:href="#DejaVuSans-66" x="1479.773438"/>
     <use xlink:href="#DejaVuSans-69" x="1514.978516"/>
     <use xlink:href="#DejaVuSans-78" x="1542.761719"/>
     <use xlink:href="#DejaVuSans-65" x="1598.816406"/>
     <use xlink:href="#DejaVuSans-64" x="1660.339844"/>
     <use xlink:href="#DejaVuSans-2d" x="1723.816406"/>
     <use xlink:href="#DejaVuSans-74" x="1759.900391"/>
     <use xlink:href="#DejaVuSans-72" x="1799.109375"/>
     <use xlink:href="#DejaVuSans-61" x="1840.222656"/>
     <use xlink:href="#DejaVuSans-6a" x="1901.501953"/>
     <use xlink:href="#DejaVuSans-65" x="1929.285156"/>
     <use xlink:href="#DejaVuSans-63" x="1990.808594"/>
     <use xlink:href="#DejaVuSans-74" x="2045.789062"/>
     <use xlink:href="#DejaVuSans-6f" x="2084.998047"/>
     <use xlink:href="#DejaVuSans-72" x="2146.179688"/>
     <use xlink:href="#DejaVuSans-79" x="2187.292969"/>
     <use xlink:href="#DejaVuSans-20" x="2246.472656"/>
     <use xlink:href="#DejaVuSans-65" x="2278.259766"/>
     <use xlink:href="#DejaVuSans-78" x="2338.033203"/>
     <use xlink:href="#DejaVuSans-70" x="2397.212891"/>
     <use xlink:href="#DejaVuSans-6c" x="2460.689453"/>
     <use xlink:href="#DejaVuSans-6f" x="2488.472656"/>
     <use xlink:href="#DejaVuSans-72" x="2549.654297"/>
     <use xlink:href="#DejaVuSans-61" x="2590.767578"/>
     <use xlink:href="#DejaVuSans-74" x="2652.046875"/>
     <use xlink:href="#DejaVuSans-6f" x="2691.255859"/>
     <use xlink:href="#DejaVuSans-72" x="2752.4375"/>
     <use xlink:href="#DejaVuSans-79" x="2793.550781"/>
     <use xlink:href="#DejaVuSans-20" x="2852.730469"/>
     <use xlink:href="#DejaVuSans-72" x="2884.517578"/>
     <use xlink:href="#DejaVuSans-65" x="2923.380859"/>
     <use xlink:href="#DejaVuSans-70" x="2984.904297"/>
     <use xlink:href="#DejaVuSans-6c" x="3048.380859"/>
     <use xlink:href="#DejaVuSans-61" x="3076.164062"/>
     <use xlink:href="#DejaVuSans-79" x="3137.443359"/>
    </g>
   </g>
   <g id="legend_1">
    <g id="patch_16">
     <path d="M 386.431875 72.270938 
L 573.3 72.270938 
Q 575.1 72.270938 575.1 70.470938 
L 575.1 31.74 
Q 575.1 29.94 573.3 29.94 
L 386.431875 29.94 
Q 384.631875 29.94 384.631875 31.74 
L 384.631875 70.470938 
Q 384.631875 72.270938 386.431875 72.270938 
z
" style="fill: #ffffff; opacity: 0.8; stroke: #cccccc; stroke-linejoin: miter"/>
    </g>
    <g id="patch_17">
     <path d="M 388.231875 40.378594 
L 406.231875 40.378594 
L 406.231875 34.078594 
L 388.231875 34.078594 
z
" style="fill: #1f77b4"/>
    </g>
    <g id="text_17">
     <!-- Baseline (3-seed mean) -->
     <g transform="translate(413.431875 40.378594) scale(0.09 -0.09)">
      <use xlink:href="#DejaVuSans-42"/>
      <use xlink:href="#DejaVuSans-61" x="68.603516"/>
      <use xlink:href="#DejaVuSans-73" x="129.882812"/>
      <use xlink:href="#DejaVuSans-65" x="181.982422"/>
      <use xlink:href="#DejaVuSans-6c" x="243.505859"/>
      <use xlink:href="#DejaVuSans-69" x="271.289062"/>
      <use xlink:href="#DejaVuSans-6e" x="299.072266"/>
      <use xlink:href="#DejaVuSans-65" x="362.451172"/>
      <use xlink:href="#DejaVuSans-20" x="423.974609"/>
      <use xlink:href="#DejaVuSans-28" x="455.761719"/>
      <use xlink:href="#DejaVuSans-33" x="494.775391"/>
      <use xlink:href="#DejaVuSans-2d" x="558.398438"/>
      <use xlink:href="#DejaVuSans-73" x="594.482422"/>
      <use xlink:href="#DejaVuSans-65" x="646.582031"/>
      <use xlink:href="#DejaVuSans-65" x="708.105469"/>
      <use xlink:href="#DejaVuSans-64" x="769.628906"/>
      <use xlink:href="#DejaVuSans-20" x="833.105469"/>
      <use xlink:href="#DejaVuSans-6d" x="864.892578"/>
      <use xlink:href="#DejaVuSans-65" x="962.304688"/>
      <use xlink:href="#DejaVuSans-61" x="1023.828125"/>
      <use xlink:href="#DejaVuSans-6e" x="1085.107422"/>
      <use xlink:href="#DejaVuSans-29" x="1148.486328"/>
     </g>
    </g>
    <g id="patch_18">
     <path d="M 388.231875 53.588906 
L 406.231875 53.588906 
L 406.231875 47.288906 
L 388.231875 47.288906 
z
" style="fill: #ff7f0e"/>
    </g>
    <g id="text_18">
     <!-- Wrist=4 (3-seed mean) -->
     <g transform="translate(413.431875 53.588906) scale(0.09 -0.09)">
      <defs>
       <path id="DejaVuSans-57" d="M 213 4666 
L 850 4666 
L 1831 722 
L 2809 4666 
L 3519 4666 
L 4500 722 
L 5478 4666 
L 6119 4666 
L 4947 0 
L 4153 0 
L 3169 4050 
L 2175 0 
L 1381 0 
L 213 4666 
z
" transform="scale(0.015625)"/>
       <path id="DejaVuSans-3d" d="M 678 2906 
L 4684 2906 
L 4684 2381 
L 678 2381 
L 678 2906 
z
M 678 1631 
L 4684 1631 
L 4684 1100 
L 678 1100 
L 678 1631 
z
" transform="scale(0.015625)"/>
      </defs>
      <use xlink:href="#DejaVuSans-57"/>
      <use xlink:href="#DejaVuSans-72" x="94.376953"/>
      <use xlink:href="#DejaVuSans-69" x="135.490234"/>
      <use xlink:href="#DejaVuSans-73" x="163.273438"/>
      <use xlink:href="#DejaVuSans-74" x="215.373047"/>
      <use xlink:href="#DejaVuSans-3d" x="254.582031"/>
      <use xlink:href="#DejaVuSans-34" x="338.371094"/>
      <use xlink:href="#DejaVuSans-20" x="401.994141"/>
      <use xlink:href="#DejaVuSans-28" x="433.78125"/>
      <use xlink:href="#DejaVuSans-33" x="472.794922"/>
      <use xlink:href="#DejaVuSans-2d" x="536.417969"/>
      <use xlink:href="#DejaVuSans-73" x="572.501953"/>
      <use xlink:href="#DejaVuSans-65" x="624.601562"/>
      <use xlink:href="#DejaVuSans-65" x="686.125"/>
      <use xlink:href="#DejaVuSans-64" x="747.648438"/>
      <use xlink:href="#DejaVuSans-20" x="811.125"/>
      <use xlink:href="#DejaVuSans-6d" x="842.912109"/>
      <use xlink:href="#DejaVuSans-65" x="940.324219"/>
      <use xlink:href="#DejaVuSans-61" x="1001.847656"/>
      <use xlink:href="#DejaVuSans-6e" x="1063.126953"/>
      <use xlink:href="#DejaVuSans-29" x="1126.505859"/>
     </g>
    </g>
    <g id="patch_19">
     <path d="M 388.231875 66.799219 
L 406.231875 66.799219 
L 406.231875 60.499219 
L 388.231875 60.499219 
z
" style="fill: #2ca02c"/>
    </g>
    <g id="text_19">
     <!-- Adaptive ensemble (1 fixed replay) -->
     <g transform="translate(413.431875 66.799219) scale(0.09 -0.09)">
      <defs>
       <path id="DejaVuSans-41" d="M 2188 4044 
L 1331 1722 
L 3047 1722 
L 2188 4044 
z
M 1831 4666 
L 2547 4666 
L 4325 0 
L 3669 0 
L 3244 1197 
L 1141 1197 
L 716 0 
L 50 0 
L 1831 4666 
z
" transform="scale(0.015625)"/>
      </defs>
      <use xlink:href="#DejaVuSans-41"/>
      <use xlink:href="#DejaVuSans-64" x="66.658203"/>
      <use xlink:href="#DejaVuSans-61" x="130.134766"/>
      <use xlink:href="#DejaVuSans-70" x="191.414062"/>
      <use xlink:href="#DejaVuSans-74" x="254.890625"/>
      <use xlink:href="#DejaVuSans-69" x="294.099609"/>
      <use xlink:href="#DejaVuSans-76" x="321.882812"/>
      <use xlink:href="#DejaVuSans-65" x="381.0625"/>
      <use xlink:href="#DejaVuSans-20" x="442.585938"/>
      <use xlink:href="#DejaVuSans-65" x="474.373047"/>
      <use xlink:href="#DejaVuSans-6e" x="535.896484"/>
      <use xlink:href="#DejaVuSans-73" x="599.275391"/>
      <use xlink:href="#DejaVuSans-65" x="651.375"/>
      <use xlink:href="#DejaVuSans-6d" x="712.898438"/>
      <use xlink:href="#DejaVuSans-62" x="810.310547"/>
      <use xlink:href="#DejaVuSans-6c" x="873.787109"/>
      <use xlink:href="#DejaVuSans-65" x="901.570312"/>
      <use xlink:href="#DejaVuSans-20" x="963.09375"/>
      <use xlink:href="#DejaVuSans-28" x="994.880859"/>
      <use xlink:href="#DejaVuSans-31" x="1033.894531"/>
      <use xlink:href="#DejaVuSans-20" x="1097.517578"/>
      <use xlink:href="#DejaVuSans-66" x="1129.304688"/>
      <use xlink:href="#DejaVuSans-69" x="1164.509766"/>
      <use xlink:href="#DejaVuSans-78" x="1192.292969"/>
      <use xlink:href="#DejaVuSans-65" x="1248.347656"/>
      <use xlink:href="#DejaVuSans-64" x="1309.871094"/>
      <use xlink:href="#DejaVuSans-20" x="1373.347656"/>
      <use xlink:href="#DejaVuSans-72" x="1405.134766"/>
      <use xlink:href="#DejaVuSans-65" x="1443.998047"/>
      <use xlink:href="#DejaVuSans-70" x="1505.521484"/>
      <use xlink:href="#DejaVuSans-6c" x="1568.998047"/>
      <use xlink:href="#DejaVuSans-61" x="1596.78125"/>
      <use xlink:href="#DejaVuSans-79" x="1658.060547"/>
      <use xlink:href="#DejaVuSans-29" x="1717.240234"/>
     </g>
    </g>
   </g>
  </g>
 </g>
 <defs>
  <clipPath id="p5b661ddab8">
   <rect x="44.66" y="25.44" width="534.94" height="277.88"/>
  </clipPath>
 </defs>
</svg>
