<?xml version="1.0" encoding="utf-8" standalone="no"?>
<!DOCTYPE svg PUBLIC "-//W3C//DTD SVG 1.1//EN"
  "http://www.w3.org/Graphics/SVG/1.1/DTD/svg11.dtd">
<svg xmlns:xlink="http://www.w3.org/1999/xlink" width="934.73375pt" height="263.86825pt" viewBox="0 0 934.73375 263.86825" xmlns="http://www.w3.org/2000/svg" version="1.1">
 <metadata>
  <rdf:RDF xmlns:dc="http://purl.org/dc/elements/1.1/" xmlns:cc="http://creativecommons.org/ns#" xmlns:rdf="http://www.w3.org/1999/02/22-rdf-syntax-ns#">
   <cc:Work>
    <dc:type rdf:resource="http://purl.org/dc/dcmitype/StillImage"/>
    <dc:date>2026-07-20T10:32:26.201553</dc:date>
    <dc:format>image/svg+xml</dc:format>
    <dc:creator>
     <cc:Agent>
      <dc:title>Matplotlib v3.6.3, https://matplotlib.org/</dc:title>
     </cc:Agent>
    </dc:creator>
   </cc:Work>
  </rdf:RDF>
 </metadata>
 <defs>
  <style type="text/css">*{stroke-linejoin: round; stroke-linecap: butt}</style>
 </defs>
 <g id="figure_1">
  <g id="patch_1">
   <path d="M 0 263.86825 
L 934.73375 263.86825 
L 934.73375 0 
L 0 0 
z
" style="fill: #ffffff"/>
  </g>
  <g id="axes_1">
   <g id="patch_2">
    <path d="M 50.14375 226.312 
L 333.07375 226.312 
L 333.07375 48.912 
L 50.14375 48.912 
z
" style="fill: #ffffff"/>
   </g>
   <g id="matplotlib.axis_1">
    <g id="xtick_1">
     <g id="line2d_1">
      <path d="M 61.64331 226.312 
L 61.64331 48.912 
" clip-path="url(#p043216eb1f)" style="fill: none; stroke: #b0b0b0; stroke-opacity: 0.25; stroke-width: 0.8; stroke-linecap: square"/>
     </g>
     <g id="line2d_2">
      <defs>
       <path id="m30d677a24d" d="M 0 0 
L 0 3.5 
" style="stroke: #000000; stroke-width: 0.8"/>
      </defs>
      <g>
       <use xlink:href="#m30d677a24d" x="61.64331" y="226.312" style="stroke: #000000; stroke-width: 0.8"/>
      </g>
     </g>
     <g id="text_1">
      <!-- 0 -->
      <g transform="translate(58.46206 240.910438) scale(0.1 -0.1)">
       <defs>
        <path id="DejaVuSans-30" d="M 2034 4250 
Q 1547 4250 1301 3770 
Q 1056 3291 1056 2328 
Q 1056 1369 1301 889 
Q 1547 409 2034 409 
Q 2525 409 2770 889 
Q 3016 1369 3016 2328 
Q 3016 3291 2770 3770 
Q 2525 4250 2034 4250 
z
M 2034 4750 
Q 2819 4750 3233 4129 
Q 3647 3509 3647 2328 
Q 3647 1150 3233 529 
Q 2819 -91 2034 -91 
Q 1250 -91 836 529 
Q 422 1150 422 2328 
Q 422 3509 836 4129 
Q 1250 4750 2034 4750 
z
" transform="scale(0.015625)"/>
       </defs>
       <use xlink:href="#DejaVuSans-30"/>
      </g>
     </g>
    </g>
    <g id="xtick_2">
     <g id="line2d_3">
      <path d="M 95.665676 226.312 
L 95.665676 48.912 
" clip-path="url(#p043216eb1f)" style="fill: none; stroke: #b0b0b0; stroke-opacity: 0.25; stroke-width: 0.8; stroke-linecap: square"/>
     </g>
     <g id="line2d_4">
      <g>
       <use xlink:href="#m30d677a24d" x="95.665676" y="226.312" style="stroke: #000000; stroke-width: 0.8"/>
      </g>
     </g>
     <g id="text_2">
      <!-- 25 -->
      <g transform="translate(89.303176 240.910438) scale(0.1 -0.1)">
       <defs>
        <path id="DejaVuSans-32" d="M 1228 531 
L 3431 531 
L 3431 0 
L 469 0 
L 469 531 
Q 828 903 1448 1529 
Q 2069 2156 2228 2338 
Q 2531 2678 2651 2914 
Q 2772 3150 2772 3378 
Q 2772 3750 2511 3984 
Q 2250 4219 1831 4219 
Q 1534 4219 1204 4116 
Q 875 4013 500 3803 
L 500 4441 
Q 881 4594 1212 4672 
Q 1544 4750 1819 4750 
Q 2544 4750 2975 4387 
Q 3406 4025 3406 3419 
Q 3406 3131 3298 2873 
Q 3191 2616 2906 2266 
Q 2828 2175 2409 1742 
Q 1991 1309 1228 531 
z
" transform="scale(0.015625)"/>
        <path id="DejaVuSans-35" d="M 691 4666 
L 3169 4666 
L 3169 4134 
L 1269 4134 
L 1269 2991 
Q 1406 3038 1543 3061 
Q 1681 3084 1819 3084 
Q 2600 3084 3056 2656 
Q 3513 2228 3513 1497 
Q 3513 744 3044 326 
Q 2575 -91 1722 -91 
Q 1428 -91 1123 -41 
Q 819 9 494 109 
L 494 744 
Q 775 591 1075 516 
Q 1375 441 1709 441 
Q 2250 441 2565 725 
Q 2881 1009 2881 1497 
Q 2881 1984 2565 2268 
Q 2250 2553 1709 2553 
Q 1456 2553 1204 2497 
Q 953 2441 691 2322 
L 691 4666 
z
" transform="scale(0.015625)"/>
       </defs>
       <use xlink:href="#DejaVuSans-32"/>
       <use xlink:href="#DejaVuSans-35" x="63.623047"/>
      </g>
     </g>
    </g>
    <g id="xtick_3">
     <g id="line2d_5">
      <path d="M 129.688043 226.312 
L 129.688043 48.912 
" clip-path="url(#p043216eb1f)" style="fill: none; stroke: #b0b0b0; stroke-opacity: 0.25; stroke-width: 0.8; stroke-linecap: square"/>
     </g>
     <g id="line2d_6">
      <g>
       <use xlink:href="#m30d677a24d" x="129.688043" y="226.312" style="stroke: #000000; stroke-width: 0.8"/>
      </g>
     </g>
     <g id="text_3">
      <!-- 50 -->
      <g transform="translate(123.325543 240.910438) scale(0.1 -0.1)">
       <use xlink:href="#DejaVuSans-35"/>
       <use xlink:href="#DejaVuSans-30" x="63.623047"/>
      </g>
     </g>
    </g>
    <g id="xtick_4">
     <g id="line2d_7">
      <path d="M 163.710409 226.312 
L 163.710409 48.912 
" clip-path="url(#p043216eb1f)" style="fill: none; stroke: #b0b0b0; stroke-opacity: 0.25; stroke-width: 0.8; stroke-linecap: square"/>
     </g>
     <g id="line2d_8">
      <g>
       <use xlink:href="#m30d677a24d" x="163.710409" y="226.312" style="stroke: #000000; stroke-width: 0.8"/>
      </g>
     </g>
     <g id="text_4">
      <!-- 75 -->
      <g transform="translate(157.347909 240.910438) scale(0.1 -0.1)">
       <defs>
        <path id="DejaVuSans-37" d="M 525 4666 
L 3525 4666 
L 3525 4397 
L 1831 0 
L 1172 0 
L 2766 4134 
L 525 4134 
L 525 4666 
z
" transform="scale(0.015625)"/>
       </defs>
       <use xlink:href="#DejaVuSans-37"/>
       <use xlink:href="#DejaVuSans-35" x="63.623047"/>
      </g>
     </g>
    </g>
    <g id="xtick_5">
     <g id="line2d_9">
      <path d="M 197.732776 226.312 
L 197.732776 48.912 
" clip-path="url(#p043216eb1f)" style="fill: none; stroke: #b0b0b0; stroke-opacity: 0.25; stroke-width: 0.8; stroke-linecap: square"/>
     </g>
     <g id="line2d_10">
      <g>
       <use xlink:href="#m30d677a24d" x="197.732776" y="226.312" style="stroke: #000000; stroke-width: 0.8"/>
      </g>
     </g>
     <g id="text_5">
      <!-- 100 -->
      <g transform="translate(188.189026 240.910438) scale(0.1 -0.1)">
       <defs>
        <path id="DejaVuSans-31" d="M 794 531 
L 1825 531 
L 1825 4091 
L 703 3866 
L 703 4441 
L 1819 4666 
L 2450 4666 
L 2450 531 
L 3481 531 
L 3481 0 
L 794 0 
L 794 531 
z
" transform="scale(0.015625)"/>
       </defs>
       <use xlink:href="#DejaVuSans-31"/>
       <use xlink:href="#DejaVuSans-30" x="63.623047"/>
       <use xlink:href="#DejaVuSans-30" x="127.246094"/>
      </g>
     </g>
    </g>
    <g id="xtick_6">
     <g id="line2d_11">
      <path d="M 231.755142 226.312 
L 231.755142 48.912 
" clip-path="url(#p043216eb1f)" style="fill: none; stroke: #b0b0b0; stroke-opacity: 0.25; stroke-width: 0.8; stroke-linecap: square"/>
     </g>
     <g id="line2d_12">
      <g>
       <use xlink:href="#m30d677a24d" x="231.755142" y="226.312" style="stroke: #000000; stroke-width: 0.8"/>
      </g>
     </g>
     <g id="text_6">
      <!-- 125 -->
      <g transform="translate(222.211392 240.910438) scale(0.1 -0.1)">
       <use xlink:href="#DejaVuSans-31"/>
       <use xlink:href="#DejaVuSans-32" x="63.623047"/>
       <use xlink:href="#DejaVuSans-35" x="127.246094"/>
      </g>
     </g>
    </g>
    <g id="xtick_7">
     <g id="line2d_13">
      <path d="M 265.777509 226.312 
L 265.777509 48.912 
" clip-path="url(#p043216eb1f)" style="fill: none; stroke: #b0b0b0; stroke-opacity: 0.25; stroke-width: 0.8; stroke-linecap: square"/>
     </g>
     <g id="line2d_14">
      <g>
       <use xlink:href="#m30d677a24d" x="265.777509" y="226.312" style="stroke: #000000; stroke-width: 0.8"/>
      </g>
     </g>
     <g id="text_7">
      <!-- 150 -->
      <g transform="translate(256.233759 240.910438) scale(0.1 -0.1)">
       <use xlink:href="#DejaVuSans-31"/>
       <use xlink:href="#DejaVuSans-35" x="63.623047"/>
       <use xlink:href="#DejaVuSans-30" x="127.246094"/>
      </g>
     </g>
    </g>
    <g id="xtick_8">
     <g id="line2d_15">
      <path d="M 299.799876 226.312 
L 299.799876 48.912 
" clip-path="url(#p043216eb1f)" style="fill: none; stroke: #b0b0b0; stroke-opacity: 0.25; stroke-width: 0.8; stroke-linecap: square"/>
     </g>
     <g id="line2d_16">
      <g>
       <use xlink:href="#m30d677a24d" x="299.799876" y="226.312" style="stroke: #000000; stroke-width: 0.8"/>
      </g>
     </g>
     <g id="text_8">
      <!-- 175 -->
      <g transform="translate(290.256126 240.910438) scale(0.1 -0.1)">
       <use xlink:href="#DejaVuSans-31"/>
       <use xlink:href="#DejaVuSans-37" x="63.623047"/>
       <use xlink:href="#DejaVuSans-35" x="127.246094"/>
      </g>
     </g>
    </g>
    <g id="text_9">
     <!-- Epoch -->
     <g transform="translate(176.297813 254.588562) scale(0.1 -0.1)">
      <defs>
       <path id="DejaVuSans-45" d="M 628 4666 
L 3578 4666 
L 3578 4134 
L 1259 4134 
L 1259 2753 
L 3481 2753 
L 3481 2222 
L 1259 2222 
L 1259 531 
L 3634 531 
L 3634 0 
L 628 0 
L 628 4666 
z
" transform="scale(0.015625)"/>
       <path id="DejaVuSans-70" d="M 1159 525 
L 1159 -1331 
L 581 -1331 
L 581 3500 
L 1159 3500 
L 1159 2969 
Q 1341 3281 1617 3432 
Q 1894 3584 2278 3584 
Q 2916 3584 3314 3078 
Q 3713 2572 3713 1747 
Q 3713 922 3314 415 
Q 2916 -91 2278 -91 
Q 1894 -91 1617 61 
Q 1341 213 1159 525 
z
M 3116 1747 
Q 3116 2381 2855 2742 
Q 2594 3103 2138 3103 
Q 1681 3103 1420 2742 
Q 1159 2381 1159 1747 
Q 1159 1113 1420 752 
Q 1681 391 2138 391 
Q 2594 391 2855 752 
Q 3116 1113 3116 1747 
z
" transform="scale(0.015625)"/>
       <path id="DejaVuSans-6f" d="M 1959 3097 
Q 1497 3097 1228 2736 
Q 959 2375 959 1747 
Q 959 1119 1226 758 
Q 1494 397 1959 397 
Q 2419 397 2687 759 
Q 2956 1122 2956 1747 
Q 2956 2369 2687 2733 
Q 2419 3097 1959 3097 
z
M 1959 3584 
Q 2709 3584 3137 3096 
Q 3566 2609 3566 1747 
Q 3566 888 3137 398 
Q 2709 -91 1959 -91 
Q 1206 -91 779 398 
Q 353 888 353 1747 
Q 353 2609 779 3096 
Q 1206 3584 1959 3584 
z
" transform="scale(0.015625)"/>
       <path id="DejaVuSans-63" d="M 3122 3366 
L 3122 2828 
Q 2878 2963 2633 3030 
Q 2388 3097 2138 3097 
Q 1578 3097 1268 2742 
Q 959 2388 959 1747 
Q 959 1106 1268 751 
Q 1578 397 2138 397 
Q 2388 397 2633 464 
Q 2878 531 3122 666 
L 3122 134 
Q 2881 22 2623 -34 
Q 2366 -91 2075 -91 
Q 1284 -91 818 406 
Q 353 903 353 1747 
Q 353 2603 823 3093 
Q 1294 3584 2113 3584 
Q 2378 3584 2631 3529 
Q 2884 3475 3122 3366 
z
" transform="scale(0.015625)"/>
       <path id="DejaVuSans-68" d="M 3513 2113 
L 3513 0 
L 2938 0 
L 2938 2094 
Q 2938 2591 2744 2837 
Q 2550 3084 2163 3084 
Q 1697 3084 1428 2787 
Q 1159 2491 1159 1978 
L 1159 0 
L 581 0 
L 581 4863 
L 1159 4863 
L 1159 2956 
Q 1366 3272 1645 3428 
Q 1925 3584 2291 3584 
Q 2894 3584 3203 3211 
Q 3513 2838 3513 2113 
z
" transform="scale(0.015625)"/>
      </defs>
      <use xlink:href="#DejaVuSans-45"/>
      <use xlink:href="#DejaVuSans-70" x="63.183594"/>
      <use xlink:href="#DejaVuSans-6f" x="126.660156"/>
      <use xlink:href="#DejaVuSans-63" x="187.841797"/>
      <use xlink:href="#DejaVuSans-68" x="242.822266"/>
     </g>
    </g>
   </g>
   <g id="matplotlib.axis_2">
    <g id="ytick_1">
     <g id="line2d_17">
      <path d="M 50.14375 219.080411 
L 333.07375 219.080411 
" clip-path="url(#p043216eb1f)" style="fill: none; stroke: #b0b0b0; stroke-opacity: 0.25; stroke-width: 0.8; stroke-linecap: square"/>
     </g>
     <g id="line2d_18">
      <defs>
       <path id="m7a3b4bbc7f" d="M 0 0 
L -3.5 0 
" style="stroke: #000000; stroke-width: 0.8"/>
      </defs>
      <g>
       <use xlink:href="#m7a3b4bbc7f" x="50.14375" y="219.080411" style="stroke: #000000; stroke-width: 0.8"/>
      </g>
     </g>
     <g id="text_10">
      <!-- 0.00 -->
      <g transform="translate(20.878125 222.879629) scale(0.1 -0.1)">
       <defs>
        <path id="DejaVuSans-2e" d="M 684 794 
L 1344 794 
L 1344 0 
L 684 0 
L 684 794 
z
" transform="scale(0.015625)"/>
       </defs>
       <use xlink:href="#DejaVuSans-30"/>
       <use xlink:href="#DejaVuSans-2e" x="63.623047"/>
       <use xlink:href="#DejaVuSans-30" x="95.410156"/>
       <use xlink:href="#DejaVuSans-30" x="159.033203"/>
      </g>
     </g>
    </g>
    <g id="ytick_2">
     <g id="line2d_19">
      <path d="M 50.14375 191.52637 
L 333.07375 191.52637 
" clip-path="url(#p043216eb1f)" style="fill: none; stroke: #b0b0b0; stroke-opacity: 0.25; stroke-width: 0.8; stroke-linecap: square"/>
     </g>
     <g id="line2d_20">
      <g>
       <use xlink:href="#m7a3b4bbc7f" x="50.14375" y="191.52637" style="stroke: #000000; stroke-width: 0.8"/>
      </g>
     </g>
     <g id="text_11">
      <!-- 0.25 -->
      <g transform="translate(20.878125 195.325589) scale(0.1 -0.1)">
       <use xlink:href="#DejaVuSans-30"/>
       <use xlink:href="#DejaVuSans-2e" x="63.623047"/>
       <use xlink:href="#DejaVuSans-32" x="95.410156"/>
       <use xlink:href="#DejaVuSans-35" x="159.033203"/>
      </g>
     </g>
    </g>
    <g id="ytick_3">
     <g id="line2d_21">
      <path d="M 50.14375 163.97233 
L 333.07375 163.97233 
" clip-path="url(#p043216eb1f)" style="fill: none; stroke: #b0b0b0; stroke-opacity: 0.25; stroke-width: 0.8; stroke-linecap: square"/>
     </g>
     <g id="line2d_22">
      <g>
       <use xlink:href="#m7a3b4bbc7f" x="50.14375" y="163.97233" style="stroke: #000000; stroke-width: 0.8"/>
      </g>
     </g>
     <g id="text_12">
      <!-- 0.50 -->
      <g transform="translate(20.878125 167.771549) scale(0.1 -0.1)">
       <use xlink:href="#DejaVuSans-30"/>
       <use xlink:href="#DejaVuSans-2e" x="63.623047"/>
       <use xlink:href="#DejaVuSans-35" x="95.410156"/>
       <use xlink:href="#DejaVuSans-30" x="159.033203"/>
      </g>
     </g>
    </g>
    <g id="ytick_4">
     <g id="line2d_23">
      <path d="M 50.14375 136.41829 
L 333.07375 136.41829 
" clip-path="url(#p043216eb1f)" style="fill: none; stroke: #b0b0b0; stroke-opacity: 0.25; stroke-width: 0.8; stroke-linecap: square"/>
     </g>
     <g id="line2d_24">
      <g>
       <use xlink:href="#m7a3b4bbc7f" x="50.14375" y="136.41829" style="stroke: #000000; stroke-width: 0.8"/>
      </g>
     </g>
     <g id="text_13">
      <!-- 0.75 -->
      <g transform="translate(20.878125 140.217509) scale(0.1 -0.1)">
       <use xlink:href="#DejaVuSans-30"/>
       <use xlink:href="#DejaVuSans-2e" x="63.623047"/>
       <use xlink:href="#DejaVuSans-37" x="95.410156"/>
       <use xlink:href="#DejaVuSans-35" x="159.033203"/>
      </g>
     </g>
    </g>
    <g id="ytick_5">
     <g id="line2d_25">
      <path d="M 50.14375 108.86425 
L 333.07375 108.86425 
" clip-path="url(#p043216eb1f)" style="fill: none; stroke: #b0b0b0; stroke-opacity: 0.25; stroke-width: 0.8; stroke-linecap: square"/>
     </g>
     <g id="line2d_26">
      <g>
       <use xlink:href="#m7a3b4bbc7f" x="50.14375" y="108.86425" style="stroke: #000000; stroke-width: 0.8"/>
      </g>
     </g>
     <g id="text_14">
      <!-- 1.00 -->
      <g transform="translate(20.878125 112.663469) scale(0.1 -0.1)">
       <use xlink:href="#DejaVuSans-31"/>
       <use xlink:href="#DejaVuSans-2e" x="63.623047"/>
       <use xlink:href="#DejaVuSans-30" x="95.410156"/>
       <use xlink:href="#DejaVuSans-30" x="159.033203"/>
      </g>
     </g>
    </g>
    <g id="ytick_6">
     <g id="line2d_27">
      <path d="M 50.14375 81.31021 
L 333.07375 81.31021 
" clip-path="url(#p043216eb1f)" style="fill: none; stroke: #b0b0b0; stroke-opacity: 0.25; stroke-width: 0.8; stroke-linecap: square"/>
     </g>
     <g id="line2d_28">
      <g>
       <use xlink:href="#m7a3b4bbc7f" x="50.14375" y="81.31021" style="stroke: #000000; stroke-width: 0.8"/>
      </g>
     </g>
     <g id="text_15">
      <!-- 1.25 -->
      <g transform="translate(20.878125 85.109428) scale(0.1 -0.1)">
       <use xlink:href="#DejaVuSans-31"/>
       <use xlink:href="#DejaVuSans-2e" x="63.623047"/>
       <use xlink:href="#DejaVuSans-32" x="95.410156"/>
       <use xlink:href="#DejaVuSans-35" x="159.033203"/>
      </g>
     </g>
    </g>
    <g id="ytick_7">
     <g id="line2d_29">
      <path d="M 50.14375 53.75617 
L 333.07375 53.75617 
" clip-path="url(#p043216eb1f)" style="fill: none; stroke: #b0b0b0; stroke-opacity: 0.25; stroke-width: 0.8; stroke-linecap: square"/>
     </g>
     <g id="line2d_30">
      <g>
       <use xlink:href="#m7a3b4bbc7f" x="50.14375" y="53.75617" style="stroke: #000000; stroke-width: 0.8"/>
      </g>
     </g>
     <g id="text_16">
      <!-- 1.50 -->
      <g transform="translate(20.878125 57.555388) scale(0.1 -0.1)">
       <use xlink:href="#DejaVuSans-31"/>
       <use xlink:href="#DejaVuSans-2e" x="63.623047"/>
       <use xlink:href="#DejaVuSans-35" x="95.410156"/>
       <use xlink:href="#DejaVuSans-30" x="159.033203"/>
      </g>
     </g>
    </g>
    <g id="text_17">
     <!-- Weighted BC loss -->
     <g transform="translate(14.798438 180.951844) rotate(-90) scale(0.1 -0.1)">
      <defs>
       <path id="DejaVuSans-57" d="M 213 4666 
L 850 4666 
L 1831 722 
L 2809 4666 
L 3519 4666 
L 4500 722 
L 5478 4666 
L 6119 4666 
L 4947 0 
L 4153 0 
L 3169 4050 
L 2175 0 
L 1381 0 
L 213 4666 
z
" transform="scale(0.015625)"/>
       <path id="DejaVuSans-65" d="M 3597 1894 
L 3597 1613 
L 953 1613 
Q 991 1019 1311 708 
Q 1631 397 2203 397 
Q 2534 397 2845 478 
Q 3156 559 3463 722 
L 3463 178 
Q 3153 47 2828 -22 
Q 2503 -91 2169 -91 
Q 1331 -91 842 396 
Q 353 884 353 1716 
Q 353 2575 817 3079 
Q 1281 3584 2069 3584 
Q 2775 3584 3186 3129 
Q 3597 2675 3597 1894 
z
M 3022 2063 
Q 3016 2534 2758 2815 
Q 2500 3097 2075 3097 
Q 1594 3097 1305 2825 
Q 1016 2553 972 2059 
L 3022 2063 
z
" transform="scale(0.015625)"/>
       <path id="DejaVuSans-69" d="M 603 3500 
L 1178 3500 
L 1178 0 
L 603 0 
L 603 3500 
z
M 603 4863 
L 1178 4863 
L 1178 4134 
L 603 4134 
L 603 4863 
z
" transform="scale(0.015625)"/>
       <path id="DejaVuSans-67" d="M 2906 1791 
Q 2906 2416 2648 2759 
Q 2391 3103 1925 3103 
Q 1463 3103 1205 2759 
Q 947 2416 947 1791 
Q 947 1169 1205 825 
Q 1463 481 1925 481 
Q 2391 481 2648 825 
Q 2906 1169 2906 1791 
z
M 3481 434 
Q 3481 -459 3084 -895 
Q 2688 -1331 1869 -1331 
Q 1566 -1331 1297 -1286 
Q 1028 -1241 775 -1147 
L 775 -588 
Q 1028 -725 1275 -790 
Q 1522 -856 1778 -856 
Q 2344 -856 2625 -561 
Q 2906 -266 2906 331 
L 2906 616 
Q 2728 306 2450 153 
Q 2172 0 1784 0 
Q 1141 0 747 490 
Q 353 981 353 1791 
Q 353 2603 747 3093 
Q 1141 3584 1784 3584 
Q 2172 3584 2450 3431 
Q 2728 3278 2906 2969 
L 2906 3500 
L 3481 3500 
L 3481 434 
z
" transform="scale(0.015625)"/>
       <path id="DejaVuSans-74" d="M 1172 4494 
L 1172 3500 
L 2356 3500 
L 2356 3053 
L 1172 3053 
L 1172 1153 
Q 1172 725 1289 603 
Q 1406 481 1766 481 
L 2356 481 
L 2356 0 
L 1766 0 
Q 1100 0 847 248 
Q 594 497 594 1153 
L 594 3053 
L 172 3053 
L 172 3500 
L 594 3500 
L 594 4494 
L 1172 4494 
z
" transform="scale(0.015625)"/>
       <path id="DejaVuSans-64" d="M 2906 2969 
L 2906 4863 
L 3481 4863 
L 3481 0 
L 2906 0 
L 2906 525 
Q 2725 213 2448 61 
Q 2172 -91 1784 -91 
Q 1150 -91 751 415 
Q 353 922 353 1747 
Q 353 2572 751 3078 
Q 1150 3584 1784 3584 
Q 2172 3584 2448 3432 
Q 2725 3281 2906 2969 
z
M 947 1747 
Q 947 1113 1208 752 
Q 1469 391 1925 391 
Q 2381 391 2643 752 
Q 2906 1113 2906 1747 
Q 2906 2381 2643 2742 
Q 2381 3103 1925 3103 
Q 1469 3103 1208 2742 
Q 947 2381 947 1747 
z
" transform="scale(0.015625)"/>
       <path id="DejaVuSans-20" transform="scale(0.015625)"/>
       <path id="DejaVuSans-42" d="M 1259 2228 
L 1259 519 
L 2272 519 
Q 2781 519 3026 730 
Q 3272 941 3272 1375 
Q 3272 1813 3026 2020 
Q 2781 2228 2272 2228 
L 1259 2228 
z
M 1259 4147 
L 1259 2741 
L 2194 2741 
Q 2656 2741 2882 2914 
Q 3109 3088 3109 3444 
Q 3109 3797 2882 3972 
Q 2656 4147 2194 4147 
L 1259 4147 
z
M 628 4666 
L 2241 4666 
Q 2963 4666 3353 4366 
Q 3744 4066 3744 3513 
Q 3744 3084 3544 2831 
Q 3344 2578 2956 2516 
Q 3422 2416 3680 2098 
Q 3938 1781 3938 1306 
Q 3938 681 3513 340 
Q 3088 0 2303 0 
L 628 0 
L 628 4666 
z
" transform="scale(0.015625)"/>
       <path id="DejaVuSans-43" d="M 4122 4306 
L 4122 3641 
Q 3803 3938 3442 4084 
Q 3081 4231 2675 4231 
Q 1875 4231 1450 3742 
Q 1025 3253 1025 2328 
Q 1025 1406 1450 917 
Q 1875 428 2675 428 
Q 3081 428 3442 575 
Q 3803 722 4122 1019 
L 4122 359 
Q 3791 134 3420 21 
Q 3050 -91 2638 -91 
Q 1578 -91 968 557 
Q 359 1206 359 2328 
Q 359 3453 968 4101 
Q 1578 4750 2638 4750 
Q 3056 4750 3426 4639 
Q 3797 4528 4122 4306 
z
" transform="scale(0.015625)"/>
       <path id="DejaVuSans-6c" d="M 603 4863 
L 1178 4863 
L 1178 0 
L 603 0 
L 603 4863 
z
" transform="scale(0.015625)"/>
       <path id="DejaVuSans-73" d="M 2834 3397 
L 2834 2853 
Q 2591 2978 2328 3040 
Q 2066 3103 1784 3103 
Q 1356 3103 1142 2972 
Q 928 2841 928 2578 
Q 928 2378 1081 2264 
Q 1234 2150 1697 2047 
L 1894 2003 
Q 2506 1872 2764 1633 
Q 3022 1394 3022 966 
Q 3022 478 2636 193 
Q 2250 -91 1575 -91 
Q 1294 -91 989 -36 
Q 684 19 347 128 
L 347 722 
Q 666 556 975 473 
Q 1284 391 1588 391 
Q 1994 391 2212 530 
Q 2431 669 2431 922 
Q 2431 1156 2273 1281 
Q 2116 1406 1581 1522 
L 1381 1569 
Q 847 1681 609 1914 
Q 372 2147 372 2553 
Q 372 3047 722 3315 
Q 1072 3584 1716 3584 
Q 2034 3584 2315 3537 
Q 2597 3491 2834 3397 
z
" transform="scale(0.015625)"/>
      </defs>
      <use xlink:href="#DejaVuSans-57"/>
      <use xlink:href="#DejaVuSans-65" x="93.001953"/>
      <use xlink:href="#DejaVuSans-69" x="154.525391"/>
      <use xlink:href="#DejaVuSans-67" x="182.308594"/>
      <use xlink:href="#DejaVuSans-68" x="245.785156"/>
      <use xlink:href="#DejaVuSans-74" x="309.164062"/>
      <use xlink:href="#DejaVuSans-65" x="348.373047"/>
      <use xlink:href="#DejaVuSans-64" x="409.896484"/>
      <use xlink:href="#DejaVuSans-20" x="473.373047"/>
      <use xlink:href="#DejaVuSans-42" x="505.160156"/>
      <use xlink:href="#DejaVuSans-43" x="572.013672"/>
      <use xlink:href="#DejaVuSans-20" x="641.837891"/>
      <use xlink:href="#DejaVuSans-6c" x="673.625"/>
      <use xlink:href="#DejaVuSans-6f" x="701.408203"/>
      <use xlink:href="#DejaVuSans-73" x="762.589844"/>
      <use xlink:href="#DejaVuSans-73" x="814.689453"/>
     </g>
    </g>
   </g>
   <g id="line2d_31">
    <path d="M 63.004205 77.733326 
L 64.365099 146.45447 
L 65.725994 182.355679 
L 67.086889 190.486179 
L 68.447783 200.149441 
L 69.808678 203.80334 
L 71.169573 206.750078 
L 72.530467 209.066263 
L 73.891362 210.559936 
L 75.252256 211.59328 
L 77.974046 213.020294 
L 79.33494 213.636228 
L 82.05673 214.454635 
L 87.500308 215.614218 
L 88.861203 216.197201 
L 91.582992 216.969118 
L 92.943887 217.141662 
L 94.304782 217.037951 
L 109.274623 217.555394 
L 111.996412 217.434716 
L 113.357307 217.569015 
L 117.439991 217.506321 
L 118.800886 217.306989 
L 124.244464 217.683547 
L 125.605359 217.5108 
L 128.327148 217.657448 
L 129.688043 217.776766 
L 131.048938 217.710491 
L 132.409832 217.794435 
L 133.770727 217.6768 
L 136.492516 217.698061 
L 139.214306 217.511203 
L 140.5752 217.714278 
L 154.184147 217.67265 
L 156.905936 217.747193 
L 158.266831 217.647598 
L 159.627725 217.675398 
L 160.98862 217.561384 
L 162.349515 217.580297 
L 165.071304 217.846539 
L 171.875777 218.013294 
L 174.597567 218.050594 
L 181.40204 218.013416 
L 193.650092 217.869908 
L 197.732776 218.019559 
L 203.176355 217.99798 
L 204.537249 217.869931 
L 207.259039 218.00605 
L 212.702617 218.051021 
L 223.589775 218.020174 
L 226.311564 217.945598 
L 233.116037 218.085845 
L 234.476932 218.028559 
L 237.198721 217.484508 
L 239.92051 217.775774 
L 241.281405 217.917934 
L 244.003194 217.980856 
L 245.364089 218.069657 
L 249.446773 218.033838 
L 253.529457 218.079234 
L 257.612141 218.142169 
L 258.973036 217.932138 
L 263.05572 218.048112 
L 265.777509 217.971689 
L 268.499298 217.902844 
L 275.303772 218.02892 
L 279.386456 218.162918 
L 282.108245 218.24806 
L 284.830034 218.137578 
L 288.912718 218.098867 
L 292.995402 218.168912 
L 295.717192 217.984906 
L 299.799876 218.195888 
L 302.521665 218.101519 
L 303.88256 218.07238 
L 305.243454 218.194426 
L 309.326138 218.132974 
L 310.687033 217.998284 
L 317.491506 218.061696 
L 318.852401 218.157068 
L 320.213295 218.06598 
L 320.213295 218.06598 
" clip-path="url(#p043216eb1f)" style="fill: none; stroke-dasharray: 1.5,2.475; stroke-dashoffset: 0; stroke: #4c78a8; stroke-opacity: 0.55; stroke-width: 1.5"/>
   </g>
   <g id="line2d_32">
    <path d="M 63.004205 116.220197 
L 64.365099 158.141186 
L 65.725994 181.93885 
L 67.086889 188.860379 
L 68.447783 198.855287 
L 69.808678 202.64101 
L 71.169573 204.907056 
L 72.530467 205.860524 
L 73.891362 208.076896 
L 75.252256 208.09809 
L 77.974046 209.265121 
L 82.05673 210.173469 
L 86.139414 210.682441 
L 88.861203 211.738444 
L 91.582992 212.370257 
L 92.943887 212.391756 
L 94.304782 212.231783 
L 98.387466 212.332105 
L 102.47015 212.416662 
L 105.191939 212.237221 
L 106.552834 212.413193 
L 107.913728 212.455445 
L 109.274623 212.321867 
L 111.996412 212.619216 
L 113.357307 212.41535 
L 114.718202 212.345144 
L 116.079096 212.67232 
L 118.800886 212.29082 
L 120.16178 212.196615 
L 121.522675 212.470094 
L 126.966254 212.317442 
L 128.327148 212.606547 
L 129.688043 212.514098 
L 131.048938 212.606642 
L 132.409832 212.415569 
L 133.770727 212.604284 
L 135.131622 212.645268 
L 136.492516 212.287292 
L 137.853411 212.498441 
L 139.214306 212.402009 
L 140.5752 212.619502 
L 143.29699 212.438469 
L 147.379674 212.52026 
L 148.740568 212.356982 
L 150.101463 212.634561 
L 151.462358 212.352174 
L 154.184147 212.43222 
L 155.545041 212.620163 
L 156.905936 212.453056 
L 159.627725 212.479567 
L 160.98862 212.371138 
L 162.349515 212.628512 
L 163.710409 212.654894 
L 165.071304 212.547031 
L 166.432199 212.667488 
L 167.793093 212.662364 
L 169.153988 212.791897 
L 170.514883 212.617108 
L 173.236672 212.852036 
L 181.40204 212.768365 
L 182.762935 212.653 
L 184.123829 212.753347 
L 185.484724 212.565152 
L 190.928303 212.764335 
L 193.650092 212.68563 
L 197.732776 212.811288 
L 200.454565 212.809321 
L 204.537249 212.612531 
L 205.898144 212.820198 
L 211.341723 212.67934 
L 220.867985 212.775299 
L 222.22888 212.916968 
L 223.589775 212.741201 
L 224.950669 212.788791 
L 226.311564 212.707276 
L 229.033353 212.789951 
L 233.116037 212.745737 
L 234.476932 212.27077 
L 235.837826 211.994933 
L 238.559616 212.594592 
L 241.281405 212.608825 
L 242.6423 212.651269 
L 244.003194 212.811793 
L 246.724984 212.672059 
L 249.446773 212.808703 
L 252.168562 212.697797 
L 256.251246 212.917016 
L 257.612141 212.641051 
L 260.33393 212.655045 
L 261.694825 212.77876 
L 263.05572 212.75645 
L 264.416614 212.493975 
L 265.777509 212.498854 
L 267.138404 212.726067 
L 269.860193 212.563052 
L 271.221088 212.745531 
L 273.942877 212.846063 
L 275.303772 212.633586 
L 279.386456 212.993732 
L 280.74735 212.862913 
L 282.108245 212.962645 
L 283.46914 212.944894 
L 286.190929 212.688242 
L 288.912718 212.846369 
L 290.273613 212.756541 
L 291.634508 212.804555 
L 292.995402 212.516991 
L 294.356297 212.749918 
L 295.717192 212.857992 
L 299.799876 212.634248 
L 301.16077 212.764394 
L 302.521665 212.655451 
L 303.88256 212.871215 
L 306.604349 212.895135 
L 309.326138 212.605219 
L 310.687033 212.597802 
L 312.047927 212.758518 
L 316.130611 212.714777 
L 317.491506 212.908832 
L 318.852401 212.709291 
L 320.213295 212.782099 
L 320.213295 212.782099 
" clip-path="url(#p043216eb1f)" style="fill: none; stroke: #4c78a8; stroke-width: 1.5; stroke-linecap: square"/>
   </g>
   <g id="line2d_33">
    <path d="M 63.004205 71.373469 
L 64.365099 141.959815 
L 65.725994 178.57268 
L 67.086889 189.312197 
L 68.447783 197.869084 
L 69.808678 201.943903 
L 71.169573 204.966935 
L 72.530467 207.195923 
L 73.891362 208.82173 
L 75.252256 209.755578 
L 76.613151 210.711295 
L 77.974046 211.535752 
L 79.33494 212.30726 
L 80.695835 213.047356 
L 82.05673 213.888785 
L 83.417624 214.77972 
L 84.778519 215.794907 
L 86.139414 216.440364 
L 87.500308 216.497089 
L 88.861203 216.710827 
L 90.222098 216.983149 
L 91.582992 216.932635 
L 92.943887 217.093842 
L 94.304782 217.226349 
L 95.665676 217.319134 
L 97.026571 217.272767 
L 98.387466 217.32029 
L 99.74836 217.342963 
L 101.109255 217.314922 
L 102.47015 217.362958 
L 103.831044 217.434955 
L 105.191939 217.289534 
L 106.552834 217.204809 
L 107.913728 217.105642 
L 109.274623 217.07211 
L 110.635518 217.212079 
L 111.996412 217.233707 
L 113.357307 217.376034 
L 114.718202 217.474447 
L 116.079096 217.445131 
L 117.439991 217.379485 
L 118.800886 217.403433 
L 120.16178 217.681863 
L 121.522675 217.724501 
L 122.88357 217.581865 
L 124.244464 217.457268 
L 125.605359 217.121485 
L 126.966254 217.263253 
L 128.327148 217.336204 
L 129.688043 217.417517 
L 131.048938 217.528596 
L 132.409832 217.546358 
L 133.770727 217.613382 
L 135.131622 217.746841 
L 136.492516 217.83498 
L 137.853411 217.745117 
L 139.214306 217.754151 
L 140.5752 217.905687 
L 141.936095 217.801577 
L 143.29699 217.82195 
L 144.657884 217.902427 
L 146.018779 217.898243 
L 147.379674 217.867946 
L 148.740568 217.839414 
L 150.101463 217.790509 
L 151.462358 217.84115 
L 152.823252 217.902205 
L 154.184147 217.909189 
L 155.545041 217.902925 
L 156.905936 217.957588 
L 158.266831 217.944619 
L 159.627725 217.871265 
L 160.98862 217.87995 
L 162.349515 217.893441 
L 163.710409 217.874536 
L 165.071304 217.903461 
L 166.432199 217.901765 
L 167.793093 217.805655 
L 169.153988 217.704041 
L 170.514883 217.787393 
L 171.875777 217.892463 
L 173.236672 217.969606 
L 174.597567 217.904604 
L 175.958461 217.945818 
L 177.319356 217.941977 
L 178.680251 217.901958 
L 180.041145 217.994534 
L 181.40204 217.904879 
L 182.762935 217.872124 
L 184.123829 217.843479 
L 185.484724 217.896431 
L 186.845619 217.798212 
L 188.206513 217.84583 
L 189.567408 217.923651 
L 190.928303 217.86707 
L 192.289197 217.86892 
L 193.650092 217.926793 
L 195.010987 217.923278 
L 196.371881 217.878608 
L 197.732776 217.852573 
" clip-path="url(#p043216eb1f)" style="fill: none; stroke-dasharray: 1.5,2.475; stroke-dashoffset: 0; stroke: #e45756; stroke-opacity: 0.55; stroke-width: 1.5"/>
   </g>
   <g id="line2d_34">
    <path d="M 63.004205 111.70494 
L 64.365099 155.189217 
L 65.725994 180.380254 
L 67.086889 186.477375 
L 68.447783 196.849181 
L 69.808678 200.603432 
L 71.169573 202.9092 
L 72.530467 204.304259 
L 73.891362 206.053237 
L 75.252256 205.830694 
L 76.613151 206.920236 
L 77.974046 207.59162 
L 79.33494 208.145453 
L 80.695835 208.939212 
L 82.05673 209.623873 
L 83.417624 210.370409 
L 84.778519 211.327283 
L 86.139414 211.582903 
L 87.500308 211.779262 
L 88.861203 211.878269 
L 90.222098 211.771826 
L 91.582992 211.712314 
L 92.943887 211.92923 
L 94.304782 212.026315 
L 95.665676 212.005786 
L 97.026571 211.925166 
L 98.387466 212.064228 
L 99.74836 212.062555 
L 101.109255 211.917966 
L 102.47015 212.131031 
L 103.831044 211.832835 
L 105.191939 212.076081 
L 106.552834 211.809117 
L 107.913728 211.670502 
L 109.274623 211.81121 
L 110.635518 211.863037 
L 111.996412 211.771751 
L 113.357307 212.142529 
L 114.718202 212.108853 
L 116.079096 211.998065 
L 117.439991 212.020568 
L 118.800886 212.210138 
L 120.16178 212.223367 
L 121.522675 212.323464 
L 122.88357 212.119663 
L 124.244464 211.590177 
L 125.605359 212.025602 
L 126.966254 212.033361 
L 128.327148 212.11532 
L 129.688043 211.94382 
L 131.048938 212.211983 
L 132.409832 212.19858 
L 133.770727 212.186508 
L 135.131622 212.246141 
L 136.492516 212.276731 
L 137.853411 212.135921 
L 139.214306 212.378133 
L 140.5752 212.341224 
L 141.936095 212.331314 
L 143.29699 212.445895 
L 144.657884 212.454563 
L 146.018779 212.443537 
L 147.379674 212.405006 
L 148.740568 212.270976 
L 150.101463 212.324692 
L 151.462358 212.389181 
L 152.823252 212.552764 
L 154.184147 212.357302 
L 155.545041 212.456382 
L 156.905936 212.368317 
L 158.266831 212.303004 
L 159.627725 212.380036 
L 160.98862 212.512033 
L 162.349515 212.520979 
L 163.710409 212.42323 
L 165.071304 212.291468 
L 166.432199 212.136978 
L 167.793093 212.097158 
L 169.153988 212.36827 
L 170.514883 212.269726 
L 171.875777 212.401903 
L 173.236672 212.34799 
L 174.597567 212.270072 
L 175.958461 212.290263 
L 177.319356 212.489496 
L 178.680251 212.410972 
L 180.041145 212.509166 
L 181.40204 212.443205 
L 182.762935 212.304203 
L 184.123829 212.33579 
L 185.484724 212.497763 
L 186.845619 212.351701 
L 188.206513 212.49378 
L 189.567408 212.392023 
L 190.928303 212.272552 
L 192.289197 212.304266 
L 193.650092 212.331485 
L 195.010987 212.413635 
L 196.371881 212.448191 
L 197.732776 212.427221 
" clip-path="url(#p043216eb1f)" style="fill: none; stroke: #e45756; stroke-width: 1.5; stroke-linecap: square"/>
   </g>
   <g id="patch_3">
    <path d="M 50.14375 226.312 
L 50.14375 48.912 
" style="fill: none; stroke: #000000; stroke-width: 0.8; stroke-linejoin: miter; stroke-linecap: square"/>
   </g>
   <g id="patch_4">
    <path d="M 333.07375 226.312 
L 333.07375 48.912 
" style="fill: none; stroke: #000000; stroke-width: 0.8; stroke-linejoin: miter; stroke-linecap: square"/>
   </g>
   <g id="patch_5">
    <path d="M 50.14375 226.312 
L 333.07375 226.312 
" style="fill: none; stroke: #000000; stroke-width: 0.8; stroke-linejoin: miter; stroke-linecap: square"/>
   </g>
   <g id="patch_6">
    <path d="M 50.14375 48.912 
L 333.07375 48.912 
" style="fill: none; stroke: #000000; stroke-width: 0.8; stroke-linejoin: miter; stroke-linecap: square"/>
   </g>
   <g id="text_18">
    <!-- Jar -->
    <g transform="translate(183.695313 42.912) scale(0.12 -0.12)">
     <defs>
      <path id="DejaVuSans-4a" d="M 628 4666 
L 1259 4666 
L 1259 325 
Q 1259 -519 939 -900 
Q 619 -1281 -91 -1281 
L -331 -1281 
L -331 -750 
L -134 -750 
Q 284 -750 456 -515 
Q 628 -281 628 325 
L 628 4666 
z
" transform="scale(0.015625)"/>
      <path id="DejaVuSans-61" d="M 2194 1759 
Q 1497 1759 1228 1600 
Q 959 1441 959 1056 
Q 959 750 1161 570 
Q 1363 391 1709 391 
Q 2188 391 2477 730 
Q 2766 1069 2766 1631 
L 2766 1759 
L 2194 1759 
z
M 3341 1997 
L 3341 0 
L 2766 0 
L 2766 531 
Q 2569 213 2275 61 
Q 1981 -91 1556 -91 
Q 1019 -91 701 211 
Q 384 513 384 1019 
Q 384 1609 779 1909 
Q 1175 2209 1959 2209 
L 2766 2209 
L 2766 2266 
Q 2766 2663 2505 2880 
Q 2244 3097 1772 3097 
Q 1472 3097 1187 3025 
Q 903 2953 641 2809 
L 641 3341 
Q 956 3463 1253 3523 
Q 1550 3584 1831 3584 
Q 2591 3584 2966 3190 
Q 3341 2797 3341 1997 
z
" transform="scale(0.015625)"/>
      <path id="DejaVuSans-72" d="M 2631 2963 
Q 2534 3019 2420 3045 
Q 2306 3072 2169 3072 
Q 1681 3072 1420 2755 
Q 1159 2438 1159 1844 
L 1159 0 
L 581 0 
L 581 3500 
L 1159 3500 
L 1159 2956 
Q 1341 3275 1631 3429 
Q 1922 3584 2338 3584 
Q 2397 3584 2469 3576 
Q 2541 3569 2628 3553 
L 2631 2963 
z
" transform="scale(0.015625)"/>
     </defs>
     <use xlink:href="#DejaVuSans-4a"/>
     <use xlink:href="#DejaVuSans-61" x="29.492188"/>
     <use xlink:href="#DejaVuSans-72" x="90.771484"/>
    </g>
   </g>
  </g>
  <g id="axes_2">
   <g id="patch_7">
    <path d="M 347.37375 226.312 
L 630.30375 226.312 
L 630.30375 48.912 
L 347.37375 48.912 
z
" style="fill: #ffffff"/>
   </g>
   <g id="matplotlib.axis_3">
    <g id="xtick_9">
     <g id="line2d_35">
      <path d="M 358.941697 226.312 
L 358.941697 48.912 
" clip-path="url(#p1e18e470ae)" style="fill: none; stroke: #b0b0b0; stroke-opacity: 0.25; stroke-width: 0.8; stroke-linecap: square"/>
     </g>
     <g id="line2d_36">
      <g>
       <use xlink:href="#m30d677a24d" x="358.941697" y="226.312" style="stroke: #000000; stroke-width: 0.8"/>
      </g>
     </g>
     <g id="text_19">
      <!-- 0 -->
      <g transform="translate(355.760447 240.910438) scale(0.1 -0.1)">
       <use xlink:href="#DejaVuSans-30"/>
      </g>
     </g>
    </g>
    <g id="xtick_10">
     <g id="line2d_37">
      <path d="M 391.254396 226.312 
L 391.254396 48.912 
" clip-path="url(#p1e18e470ae)" style="fill: none; stroke: #b0b0b0; stroke-opacity: 0.25; stroke-width: 0.8; stroke-linecap: square"/>
     </g>
     <g id="line2d_38">
      <g>
       <use xlink:href="#m30d677a24d" x="391.254396" y="226.312" style="stroke: #000000; stroke-width: 0.8"/>
      </g>
     </g>
     <g id="text_20">
      <!-- 25 -->
      <g transform="translate(384.891896 240.910438) scale(0.1 -0.1)">
       <use xlink:href="#DejaVuSans-32"/>
       <use xlink:href="#DejaVuSans-35" x="63.623047"/>
      </g>
     </g>
    </g>
    <g id="xtick_11">
     <g id="line2d_39">
      <path d="M 423.567096 226.312 
L 423.567096 48.912 
" clip-path="url(#p1e18e470ae)" style="fill: none; stroke: #b0b0b0; stroke-opacity: 0.25; stroke-width: 0.8; stroke-linecap: square"/>
     </g>
     <g id="line2d_40">
      <g>
       <use xlink:href="#m30d677a24d" x="423.567096" y="226.312" style="stroke: #000000; stroke-width: 0.8"/>
      </g>
     </g>
     <g id="text_21">
      <!-- 50 -->
      <g transform="translate(417.204596 240.910438) scale(0.1 -0.1)">
       <use xlink:href="#DejaVuSans-35"/>
       <use xlink:href="#DejaVuSans-30" x="63.623047"/>
      </g>
     </g>
    </g>
    <g id="xtick_12">
     <g id="line2d_41">
      <path d="M 455.879796 226.312 
L 455.879796 48.912 
" clip-path="url(#p1e18e470ae)" style="fill: none; stroke: #b0b0b0; stroke-opacity: 0.25; stroke-width: 0.8; stroke-linecap: square"/>
     </g>
     <g id="line2d_42">
      <g>
       <use xlink:href="#m30d677a24d" x="455.879796" y="226.312" style="stroke: #000000; stroke-width: 0.8"/>
      </g>
     </g>
     <g id="text_22">
      <!-- 75 -->
      <g transform="translate(449.517296 240.910438) scale(0.1 -0.1)">
       <use xlink:href="#DejaVuSans-37"/>
       <use xlink:href="#DejaVuSans-35" x="63.623047"/>
      </g>
     </g>
    </g>
    <g id="xtick_13">
     <g id="line2d_43">
      <path d="M 488.192496 226.312 
L 488.192496 48.912 
" clip-path="url(#p1e18e470ae)" style="fill: none; stroke: #b0b0b0; stroke-opacity: 0.25; stroke-width: 0.8; stroke-linecap: square"/>
     </g>
     <g id="line2d_44">
      <g>
       <use xlink:href="#m30d677a24d" x="488.192496" y="226.312" style="stroke: #000000; stroke-width: 0.8"/>
      </g>
     </g>
     <g id="text_23">
      <!-- 100 -->
      <g transform="translate(478.648746 240.910438) scale(0.1 -0.1)">
       <use xlink:href="#DejaVuSans-31"/>
       <use xlink:href="#DejaVuSans-30" x="63.623047"/>
       <use xlink:href="#DejaVuSans-30" x="127.246094"/>
      </g>
     </g>
    </g>
    <g id="xtick_14">
     <g id="line2d_45">
      <path d="M 520.505196 226.312 
L 520.505196 48.912 
" clip-path="url(#p1e18e470ae)" style="fill: none; stroke: #b0b0b0; stroke-opacity: 0.25; stroke-width: 0.8; stroke-linecap: square"/>
     </g>
     <g id="line2d_46">
      <g>
       <use xlink:href="#m30d677a24d" x="520.505196" y="226.312" style="stroke: #000000; stroke-width: 0.8"/>
      </g>
     </g>
     <g id="text_24">
      <!-- 125 -->
      <g transform="translate(510.961446 240.910438) scale(0.1 -0.1)">
       <use xlink:href="#DejaVuSans-31"/>
       <use xlink:href="#DejaVuSans-32" x="63.623047"/>
       <use xlink:href="#DejaVuSans-35" x="127.246094"/>
      </g>
     </g>
    </g>
    <g id="xtick_15">
     <g id="line2d_47">
      <path d="M 552.817896 226.312 
L 552.817896 48.912 
" clip-path="url(#p1e18e470ae)" style="fill: none; stroke: #b0b0b0; stroke-opacity: 0.25; stroke-width: 0.8; stroke-linecap: square"/>
     </g>
     <g id="line2d_48">
      <g>
       <use xlink:href="#m30d677a24d" x="552.817896" y="226.312" style="stroke: #000000; stroke-width: 0.8"/>
      </g>
     </g>
     <g id="text_25">
      <!-- 150 -->
      <g transform="translate(543.274146 240.910438) scale(0.1 -0.1)">
       <use xlink:href="#DejaVuSans-31"/>
       <use xlink:href="#DejaVuSans-35" x="63.623047"/>
       <use xlink:href="#DejaVuSans-30" x="127.246094"/>
      </g>
     </g>
    </g>
    <g id="xtick_16">
     <g id="line2d_49">
      <path d="M 585.130596 226.312 
L 585.130596 48.912 
" clip-path="url(#p1e18e470ae)" style="fill: none; stroke: #b0b0b0; stroke-opacity: 0.25; stroke-width: 0.8; stroke-linecap: square"/>
     </g>
     <g id="line2d_50">
      <g>
       <use xlink:href="#m30d677a24d" x="585.130596" y="226.312" style="stroke: #000000; stroke-width: 0.8"/>
      </g>
     </g>
     <g id="text_26">
      <!-- 175 -->
      <g transform="translate(575.586846 240.910438) scale(0.1 -0.1)">
       <use xlink:href="#DejaVuSans-31"/>
       <use xlink:href="#DejaVuSans-37" x="63.623047"/>
       <use xlink:href="#DejaVuSans-35" x="127.246094"/>
      </g>
     </g>
    </g>
    <g id="xtick_17">
     <g id="line2d_51">
      <path d="M 617.443295 226.312 
L 617.443295 48.912 
" clip-path="url(#p1e18e470ae)" style="fill: none; stroke: #b0b0b0; stroke-opacity: 0.25; stroke-width: 0.8; stroke-linecap: square"/>
     </g>
     <g id="line2d_52">
      <g>
       <use xlink:href="#m30d677a24d" x="617.443295" y="226.312" style="stroke: #000000; stroke-width: 0.8"/>
      </g>
     </g>
     <g id="text_27">
      <!-- 200 -->
      <g transform="translate(607.899545 240.910438) scale(0.1 -0.1)">
       <use xlink:href="#DejaVuSans-32"/>
       <use xlink:href="#DejaVuSans-30" x="63.623047"/>
       <use xlink:href="#DejaVuSans-30" x="127.246094"/>
      </g>
     </g>
    </g>
    <g id="text_28">
     <!-- Epoch -->
     <g transform="translate(473.527813 254.588562) scale(0.1 -0.1)">
      <use xlink:href="#DejaVuSans-45"/>
      <use xlink:href="#DejaVuSans-70" x="63.183594"/>
      <use xlink:href="#DejaVuSans-6f" x="126.660156"/>
      <use xlink:href="#DejaVuSans-63" x="187.841797"/>
      <use xlink:href="#DejaVuSans-68" x="242.822266"/>
     </g>
    </g>
   </g>
   <g id="matplotlib.axis_4">
    <g id="ytick_8">
     <g id="line2d_53">
      <path d="M 347.37375 219.080411 
L 630.30375 219.080411 
" clip-path="url(#p1e18e470ae)" style="fill: none; stroke: #b0b0b0; stroke-opacity: 0.25; stroke-width: 0.8; stroke-linecap: square"/>
     </g>
     <g id="line2d_54">
      <g>
       <use xlink:href="#m7a3b4bbc7f" x="347.37375" y="219.080411" style="stroke: #000000; stroke-width: 0.8"/>
      </g>
     </g>
    </g>
    <g id="ytick_9">
     <g id="line2d_55">
      <path d="M 347.37375 191.52637 
L 630.30375 191.52637 
" clip-path="url(#p1e18e470ae)" style="fill: none; stroke: #b0b0b0; stroke-opacity: 0.25; stroke-width: 0.8; stroke-linecap: square"/>
     </g>
     <g id="line2d_56">
      <g>
       <use xlink:href="#m7a3b4bbc7f" x="347.37375" y="191.52637" style="stroke: #000000; stroke-width: 0.8"/>
      </g>
     </g>
    </g>
    <g id="ytick_10">
     <g id="line2d_57">
      <path d="M 347.37375 163.97233 
L 630.30375 163.97233 
" clip-path="url(#p1e18e470ae)" style="fill: none; stroke: #b0b0b0; stroke-opacity: 0.25; stroke-width: 0.8; stroke-linecap: square"/>
     </g>
     <g id="line2d_58">
      <g>
       <use xlink:href="#m7a3b4bbc7f" x="347.37375" y="163.97233" style="stroke: #000000; stroke-width: 0.8"/>
      </g>
     </g>
    </g>
    <g id="ytick_11">
     <g id="line2d_59">
      <path d="M 347.37375 136.41829 
L 630.30375 136.41829 
" clip-path="url(#p1e18e470ae)" style="fill: none; stroke: #b0b0b0; stroke-opacity: 0.25; stroke-width: 0.8; stroke-linecap: square"/>
     </g>
     <g id="line2d_60">
      <g>
       <use xlink:href="#m7a3b4bbc7f" x="347.37375" y="136.41829" style="stroke: #000000; stroke-width: 0.8"/>
      </g>
     </g>
    </g>
    <g id="ytick_12">
     <g id="line2d_61">
      <path d="M 347.37375 108.86425 
L 630.30375 108.86425 
" clip-path="url(#p1e18e470ae)" style="fill: none; stroke: #b0b0b0; stroke-opacity: 0.25; stroke-width: 0.8; stroke-linecap: square"/>
     </g>
     <g id="line2d_62">
      <g>
       <use xlink:href="#m7a3b4bbc7f" x="347.37375" y="108.86425" style="stroke: #000000; stroke-width: 0.8"/>
      </g>
     </g>
    </g>
    <g id="ytick_13">
     <g id="line2d_63">
      <path d="M 347.37375 81.31021 
L 630.30375 81.31021 
" clip-path="url(#p1e18e470ae)" style="fill: none; stroke: #b0b0b0; stroke-opacity: 0.25; stroke-width: 0.8; stroke-linecap: square"/>
     </g>
     <g id="line2d_64">
      <g>
       <use xlink:href="#m7a3b4bbc7f" x="347.37375" y="81.31021" style="stroke: #000000; stroke-width: 0.8"/>
      </g>
     </g>
    </g>
    <g id="ytick_14">
     <g id="line2d_65">
      <path d="M 347.37375 53.75617 
L 630.30375 53.75617 
" clip-path="url(#p1e18e470ae)" style="fill: none; stroke: #b0b0b0; stroke-opacity: 0.25; stroke-width: 0.8; stroke-linecap: square"/>
     </g>
     <g id="line2d_66">
      <g>
       <use xlink:href="#m7a3b4bbc7f" x="347.37375" y="53.75617" style="stroke: #000000; stroke-width: 0.8"/>
      </g>
     </g>
    </g>
   </g>
   <g id="line2d_67">
    <path d="M 360.234205 73.747483 
L 361.526713 123.873383 
L 362.819221 156.447023 
L 364.111729 183.954446 
L 365.404237 190.768742 
L 366.696745 193.181586 
L 367.989253 200.100065 
L 369.281761 202.00747 
L 370.574269 201.792752 
L 371.866776 203.699033 
L 373.159284 205.943289 
L 374.451792 206.777432 
L 377.036808 209.268028 
L 383.499348 212.072052 
L 384.791856 212.412784 
L 387.376872 213.279315 
L 392.546904 214.62028 
L 396.424428 215.32278 
L 400.301952 215.824456 
L 402.886968 215.868104 
L 408.057 216.28958 
L 409.349508 216.246925 
L 417.104556 216.922543 
L 422.274588 217.165414 
L 424.859604 217.22755 
L 427.44462 217.427088 
L 437.784684 217.221364 
L 439.077192 217.334405 
L 440.3697 217.300304 
L 441.662208 217.404947 
L 445.539732 217.4207 
L 448.124748 217.417497 
L 450.709764 217.225521 
L 452.002272 217.359609 
L 454.587288 217.313368 
L 463.634844 217.565822 
L 464.927352 217.514667 
L 467.512368 217.596287 
L 470.097384 217.556349 
L 483.022464 217.511128 
L 485.60748 217.759938 
L 488.192496 217.692903 
L 489.485004 217.613154 
L 490.777512 217.720751 
L 493.362528 217.450992 
L 504.9951 217.628023 
L 506.287608 217.676535 
L 508.872624 217.568659 
L 511.45764 217.729831 
L 514.042656 217.730971 
L 515.335164 217.866792 
L 524.38272 217.738229 
L 526.967736 217.852936 
L 530.84526 217.861263 
L 533.430276 217.916103 
L 536.015292 217.815524 
L 537.3078 217.627276 
L 538.600308 217.715605 
L 539.892816 217.488729 
L 543.77034 217.648782 
L 547.647864 217.759148 
L 554.110404 217.926133 
L 567.035484 217.658474 
L 568.327992 217.493904 
L 569.6205 217.628755 
L 570.913008 217.618804 
L 572.205516 217.47733 
L 573.498024 217.62825 
L 574.790532 217.611423 
L 576.08304 217.749268 
L 577.375548 217.730654 
L 578.668056 217.874338 
L 585.130596 217.785727 
L 586.423104 217.664423 
L 590.300628 217.73042 
L 591.593136 217.860936 
L 592.885644 217.723099 
L 594.178152 217.794323 
L 595.47066 217.674611 
L 600.640692 217.930658 
L 601.9332 217.992843 
L 605.810724 217.91499 
L 608.395739 218.018359 
L 617.443295 218.022315 
L 617.443295 218.022315 
" clip-path="url(#p1e18e470ae)" style="fill: none; stroke-dasharray: 1.5,2.475; stroke-dashoffset: 0; stroke: #4c78a8; stroke-opacity: 0.55; stroke-width: 1.5"/>
   </g>
   <g id="line2d_68">
    <path d="M 360.234205 93.367861 
L 361.526713 120.18452 
L 362.819221 150.214742 
L 364.111729 157.183386 
L 365.404237 153.071503 
L 366.696745 156.564713 
L 367.989253 157.548605 
L 369.281761 158.844319 
L 370.574269 161.262442 
L 371.866776 162.01082 
L 373.159284 161.32309 
L 374.451792 161.24186 
L 380.914332 163.215956 
L 382.20684 162.913804 
L 384.791856 162.68398 
L 386.084364 163.458584 
L 387.376872 163.713371 
L 388.66938 163.52837 
L 391.254396 164.210162 
L 393.839412 164.634374 
L 395.13192 164.371677 
L 397.716936 164.618075 
L 399.009444 164.340354 
L 402.886968 164.325718 
L 404.179476 164.639183 
L 405.471984 164.538461 
L 406.764492 164.659482 
L 408.057 164.57632 
L 409.349508 164.786199 
L 410.642016 164.523565 
L 411.934524 164.947012 
L 413.227032 165.013888 
L 414.51954 165.275133 
L 415.812048 164.848881 
L 417.104556 165.485163 
L 418.397064 165.076875 
L 422.274588 165.55294 
L 424.859604 165.382641 
L 426.152112 165.385341 
L 427.44462 165.749759 
L 430.029636 165.442574 
L 431.322144 165.772916 
L 432.614652 165.787612 
L 433.90716 165.434937 
L 435.199668 165.807011 
L 436.492176 165.546255 
L 437.784684 165.901029 
L 439.077192 165.936172 
L 440.3697 166.116656 
L 442.954716 165.968792 
L 444.247224 166.316711 
L 445.539732 166.097677 
L 446.83224 166.37824 
L 449.417256 166.155866 
L 452.002272 166.523735 
L 453.29478 166.318284 
L 454.587288 166.275435 
L 455.879796 166.660701 
L 458.464812 166.393629 
L 459.75732 166.665956 
L 461.049828 166.772955 
L 462.342336 166.506579 
L 464.927352 166.871401 
L 466.21986 166.728211 
L 468.804876 166.889703 
L 471.389892 166.843675 
L 472.6824 167.200666 
L 473.974908 166.846437 
L 475.267416 167.118111 
L 476.559924 167.043746 
L 479.14494 167.161423 
L 480.437448 167.059 
L 481.729956 167.174687 
L 483.022464 167.579454 
L 484.314972 167.331071 
L 485.60748 167.499544 
L 486.899988 167.382549 
L 488.192496 167.427642 
L 489.485004 167.614469 
L 492.07002 167.341339 
L 493.362528 167.493454 
L 494.655036 167.401292 
L 495.947544 167.441871 
L 497.240052 167.689301 
L 498.53256 167.811665 
L 499.825068 167.476255 
L 502.410084 167.430319 
L 503.702592 167.793567 
L 504.9951 167.654654 
L 506.287608 167.714415 
L 507.580116 167.649608 
L 508.872624 167.733322 
L 510.165132 167.676651 
L 511.45764 167.836567 
L 512.750148 167.500108 
L 514.042656 167.86471 
L 515.335164 167.873132 
L 516.627672 167.693127 
L 517.92018 167.980804 
L 520.505196 167.675157 
L 523.090212 167.968332 
L 524.38272 167.924104 
L 528.260244 168.192864 
L 529.552752 167.89464 
L 530.84526 168.208756 
L 532.137768 168.212349 
L 533.430276 167.959309 
L 534.722784 168.3003 
L 536.015292 168.004812 
L 539.892816 168.042064 
L 541.185324 167.737119 
L 542.477832 167.974445 
L 543.77034 168.003101 
L 545.062848 167.803513 
L 546.355356 167.941516 
L 547.647864 168.237241 
L 548.940372 168.340311 
L 550.23288 167.911786 
L 551.525388 168.290137 
L 554.110404 168.124602 
L 555.402912 167.961178 
L 556.69542 168.222 
L 557.987928 168.028748 
L 561.865452 168.028124 
L 563.15796 167.937972 
L 564.450468 168.045401 
L 565.742976 168.275773 
L 567.035484 168.098659 
L 569.6205 168.135973 
L 570.913008 167.756762 
L 572.205516 168.091696 
L 573.498024 168.248822 
L 574.790532 168.006412 
L 576.08304 168.326985 
L 578.668056 168.016292 
L 579.960564 168.235037 
L 581.253072 168.218876 
L 582.54558 168.084729 
L 585.130596 168.210431 
L 586.423104 167.935643 
L 587.715612 168.355063 
L 591.593136 168.095815 
L 595.47066 168.33434 
L 596.763168 168.012699 
L 598.055676 168.017238 
L 599.348184 168.321477 
L 601.9332 167.971581 
L 603.225708 168.41331 
L 604.518216 168.280329 
L 605.810724 168.289953 
L 607.103231 168.456514 
L 608.395739 168.209784 
L 609.688247 168.238857 
L 610.980755 168.398841 
L 612.273263 168.238384 
L 613.565771 168.550029 
L 614.858279 168.275028 
L 617.443295 168.385042 
L 617.443295 168.385042 
" clip-path="url(#p1e18e470ae)" style="fill: none; stroke: #4c78a8; stroke-width: 1.5; stroke-linecap: square"/>
   </g>
   <g id="line2d_69">
    <path d="M 360.234205 56.975636 
L 361.526713 115.863187 
L 364.111729 179.406835 
L 365.404237 186.646175 
L 366.696745 190.245247 
L 367.989253 197.426644 
L 369.281761 199.167721 
L 370.574269 198.73644 
L 371.866776 201.458494 
L 373.159284 203.725015 
L 374.451792 204.499988 
L 375.7443 206.028414 
L 377.036808 207.295502 
L 380.914332 209.701783 
L 383.499348 211.433174 
L 387.376872 213.391222 
L 389.961888 214.510533 
L 391.254396 214.890479 
L 396.424428 215.55073 
L 399.009444 215.572079 
L 404.179476 216.054945 
L 406.764492 216.08174 
L 408.057 216.292397 
L 409.349508 216.298778 
L 415.812048 216.855627 
L 420.98208 217.133592 
L 430.029636 217.143918 
L 432.614652 217.30402 
L 433.90716 217.23818 
L 436.492176 217.306584 
L 445.539732 216.967259 
L 448.124748 217.163314 
L 449.417256 217.059303 
L 454.587288 217.421302 
L 459.75732 217.480696 
L 462.342336 217.434388 
L 467.512368 217.716303 
L 471.389892 217.606042 
L 476.559924 217.331994 
L 477.852432 217.50077 
L 479.14494 217.372233 
L 480.437448 217.378113 
L 481.729956 217.141233 
L 484.314972 217.445217 
L 486.899988 217.555859 
L 493.362528 217.77006 
L 494.655036 217.810285 
L 495.947544 217.598177 
L 497.240052 217.558185 
L 498.53256 217.677858 
L 501.117576 217.58819 
L 502.410084 217.56658 
L 503.702592 217.661953 
L 506.287608 217.448452 
L 523.090212 217.893519 
L 528.260244 217.902574 
L 530.84526 217.972096 
L 536.015292 217.933896 
L 537.3078 217.811297 
L 539.892816 217.796411 
L 547.647864 217.793235 
L 551.525388 217.751158 
L 554.110404 217.853149 
L 555.402912 217.778934 
L 556.69542 217.829301 
L 557.987928 217.691605 
L 563.15796 217.976032 
L 564.450468 217.853943 
L 570.913008 217.835982 
L 572.205516 217.711444 
L 573.498024 217.776916 
L 576.08304 217.723455 
L 581.253072 217.849262 
L 585.130596 217.794607 
L 589.00812 218.009658 
L 591.593136 217.874285 
L 594.178152 217.91797 
L 600.640692 217.968512 
L 603.225708 217.833753 
L 607.103231 217.826611 
L 609.688247 217.801685 
L 614.858279 217.806515 
L 617.443295 217.764915 
L 617.443295 217.764915 
" clip-path="url(#p1e18e470ae)" style="fill: none; stroke-dasharray: 1.5,2.475; stroke-dashoffset: 0; stroke: #e45756; stroke-opacity: 0.55; stroke-width: 1.5"/>
   </g>
   <g id="line2d_70">
    <path d="M 360.234205 79.415044 
L 361.526713 104.682804 
L 362.819221 139.984999 
L 364.111729 148.058391 
L 365.404237 143.59812 
L 366.696745 147.036233 
L 367.989253 149.352095 
L 369.281761 149.8786 
L 370.574269 152.744124 
L 371.866776 153.730913 
L 373.159284 153.075819 
L 374.451792 152.883034 
L 375.7443 153.108338 
L 377.036808 154.286802 
L 378.329316 155.169485 
L 379.621824 155.592029 
L 383.499348 156.134313 
L 384.791856 156.603098 
L 386.084364 156.557526 
L 387.376872 156.945961 
L 388.66938 157.720329 
L 389.961888 157.42104 
L 391.254396 157.711138 
L 392.546904 157.164118 
L 393.839412 157.638645 
L 395.13192 157.516086 
L 396.424428 157.812024 
L 397.716936 157.544125 
L 399.009444 157.833927 
L 401.59446 158.021089 
L 402.886968 158.238983 
L 404.179476 158.293062 
L 405.471984 158.121686 
L 406.764492 158.499374 
L 408.057 158.538324 
L 409.349508 159.085686 
L 410.642016 158.527964 
L 411.934524 158.910257 
L 413.227032 158.966845 
L 414.51954 159.214656 
L 415.812048 159.01157 
L 417.104556 159.340907 
L 419.689572 159.05726 
L 420.98208 159.854265 
L 422.274588 159.428792 
L 423.567096 159.637108 
L 424.859604 159.652013 
L 426.152112 159.784039 
L 427.44462 160.174569 
L 428.737128 159.584717 
L 430.029636 159.967423 
L 431.322144 159.947354 
L 432.614652 159.706835 
L 433.90716 160.253645 
L 435.199668 160.23667 
L 436.492176 160.399919 
L 439.077192 160.032335 
L 440.3697 160.486031 
L 442.954716 160.398257 
L 444.247224 160.814632 
L 445.539732 160.582549 
L 446.83224 160.755573 
L 448.124748 160.484408 
L 449.417256 160.984162 
L 450.709764 161.363045 
L 452.002272 160.838755 
L 454.587288 161.520579 
L 455.879796 161.113934 
L 457.172304 161.375645 
L 458.464812 161.435 
L 461.049828 161.216981 
L 462.342336 161.701901 
L 463.634844 161.548979 
L 464.927352 161.6664 
L 466.21986 161.560101 
L 467.512368 161.88905 
L 468.804876 161.578561 
L 471.389892 162.18083 
L 472.6824 161.79742 
L 476.559924 161.920656 
L 477.852432 161.613234 
L 479.14494 162.198423 
L 480.437448 161.892525 
L 483.022464 162.152923 
L 484.314972 162.084122 
L 485.60748 162.23148 
L 486.899988 162.63446 
L 489.485004 162.219379 
L 490.777512 162.517978 
L 493.362528 162.511389 
L 494.655036 162.267277 
L 495.947544 162.214413 
L 497.240052 162.658234 
L 499.825068 162.502691 
L 501.117576 162.573338 
L 502.410084 162.791882 
L 504.9951 162.607486 
L 506.287608 162.175758 
L 507.580116 162.815867 
L 508.872624 162.854975 
L 510.165132 162.578922 
L 511.45764 162.970064 
L 514.042656 162.680577 
L 515.335164 162.793846 
L 516.627672 163.118637 
L 517.92018 162.754653 
L 519.212688 163.068441 
L 520.505196 162.887487 
L 524.38272 163.053436 
L 525.675228 162.856302 
L 526.967736 163.028748 
L 528.260244 162.946 
L 529.552752 163.018224 
L 530.84526 162.965275 
L 532.137768 163.169905 
L 533.430276 162.91829 
L 534.722784 163.274411 
L 536.015292 162.595168 
L 537.3078 163.174845 
L 538.600308 163.167645 
L 539.892816 162.847223 
L 541.185324 163.283096 
L 542.477832 162.781404 
L 543.77034 163.168749 
L 545.062848 163.112712 
L 546.355356 163.179417 
L 548.940372 162.906682 
L 550.23288 163.053048 
L 555.402912 163.036106 
L 556.69542 162.854173 
L 557.987928 163.007588 
L 559.280436 163.009585 
L 560.572944 163.214005 
L 561.865452 163.252745 
L 563.15796 163.105026 
L 564.450468 163.311199 
L 565.742976 163.203514 
L 567.035484 163.322768 
L 569.6205 163.279088 
L 570.913008 163.470336 
L 572.205516 163.22271 
L 573.498024 162.678816 
L 574.790532 163.373832 
L 577.375548 163.285185 
L 579.960564 163.387234 
L 583.838088 162.954678 
L 585.130596 163.415101 
L 586.423104 163.504543 
L 587.715612 163.456087 
L 589.00812 163.186039 
L 590.300628 163.221685 
L 591.593136 163.431616 
L 592.885644 163.49827 
L 594.178152 163.297962 
L 595.47066 163.668561 
L 596.763168 163.588559 
L 598.055676 163.303257 
L 599.348184 163.451463 
L 600.640692 163.715782 
L 601.9332 163.34402 
L 603.225708 163.468142 
L 604.518216 163.236591 
L 605.810724 163.50164 
L 608.395739 163.629145 
L 609.688247 163.151865 
L 610.980755 163.414562 
L 613.565771 163.549747 
L 614.858279 163.195046 
L 616.150787 163.646554 
L 617.443295 163.425822 
L 617.443295 163.425822 
" clip-path="url(#p1e18e470ae)" style="fill: none; stroke: #e45756; stroke-width: 1.5; stroke-linecap: square"/>
   </g>
   <g id="patch_8">
    <path d="M 347.37375 226.312 
L 347.37375 48.912 
" style="fill: none; stroke: #000000; stroke-width: 0.8; stroke-linejoin: miter; stroke-linecap: square"/>
   </g>
   <g id="patch_9">
    <path d="M 630.30375 226.312 
L 630.30375 48.912 
" style="fill: none; stroke: #000000; stroke-width: 0.8; stroke-linejoin: miter; stroke-linecap: square"/>
   </g>
   <g id="patch_10">
    <path d="M 347.37375 226.312 
L 630.30375 226.312 
" style="fill: none; stroke: #000000; stroke-width: 0.8; stroke-linejoin: miter; stroke-linecap: square"/>
   </g>
   <g id="patch_11">
    <path d="M 347.37375 48.912 
L 630.30375 48.912 
" style="fill: none; stroke: #000000; stroke-width: 0.8; stroke-linejoin: miter; stroke-linecap: square"/>
   </g>
   <g id="text_29">
    <!-- Cellphone -->
    <g transform="translate(458.84625 42.912) scale(0.12 -0.12)">
     <defs>
      <path id="DejaVuSans-6e" d="M 3513 2113 
L 3513 0 
L 2938 0 
L 2938 2094 
Q 2938 2591 2744 2837 
Q 2550 3084 2163 3084 
Q 1697 3084 1428 2787 
Q 1159 2491 1159 1978 
L 1159 0 
L 581 0 
L 581 3500 
L 1159 3500 
L 1159 2956 
Q 1366 3272 1645 3428 
Q 1925 3584 2291 3584 
Q 2894 3584 3203 3211 
Q 3513 2838 3513 2113 
z
" transform="scale(0.015625)"/>
     </defs>
     <use xlink:href="#DejaVuSans-43"/>
     <use xlink:href="#DejaVuSans-65" x="69.824219"/>
     <use xlink:href="#DejaVuSans-6c" x="131.347656"/>
     <use xlink:href="#DejaVuSans-6c" x="159.130859"/>
     <use xlink:href="#DejaVuSans-70" x="186.914062"/>
     <use xlink:href="#DejaVuSans-68" x="250.390625"/>
     <use xlink:href="#DejaVuSans-6f" x="313.769531"/>
     <use xlink:href="#DejaVuSans-6e" x="374.951172"/>
     <use xlink:href="#DejaVuSans-65" x="438.330078"/>
    </g>
   </g>
  </g>
  <g id="axes_3">
   <g id="patch_12">
    <path d="M 644.60375 226.312 
L 927.53375 226.312 
L 927.53375 48.912 
L 644.60375 48.912 
z
" style="fill: #ffffff"/>
   </g>
   <g id="matplotlib.axis_5">
    <g id="xtick_18">
     <g id="line2d_71">
      <path d="M 656.10331 226.312 
L 656.10331 48.912 
" clip-path="url(#p775adfa498)" style="fill: none; stroke: #b0b0b0; stroke-opacity: 0.25; stroke-width: 0.8; stroke-linecap: square"/>
     </g>
     <g id="line2d_72">
      <g>
       <use xlink:href="#m30d677a24d" x="656.10331" y="226.312" style="stroke: #000000; stroke-width: 0.8"/>
      </g>
     </g>
     <g id="text_30">
      <!-- 0 -->
      <g transform="translate(652.92206 240.910438) scale(0.1 -0.1)">
       <use xlink:href="#DejaVuSans-30"/>
      </g>
     </g>
    </g>
    <g id="xtick_19">
     <g id="line2d_73">
      <path d="M 690.125676 226.312 
L 690.125676 48.912 
" clip-path="url(#p775adfa498)" style="fill: none; stroke: #b0b0b0; stroke-opacity: 0.25; stroke-width: 0.8; stroke-linecap: square"/>
     </g>
     <g id="line2d_74">
      <g>
       <use xlink:href="#m30d677a24d" x="690.125676" y="226.312" style="stroke: #000000; stroke-width: 0.8"/>
      </g>
     </g>
     <g id="text_31">
      <!-- 25 -->
      <g transform="translate(683.763176 240.910438) scale(0.1 -0.1)">
       <use xlink:href="#DejaVuSans-32"/>
       <use xlink:href="#DejaVuSans-35" x="63.623047"/>
      </g>
     </g>
    </g>
    <g id="xtick_20">
     <g id="line2d_75">
      <path d="M 724.148043 226.312 
L 724.148043 48.912 
" clip-path="url(#p775adfa498)" style="fill: none; stroke: #b0b0b0; stroke-opacity: 0.25; stroke-width: 0.8; stroke-linecap: square"/>
     </g>
     <g id="line2d_76">
      <g>
       <use xlink:href="#m30d677a24d" x="724.148043" y="226.312" style="stroke: #000000; stroke-width: 0.8"/>
      </g>
     </g>
     <g id="text_32">
      <!-- 50 -->
      <g transform="translate(717.785543 240.910438) scale(0.1 -0.1)">
       <use xlink:href="#DejaVuSans-35"/>
       <use xlink:href="#DejaVuSans-30" x="63.623047"/>
      </g>
     </g>
    </g>
    <g id="xtick_21">
     <g id="line2d_77">
      <path d="M 758.170409 226.312 
L 758.170409 48.912 
" clip-path="url(#p775adfa498)" style="fill: none; stroke: #b0b0b0; stroke-opacity: 0.25; stroke-width: 0.8; stroke-linecap: square"/>
     </g>
     <g id="line2d_78">
      <g>
       <use xlink:href="#m30d677a24d" x="758.170409" y="226.312" style="stroke: #000000; stroke-width: 0.8"/>
      </g>
     </g>
     <g id="text_33">
      <!-- 75 -->
      <g transform="translate(751.807909 240.910438) scale(0.1 -0.1)">
       <use xlink:href="#DejaVuSans-37"/>
       <use xlink:href="#DejaVuSans-35" x="63.623047"/>
      </g>
     </g>
    </g>
    <g id="xtick_22">
     <g id="line2d_79">
      <path d="M 792.192776 226.312 
L 792.192776 48.912 
" clip-path="url(#p775adfa498)" style="fill: none; stroke: #b0b0b0; stroke-opacity: 0.25; stroke-width: 0.8; stroke-linecap: square"/>
     </g>
     <g id="line2d_80">
      <g>
       <use xlink:href="#m30d677a24d" x="792.192776" y="226.312" style="stroke: #000000; stroke-width: 0.8"/>
      </g>
     </g>
     <g id="text_34">
      <!-- 100 -->
      <g transform="translate(782.649026 240.910438) scale(0.1 -0.1)">
       <use xlink:href="#DejaVuSans-31"/>
       <use xlink:href="#DejaVuSans-30" x="63.623047"/>
       <use xlink:href="#DejaVuSans-30" x="127.246094"/>
      </g>
     </g>
    </g>
    <g id="xtick_23">
     <g id="line2d_81">
      <path d="M 826.215142 226.312 
L 826.215142 48.912 
" clip-path="url(#p775adfa498)" style="fill: none; stroke: #b0b0b0; stroke-opacity: 0.25; stroke-width: 0.8; stroke-linecap: square"/>
     </g>
     <g id="line2d_82">
      <g>
       <use xlink:href="#m30d677a24d" x="826.215142" y="226.312" style="stroke: #000000; stroke-width: 0.8"/>
      </g>
     </g>
     <g id="text_35">
      <!-- 125 -->
      <g transform="translate(816.671392 240.910438) scale(0.1 -0.1)">
       <use xlink:href="#DejaVuSans-31"/>
       <use xlink:href="#DejaVuSans-32" x="63.623047"/>
       <use xlink:href="#DejaVuSans-35" x="127.246094"/>
      </g>
     </g>
    </g>
    <g id="xtick_24">
     <g id="line2d_83">
      <path d="M 860.237509 226.312 
L 860.237509 48.912 
" clip-path="url(#p775adfa498)" style="fill: none; stroke: #b0b0b0; stroke-opacity: 0.25; stroke-width: 0.8; stroke-linecap: square"/>
     </g>
     <g id="line2d_84">
      <g>
       <use xlink:href="#m30d677a24d" x="860.237509" y="226.312" style="stroke: #000000; stroke-width: 0.8"/>
      </g>
     </g>
     <g id="text_36">
      <!-- 150 -->
      <g transform="translate(850.693759 240.910438) scale(0.1 -0.1)">
       <use xlink:href="#DejaVuSans-31"/>
       <use xlink:href="#DejaVuSans-35" x="63.623047"/>
       <use xlink:href="#DejaVuSans-30" x="127.246094"/>
      </g>
     </g>
    </g>
    <g id="xtick_25">
     <g id="line2d_85">
      <path d="M 894.259876 226.312 
L 894.259876 48.912 
" clip-path="url(#p775adfa498)" style="fill: none; stroke: #b0b0b0; stroke-opacity: 0.25; stroke-width: 0.8; stroke-linecap: square"/>
     </g>
     <g id="line2d_86">
      <g>
       <use xlink:href="#m30d677a24d" x="894.259876" y="226.312" style="stroke: #000000; stroke-width: 0.8"/>
      </g>
     </g>
     <g id="text_37">
      <!-- 175 -->
      <g transform="translate(884.716126 240.910438) scale(0.1 -0.1)">
       <use xlink:href="#DejaVuSans-31"/>
       <use xlink:href="#DejaVuSans-37" x="63.623047"/>
       <use xlink:href="#DejaVuSans-35" x="127.246094"/>
      </g>
     </g>
    </g>
    <g id="text_38">
     <!-- Epoch -->
     <g transform="translate(770.757812 254.588562) scale(0.1 -0.1)">
      <use xlink:href="#DejaVuSans-45"/>
      <use xlink:href="#DejaVuSans-70" x="63.183594"/>
      <use xlink:href="#DejaVuSans-6f" x="126.660156"/>
      <use xlink:href="#DejaVuSans-63" x="187.841797"/>
      <use xlink:href="#DejaVuSans-68" x="242.822266"/>
     </g>
    </g>
   </g>
   <g id="matplotlib.axis_6">
    <g id="ytick_15">
     <g id="line2d_87">
      <path d="M 644.60375 219.080411 
L 927.53375 219.080411 
" clip-path="url(#p775adfa498)" style="fill: none; stroke: #b0b0b0; stroke-opacity: 0.25; stroke-width: 0.8; stroke-linecap: square"/>
     </g>
     <g id="line2d_88">
      <g>
       <use xlink:href="#m7a3b4bbc7f" x="644.60375" y="219.080411" style="stroke: #000000; stroke-width: 0.8"/>
      </g>
     </g>
    </g>
    <g id="ytick_16">
     <g id="line2d_89">
      <path d="M 644.60375 191.52637 
L 927.53375 191.52637 
" clip-path="url(#p775adfa498)" style="fill: none; stroke: #b0b0b0; stroke-opacity: 0.25; stroke-width: 0.8; stroke-linecap: square"/>
     </g>
     <g id="line2d_90">
      <g>
       <use xlink:href="#m7a3b4bbc7f" x="644.60375" y="191.52637" style="stroke: #000000; stroke-width: 0.8"/>
      </g>
     </g>
    </g>
    <g id="ytick_17">
     <g id="line2d_91">
      <path d="M 644.60375 163.97233 
L 927.53375 163.97233 
" clip-path="url(#p775adfa498)" style="fill: none; stroke: #b0b0b0; stroke-opacity: 0.25; stroke-width: 0.8; stroke-linecap: square"/>
     </g>
     <g id="line2d_92">
      <g>
       <use xlink:href="#m7a3b4bbc7f" x="644.60375" y="163.97233" style="stroke: #000000; stroke-width: 0.8"/>
      </g>
     </g>
    </g>
    <g id="ytick_18">
     <g id="line2d_93">
      <path d="M 644.60375 136.41829 
L 927.53375 136.41829 
" clip-path="url(#p775adfa498)" style="fill: none; stroke: #b0b0b0; stroke-opacity: 0.25; stroke-width: 0.8; stroke-linecap: square"/>
     </g>
     <g id="line2d_94">
      <g>
       <use xlink:href="#m7a3b4bbc7f" x="644.60375" y="136.41829" style="stroke: #000000; stroke-width: 0.8"/>
      </g>
     </g>
    </g>
    <g id="ytick_19">
     <g id="line2d_95">
      <path d="M 644.60375 108.86425 
L 927.53375 108.86425 
" clip-path="url(#p775adfa498)" style="fill: none; stroke: #b0b0b0; stroke-opacity: 0.25; stroke-width: 0.8; stroke-linecap: square"/>
     </g>
     <g id="line2d_96">
      <g>
       <use xlink:href="#m7a3b4bbc7f" x="644.60375" y="108.86425" style="stroke: #000000; stroke-width: 0.8"/>
      </g>
     </g>
    </g>
    <g id="ytick_20">
     <g id="line2d_97">
      <path d="M 644.60375 81.31021 
L 927.53375 81.31021 
" clip-path="url(#p775adfa498)" style="fill: none; stroke: #b0b0b0; stroke-opacity: 0.25; stroke-width: 0.8; stroke-linecap: square"/>
     </g>
     <g id="line2d_98">
      <g>
       <use xlink:href="#m7a3b4bbc7f" x="644.60375" y="81.31021" style="stroke: #000000; stroke-width: 0.8"/>
      </g>
     </g>
    </g>
    <g id="ytick_21">
     <g id="line2d_99">
      <path d="M 644.60375 53.75617 
L 927.53375 53.75617 
" clip-path="url(#p775adfa498)" style="fill: none; stroke: #b0b0b0; stroke-opacity: 0.25; stroke-width: 0.8; stroke-linecap: square"/>
     </g>
     <g id="line2d_100">
      <g>
       <use xlink:href="#m7a3b4bbc7f" x="644.60375" y="53.75617" style="stroke: #000000; stroke-width: 0.8"/>
      </g>
     </g>
    </g>
   </g>
   <g id="line2d_101">
    <path d="M 657.464205 87.892564 
L 658.825099 147.556125 
L 660.185994 176.455001 
L 661.546889 187.702661 
L 662.907783 193.578403 
L 665.629573 200.767636 
L 666.990467 203.831567 
L 668.351362 205.933715 
L 669.712256 207.541226 
L 672.434046 209.775704 
L 676.51673 212.108246 
L 680.599414 214.130441 
L 684.682098 215.537761 
L 690.125676 216.175783 
L 695.569255 216.549062 
L 696.93015 216.591867 
L 698.291044 216.487636 
L 699.651939 216.662601 
L 706.456412 216.854232 
L 711.899991 216.90114 
L 713.260886 216.86289 
L 714.62178 216.596131 
L 715.982675 216.506974 
L 717.34357 216.943751 
L 720.065359 217.03876 
L 726.869832 217.078034 
L 728.230727 216.957338 
L 733.674306 217.077381 
L 735.0352 217.247146 
L 747.283252 217.351066 
L 750.005041 217.295802 
L 755.44862 217.36808 
L 756.809515 217.115309 
L 758.170409 217.094887 
L 759.531304 216.950279 
L 760.892199 216.926141 
L 762.253093 217.19082 
L 763.613988 217.282408 
L 766.335777 217.171113 
L 769.057567 217.361259 
L 770.418461 217.492471 
L 774.501145 217.3879 
L 777.222935 217.233194 
L 778.583829 217.303977 
L 784.027408 217.149544 
L 789.470987 217.533731 
L 809.884407 217.534093 
L 811.245301 217.653406 
L 813.967091 217.554653 
L 816.68888 217.377876 
L 819.410669 217.228259 
L 820.771564 217.407018 
L 822.132459 217.363225 
L 824.854248 217.537093 
L 826.215142 217.582721 
L 827.576037 217.514235 
L 831.658721 217.594108 
L 835.741405 217.516768 
L 839.824089 217.598849 
L 841.184984 217.476278 
L 842.545878 217.648725 
L 850.711246 217.446339 
L 850.711246 217.446339 
" clip-path="url(#p775adfa498)" style="fill: none; stroke-dasharray: 1.5,2.475; stroke-dashoffset: 0; stroke: #4c78a8; stroke-opacity: 0.55; stroke-width: 1.5"/>
   </g>
   <g id="line2d_102">
    <path d="M 657.464205 143.784127 
L 658.825099 174.109101 
L 660.185994 184.217869 
L 661.546889 193.479924 
L 662.907783 194.620766 
L 664.268678 198.133435 
L 665.629573 200.649543 
L 666.990467 201.926762 
L 668.351362 203.745252 
L 669.712256 204.241193 
L 671.073151 205.527749 
L 672.434046 206.580411 
L 673.79494 207.048993 
L 676.51673 208.848961 
L 677.877624 209.456683 
L 680.599414 210.975287 
L 681.960308 211.674396 
L 684.682098 212.107729 
L 686.042992 212.553752 
L 690.125676 213.407377 
L 691.486571 213.362756 
L 694.20836 213.567181 
L 695.569255 213.816783 
L 696.93015 213.770767 
L 698.291044 213.924637 
L 699.651939 213.785922 
L 701.012834 214.036996 
L 702.373728 213.88392 
L 703.734623 213.863499 
L 706.456412 214.177389 
L 707.817307 214.207715 
L 709.178202 213.896647 
L 710.539096 214.141718 
L 711.899991 214.228411 
L 713.260886 214.053312 
L 714.62178 213.711552 
L 715.982675 214.157571 
L 717.34357 214.207597 
L 718.704464 214.081799 
L 720.065359 214.296944 
L 721.426254 213.97737 
L 722.787148 214.402798 
L 724.148043 214.227847 
L 725.508938 214.421963 
L 726.869832 214.370678 
L 728.230727 214.002572 
L 729.591622 214.448302 
L 732.313411 214.198322 
L 733.674306 214.495975 
L 735.0352 214.504199 
L 736.396095 214.316923 
L 737.75699 214.516441 
L 739.117884 214.349029 
L 740.478779 214.576573 
L 741.839674 214.426918 
L 744.561463 214.657697 
L 747.283252 214.515554 
L 751.365936 214.583458 
L 756.809515 214.426486 
L 758.170409 214.148467 
L 760.892199 214.36239 
L 762.253093 214.632426 
L 763.613988 214.424679 
L 766.335777 214.390924 
L 767.696672 214.800221 
L 778.583829 214.632789 
L 779.944724 214.285391 
L 781.305619 214.665039 
L 782.666513 214.365753 
L 784.027408 214.312378 
L 786.749197 214.782316 
L 788.110092 214.623048 
L 789.470987 214.729818 
L 796.27546 214.741324 
L 797.636355 214.818931 
L 798.997249 214.57164 
L 801.719039 214.834322 
L 803.079933 214.578565 
L 804.440828 214.750901 
L 811.245301 214.801525 
L 813.967091 214.440785 
L 815.327985 214.742997 
L 816.68888 214.539961 
L 818.049775 214.551795 
L 819.410669 214.70271 
L 820.771564 214.518853 
L 826.215142 214.830252 
L 828.936932 214.7267 
L 830.297826 214.828549 
L 831.658721 214.712668 
L 833.019616 214.736841 
L 834.38051 214.635316 
L 838.463194 214.788427 
L 841.184984 214.769966 
L 842.545878 214.840208 
L 843.906773 214.708686 
L 845.267668 214.783431 
L 846.628562 214.631645 
L 849.350352 214.807647 
L 850.711246 214.623134 
L 850.711246 214.623134 
" clip-path="url(#p775adfa498)" style="fill: none; stroke: #4c78a8; stroke-width: 1.5; stroke-linecap: square"/>
   </g>
   <g id="line2d_103">
    <path d="M 657.464205 75.702297 
L 658.825099 140.164298 
L 660.185994 171.705055 
L 661.546889 184.734895 
L 662.907783 191.060412 
L 665.629573 198.992485 
L 666.990467 202.168442 
L 668.351362 204.45183 
L 671.073151 207.436489 
L 672.434046 208.746805 
L 675.155835 210.954408 
L 677.877624 213.431548 
L 679.238519 214.380058 
L 680.599414 214.889182 
L 684.682098 215.834288 
L 687.403887 215.865812 
L 690.125676 216.277768 
L 691.486571 216.21298 
L 696.93015 216.462925 
L 699.651939 216.258557 
L 701.012834 216.537457 
L 703.734623 216.756386 
L 706.456412 216.714838 
L 707.817307 216.833665 
L 710.539096 216.902003 
L 715.982675 217.11038 
L 718.704464 217.211303 
L 720.065359 216.967493 
L 725.508938 217.204154 
L 726.869832 217.081891 
L 729.591622 217.181642 
L 733.674306 217.177491 
L 740.478779 217.17936 
L 743.200568 217.000163 
L 744.561463 216.870655 
L 747.283252 216.907879 
L 751.365936 217.16304 
L 752.726831 217.031206 
L 754.087725 217.222469 
L 767.696672 217.302013 
L 773.140251 217.466692 
L 775.86204 217.242868 
L 779.944724 217.339698 
L 784.027408 217.305379 
L 785.388303 217.498109 
L 786.749197 217.226175 
L 789.470987 217.314761 
L 794.914565 217.562592 
L 798.997249 217.524349 
L 804.440828 217.607337 
L 811.245301 217.260329 
L 813.967091 217.375763 
L 815.327985 217.212661 
L 820.771564 217.497307 
L 824.854248 217.484601 
L 834.38051 217.603974 
L 837.1023 217.269707 
L 839.824089 217.559956 
L 846.628562 217.460708 
L 847.989457 217.449419 
L 849.350352 217.594331 
L 852.072141 217.56373 
L 861.598404 217.660651 
L 864.320193 217.638104 
L 865.681088 217.721016 
L 868.402877 217.671294 
L 869.763772 217.684167 
L 871.124666 217.527579 
L 872.485561 217.674085 
L 877.92914 217.685007 
L 879.290034 217.781923 
L 882.011824 217.619448 
L 887.455402 217.539013 
L 901.064349 217.658178 
L 903.786138 217.493107 
L 906.507927 217.700508 
L 911.951506 217.694401 
L 913.312401 217.539733 
L 914.673295 217.522489 
L 914.673295 217.522489 
" clip-path="url(#p775adfa498)" style="fill: none; stroke-dasharray: 1.5,2.475; stroke-dashoffset: 0; stroke: #e45756; stroke-opacity: 0.55; stroke-width: 1.5"/>
   </g>
   <g id="line2d_104">
    <path d="M 657.464205 136.647406 
L 658.825099 171.454418 
L 660.185994 182.102834 
L 661.546889 190.864458 
L 662.907783 191.887401 
L 664.268678 195.77263 
L 665.629573 199.269019 
L 666.990467 200.280869 
L 669.712256 203.041011 
L 671.073151 204.383417 
L 672.434046 205.436904 
L 673.79494 205.96498 
L 675.155835 207.461393 
L 676.51673 208.624796 
L 677.877624 209.469873 
L 683.321203 212.259599 
L 684.682098 212.539268 
L 686.042992 212.405088 
L 687.403887 212.835873 
L 688.764782 213.050964 
L 691.486571 212.909825 
L 694.20836 213.052826 
L 695.569255 213.344192 
L 698.291044 212.746652 
L 699.651939 213.463868 
L 703.734623 213.316088 
L 705.095518 213.644542 
L 706.456412 213.818605 
L 709.178202 213.714797 
L 711.899991 213.729345 
L 714.62178 213.983337 
L 715.982675 213.873818 
L 717.34357 213.967552 
L 718.704464 213.736403 
L 720.065359 213.899542 
L 721.426254 213.904962 
L 722.787148 214.11012 
L 724.148043 213.729602 
L 726.869832 213.914594 
L 728.230727 213.908144 
L 729.591622 214.193815 
L 733.674306 213.914969 
L 735.0352 214.049752 
L 736.396095 213.952727 
L 737.75699 214.21765 
L 739.117884 213.927952 
L 740.478779 213.84114 
L 741.839674 213.868103 
L 743.200568 213.35893 
L 745.922358 213.717139 
L 748.644147 213.934879 
L 754.087725 213.966787 
L 755.44862 214.204263 
L 756.809515 214.136528 
L 758.170409 213.813037 
L 771.779356 214.287872 
L 774.501145 214.036303 
L 775.86204 214.297112 
L 777.222935 214.125833 
L 778.583829 214.105322 
L 779.944724 214.240678 
L 781.305619 214.162717 
L 782.666513 213.811556 
L 784.027408 214.195913 
L 785.388303 213.779028 
L 786.749197 214.052787 
L 788.110092 214.076294 
L 789.470987 214.359785 
L 790.831881 214.361992 
L 792.192776 214.208014 
L 797.636355 214.18883 
L 798.997249 214.108095 
L 800.358144 214.312276 
L 804.440828 214.324374 
L 805.801723 214.10873 
L 807.162617 214.023685 
L 808.523512 214.145366 
L 811.245301 213.856555 
L 812.606196 214.218823 
L 813.967091 214.09685 
L 818.049775 214.130767 
L 819.410669 214.291689 
L 820.771564 214.11733 
L 822.132459 214.230949 
L 824.854248 214.155404 
L 826.215142 214.390965 
L 830.297826 214.218856 
L 833.019616 214.384751 
L 834.38051 214.206644 
L 835.741405 213.821741 
L 837.1023 214.018528 
L 838.463194 213.996838 
L 839.824089 214.3236 
L 841.184984 214.275437 
L 842.545878 214.363123 
L 846.628562 213.976285 
L 847.989457 214.262863 
L 849.350352 214.346428 
L 850.711246 214.279979 
L 852.072141 214.412548 
L 856.154825 214.14123 
L 858.876614 214.309116 
L 860.237509 214.374154 
L 861.598404 214.255133 
L 864.320193 214.310794 
L 865.681088 214.360768 
L 867.041982 214.141503 
L 868.402877 214.30631 
L 877.92914 214.386173 
L 879.290034 214.168812 
L 882.011824 214.328562 
L 887.455402 214.06128 
L 888.816297 214.247258 
L 890.177192 214.099832 
L 891.538086 214.186834 
L 892.898981 214.080648 
L 894.259876 214.343911 
L 895.62077 214.412934 
L 898.34256 214.199741 
L 901.064349 214.202049 
L 902.425244 214.094991 
L 903.786138 214.291509 
L 905.147033 214.341148 
L 906.507927 214.147897 
L 907.868822 214.252649 
L 909.229717 214.152393 
L 910.590611 214.337501 
L 911.951506 213.975046 
L 913.312401 213.928203 
L 914.673295 214.179214 
L 914.673295 214.179214 
" clip-path="url(#p775adfa498)" style="fill: none; stroke: #e45756; stroke-width: 1.5; stroke-linecap: square"/>
   </g>
   <g id="patch_13">
    <path d="M 644.60375 226.312 
L 644.60375 48.912 
" style="fill: none; stroke: #000000; stroke-width: 0.8; stroke-linejoin: miter; stroke-linecap: square"/>
   </g>
   <g id="patch_14">
    <path d="M 927.53375 226.312 
L 927.53375 48.912 
" style="fill: none; stroke: #000000; stroke-width: 0.8; stroke-linejoin: miter; stroke-linecap: square"/>
   </g>
   <g id="patch_15">
    <path d="M 644.60375 226.312 
L 927.53375 226.312 
" style="fill: none; stroke: #000000; stroke-width: 0.8; stroke-linejoin: miter; stroke-linecap: square"/>
   </g>
   <g id="patch_16">
    <path d="M 644.60375 48.912 
L 927.53375 48.912 
" style="fill: none; stroke: #000000; stroke-width: 0.8; stroke-linejoin: miter; stroke-linecap: square"/>
   </g>
   <g id="text_39">
    <!-- USB stick -->
    <g transform="translate(757.926875 42.912) scale(0.12 -0.12)">
     <defs>
      <path id="DejaVuSans-55" d="M 556 4666 
L 1191 4666 
L 1191 1831 
Q 1191 1081 1462 751 
Q 1734 422 2344 422 
Q 2950 422 3222 751 
Q 3494 1081 3494 1831 
L 3494 4666 
L 4128 4666 
L 4128 1753 
Q 4128 841 3676 375 
Q 3225 -91 2344 -91 
Q 1459 -91 1007 375 
Q 556 841 556 1753 
L 556 4666 
z
" transform="scale(0.015625)"/>
      <path id="DejaVuSans-53" d="M 3425 4513 
L 3425 3897 
Q 3066 4069 2747 4153 
Q 2428 4238 2131 4238 
Q 1616 4238 1336 4038 
Q 1056 3838 1056 3469 
Q 1056 3159 1242 3001 
Q 1428 2844 1947 2747 
L 2328 2669 
Q 3034 2534 3370 2195 
Q 3706 1856 3706 1288 
Q 3706 609 3251 259 
Q 2797 -91 1919 -91 
Q 1588 -91 1214 -16 
Q 841 59 441 206 
L 441 856 
Q 825 641 1194 531 
Q 1563 422 1919 422 
Q 2459 422 2753 634 
Q 3047 847 3047 1241 
Q 3047 1584 2836 1778 
Q 2625 1972 2144 2069 
L 1759 2144 
Q 1053 2284 737 2584 
Q 422 2884 422 3419 
Q 422 4038 858 4394 
Q 1294 4750 2059 4750 
Q 2388 4750 2728 4690 
Q 3069 4631 3425 4513 
z
" transform="scale(0.015625)"/>
      <path id="DejaVuSans-6b" d="M 581 4863 
L 1159 4863 
L 1159 1991 
L 2875 3500 
L 3609 3500 
L 1753 1863 
L 3688 0 
L 2938 0 
L 1159 1709 
L 1159 0 
L 581 0 
L 581 4863 
z
" transform="scale(0.015625)"/>
     </defs>
     <use xlink:href="#DejaVuSans-55"/>
     <use xlink:href="#DejaVuSans-53" x="73.193359"/>
     <use xlink:href="#DejaVuSans-42" x="136.669922"/>
     <use xlink:href="#DejaVuSans-20" x="205.273438"/>
     <use xlink:href="#DejaVuSans-73" x="237.060547"/>
     <use xlink:href="#DejaVuSans-74" x="289.160156"/>
     <use xlink:href="#DejaVuSans-69" x="328.369141"/>
     <use xlink:href="#DejaVuSans-63" x="356.152344"/>
     <use xlink:href="#DejaVuSans-6b" x="411.132812"/>
    </g>
   </g>
   <g id="legend_1">
    <g id="patch_17">
     <path d="M 820.895 102.282 
L 921.93375 102.282 
Q 923.53375 102.282 923.53375 100.682 
L 923.53375 54.512 
Q 923.53375 52.912 921.93375 52.912 
L 820.895 52.912 
Q 819.295 52.912 819.295 54.512 
L 819.295 100.682 
Q 819.295 102.282 820.895 102.282 
z
" style="fill: #ffffff; opacity: 0.8; stroke: #cccccc; stroke-linejoin: miter"/>
    </g>
    <g id="line2d_105">
     <path d="M 822.495 59.39075 
L 830.495 59.39075 
L 838.495 59.39075 
" style="fill: none; stroke-dasharray: 1.5,2.475; stroke-dashoffset: 0; stroke: #4c78a8; stroke-opacity: 0.55; stroke-width: 1.5"/>
    </g>
    <g id="text_40">
     <!-- baseline train -->
     <g transform="translate(844.895 62.19075) scale(0.08 -0.08)">
      <defs>
       <path id="DejaVuSans-62" d="M 3116 1747 
Q 3116 2381 2855 2742 
Q 2594 3103 2138 3103 
Q 1681 3103 1420 2742 
Q 1159 2381 1159 1747 
Q 1159 1113 1420 752 
Q 1681 391 2138 391 
Q 2594 391 2855 752 
Q 3116 1113 3116 1747 
z
M 1159 2969 
Q 1341 3281 1617 3432 
Q 1894 3584 2278 3584 
Q 2916 3584 3314 3078 
Q 3713 2572 3713 1747 
Q 3713 922 3314 415 
Q 2916 -91 2278 -91 
Q 1894 -91 1617 61 
Q 1341 213 1159 525 
L 1159 0 
L 581 0 
L 581 4863 
L 1159 4863 
L 1159 2969 
z
" transform="scale(0.015625)"/>
      </defs>
      <use xlink:href="#DejaVuSans-62"/>
      <use xlink:href="#DejaVuSans-61" x="63.476562"/>
      <use xlink:href="#DejaVuSans-73" x="124.755859"/>
      <use xlink:href="#DejaVuSans-65" x="176.855469"/>
      <use xlink:href="#DejaVuSans-6c" x="238.378906"/>
      <use xlink:href="#DejaVuSans-69" x="266.162109"/>
      <use xlink:href="#DejaVuSans-6e" x="293.945312"/>
      <use xlink:href="#DejaVuSans-65" x="357.324219"/>
      <use xlink:href="#DejaVuSans-20" x="418.847656"/>
      <use xlink:href="#DejaVuSans-74" x="450.634766"/>
      <use xlink:href="#DejaVuSans-72" x="489.84375"/>
      <use xlink:href="#DejaVuSans-61" x="530.957031"/>
      <use xlink:href="#DejaVuSans-69" x="592.236328"/>
      <use xlink:href="#DejaVuSans-6e" x="620.019531"/>
     </g>
    </g>
    <g id="line2d_106">
     <path d="M 822.495 71.13325 
L 830.495 71.13325 
L 838.495 71.13325 
" style="fill: none; stroke: #4c78a8; stroke-width: 1.5; stroke-linecap: square"/>
    </g>
    <g id="text_41">
     <!-- baseline validation -->
     <g transform="translate(844.895 73.93325) scale(0.08 -0.08)">
      <defs>
       <path id="DejaVuSans-76" d="M 191 3500 
L 800 3500 
L 1894 563 
L 2988 3500 
L 3597 3500 
L 2284 0 
L 1503 0 
L 191 3500 
z
" transform="scale(0.015625)"/>
      </defs>
      <use xlink:href="#DejaVuSans-62"/>
      <use xlink:href="#DejaVuSans-61" x="63.476562"/>
      <use xlink:href="#DejaVuSans-73" x="124.755859"/>
      <use xlink:href="#DejaVuSans-65" x="176.855469"/>
      <use xlink:href="#DejaVuSans-6c" x="238.378906"/>
      <use xlink:href="#DejaVuSans-69" x="266.162109"/>
      <use xlink:href="#DejaVuSans-6e" x="293.945312"/>
      <use xlink:href="#DejaVuSans-65" x="357.324219"/>
      <use xlink:href="#DejaVuSans-20" x="418.847656"/>
      <use xlink:href="#DejaVuSans-76" x="450.634766"/>
      <use xlink:href="#DejaVuSans-61" x="509.814453"/>
      <use xlink:href="#DejaVuSans-6c" x="571.09375"/>
      <use xlink:href="#DejaVuSans-69" x="598.876953"/>
      <use xlink:href="#DejaVuSans-64" x="626.660156"/>
      <use xlink:href="#DejaVuSans-61" x="690.136719"/>
      <use xlink:href="#DejaVuSans-74" x="751.416016"/>
      <use xlink:href="#DejaVuSans-69" x="790.625"/>
      <use xlink:href="#DejaVuSans-6f" x="818.408203"/>
      <use xlink:href="#DejaVuSans-6e" x="879.589844"/>
     </g>
    </g>
    <g id="line2d_107">
     <path d="M 822.495 82.87575 
L 830.495 82.87575 
L 838.495 82.87575 
" style="fill: none; stroke-dasharray: 1.5,2.475; stroke-dashoffset: 0; stroke: #e45756; stroke-opacity: 0.55; stroke-width: 1.5"/>
    </g>
    <g id="text_42">
     <!-- wrist4 train -->
     <g transform="translate(844.895 85.67575) scale(0.08 -0.08)">
      <defs>
       <path id="DejaVuSans-77" d="M 269 3500 
L 844 3500 
L 1563 769 
L 2278 3500 
L 2956 3500 
L 3675 769 
L 4391 3500 
L 4966 3500 
L 4050 0 
L 3372 0 
L 2619 2869 
L 1863 0 
L 1184 0 
L 269 3500 
z
" transform="scale(0.015625)"/>
       <path id="DejaVuSans-34" d="M 2419 4116 
L 825 1625 
L 2419 1625 
L 2419 4116 
z
M 2253 4666 
L 3047 4666 
L 3047 1625 
L 3713 1625 
L 3713 1100 
L 3047 1100 
L 3047 0 
L 2419 0 
L 2419 1100 
L 313 1100 
L 313 1709 
L 2253 4666 
z
" transform="scale(0.015625)"/>
      </defs>
      <use xlink:href="#DejaVuSans-77"/>
      <use xlink:href="#DejaVuSans-72" x="81.787109"/>
      <use xlink:href="#DejaVuSans-69" x="122.900391"/>
      <use xlink:href="#DejaVuSans-73" x="150.683594"/>
      <use xlink:href="#DejaVuSans-74" x="202.783203"/>
      <use xlink:href="#DejaVuSans-34" x="241.992188"/>
      <use xlink:href="#DejaVuSans-20" x="305.615234"/>
      <use xlink:href="#DejaVuSans-74" x="337.402344"/>
      <use xlink:href="#DejaVuSans-72" x="376.611328"/>
      <use xlink:href="#DejaVuSans-61" x="417.724609"/>
      <use xlink:href="#DejaVuSans-69" x="479.003906"/>
      <use xlink:href="#DejaVuSans-6e" x="506.787109"/>
     </g>
    </g>
    <g id="line2d_108">
     <path d="M 822.495 94.61825 
L 830.495 94.61825 
L 838.495 94.61825 
" style="fill: none; stroke: #e45756; stroke-width: 1.5; stroke-linecap: square"/>
    </g>
    <g id="text_43">
     <!-- wrist4 validation -->
     <g transform="translate(844.895 97.41825) scale(0.08 -0.08)">
      <use xlink:href="#DejaVuSans-77"/>
      <use xlink:href="#DejaVuSans-72" x="81.787109"/>
      <use xlink:href="#DejaVuSans-69" x="122.900391"/>
      <use xlink:href="#DejaVuSans-73" x="150.683594"/>
      <use xlink:href="#DejaVuSans-74" x="202.783203"/>
      <use xlink:href="#DejaVuSans-34" x="241.992188"/>
      <use xlink:href="#DejaVuSans-20" x="305.615234"/>
      <use xlink:href="#DejaVuSans-76" x="337.402344"/>
      <use xlink:href="#DejaVuSans-61" x="396.582031"/>
      <use xlink:href="#DejaVuSans-6c" x="457.861328"/>
      <use xlink:href="#DejaVuSans-69" x="485.644531"/>
      <use xlink:href="#DejaVuSans-64" x="513.427734"/>
      <use xlink:href="#DejaVuSans-61" x="576.904297"/>
      <use xlink:href="#DejaVuSans-74" x="638.183594"/>
      <use xlink:href="#DejaVuSans-69" x="677.392578"/>
      <use xlink:href="#DejaVuSans-6f" x="705.175781"/>
      <use xlink:href="#DejaVuSans-6e" x="766.357422"/>
     </g>
    </g>
   </g>
  </g>
  <g id="text_44">
   <!-- Seed 0 train/validation BC loss -->
   <g transform="translate(378.569375 16.318125) scale(0.12 -0.12)">
    <defs>
     <path id="DejaVuSans-2f" d="M 1625 4666 
L 2156 4666 
L 531 -594 
L 0 -594 
L 1625 4666 
z
" transform="scale(0.015625)"/>
    </defs>
    <use xlink:href="#DejaVuSans-53"/>
    <use xlink:href="#DejaVuSans-65" x="63.476562"/>
    <use xlink:href="#DejaVuSans-65" x="125"/>
    <use xlink:href="#DejaVuSans-64" x="186.523438"/>
    <use xlink:href="#DejaVuSans-20" x="250"/>
    <use xlink:href="#DejaVuSans-30" x="281.787109"/>
    <use xlink:href="#DejaVuSans-20" x="345.410156"/>
    <use xlink:href="#DejaVuSans-74" x="377.197266"/>
    <use xlink:href="#DejaVuSans-72" x="416.40625"/>
    <use xlink:href="#DejaVuSans-61" x="457.519531"/>
    <use xlink:href="#DejaVuSans-69" x="518.798828"/>
    <use xlink:href="#DejaVuSans-6e" x="546.582031"/>
    <use xlink:href="#DejaVuSans-2f" x="609.960938"/>
    <use xlink:href="#DejaVuSans-76" x="643.652344"/>
    <use xlink:href="#DejaVuSans-61" x="702.832031"/>
    <use xlink:href="#DejaVuSans-6c" x="764.111328"/>
    <use xlink:href="#DejaVuSans-69" x="791.894531"/>
    <use xlink:href="#DejaVuSans-64" x="819.677734"/>
    <use xlink:href="#DejaVuSans-61" x="883.154297"/>
    <use xlink:href="#DejaVuSans-74" x="944.433594"/>
    <use xlink:href="#DejaVuSans-69" x="983.642578"/>
    <use xlink:href="#DejaVuSans-6f" x="1011.425781"/>
    <use xlink:href="#DejaVuSans-6e" x="1072.607422"/>
    <use xlink:href="#DejaVuSans-20" x="1135.986328"/>
    <use xlink:href="#DejaVuSans-42" x="1167.773438"/>
    <use xlink:href="#DejaVuSans-43" x="1234.626953"/>
    <use xlink:href="#DejaVuSans-20" x="1304.451172"/>
    <use xlink:href="#DejaVuSans-6c" x="1336.238281"/>
    <use xlink:href="#DejaVuSans-6f" x="1364.021484"/>
    <use xlink:href="#DejaVuSans-73" x="1425.203125"/>
    <use xlink:href="#DejaVuSans-73" x="1477.302734"/>
   </g>
  </g>
 </g>
 <defs>
  <clipPath id="p043216eb1f">
   <rect x="50.14375" y="48.912" width="282.93" height="177.4"/>
  </clipPath>
  <clipPath id="p1e18e470ae">
   <rect x="347.37375" y="48.912" width="282.93" height="177.4"/>
  </clipPath>
  <clipPath id="p775adfa498">
   <rect x="644.60375" y="48.912" width="282.93" height="177.4"/>
  </clipPath>
 </defs>
</svg>
