<?xml version="1.0" encoding="utf-8" standalone="no"?>
<!DOCTYPE svg PUBLIC "-//W3C//DTD SVG 1.1//EN"
  "http://www.w3.org/Graphics/SVG/1.1/DTD/svg11.dtd">
<svg xmlns:xlink="http://www.w3.org/1999/xlink" width="864pt" height="331.2pt" viewBox="0 0 864 331.2" xmlns="http://www.w3.org/2000/svg" version="1.1">
 <metadata>
  <rdf:RDF xmlns:dc="http://purl.org/dc/elements/1.1/" xmlns:cc="http://creativecommons.org/ns#" xmlns:rdf="http://www.w3.org/1999/02/22-rdf-syntax-ns#">
   <cc:Work>
    <dc:type rdf:resource="http://purl.org/dc/dcmitype/StillImage"/>
    <dc:date>2026-07-19T19:43:52.339803</dc:date>
    <dc:format>image/svg+xml</dc:format>
    <dc:creator>
     <cc:Agent>
      <dc:title>Matplotlib v3.6.3, https://matplotlib.org/</dc:title>
     </cc:Agent>
    </dc:creator>
   </cc:Work>
  </rdf:RDF>
 </metadata>
 <defs>
  <style type="text/css">*{stroke-linejoin: round; stroke-linecap: butt}</style>
 </defs>
 <g id="figure_1">
  <g id="patch_1">
   <path d="M 0 331.2 
L 864 331.2 
L 864 0 
L 0 0 
z
" style="fill: #ffffff"/>
  </g>
  <g id="axes_1">
   <g id="patch_2">
    <path d="M 47.178365 297.84351 
L 433.0675 297.84351 
L 433.0675 18.118365 
L 47.178365 18.118365 
z
" style="fill: #ffffff"/>
   </g>
   <g id="matplotlib.axis_1">
    <g id="xtick_1">
     <g id="line2d_1">
      <path d="M 62.470009 297.84351 
L 62.470009 18.118365 
" clip-path="url(#p44f9e1a88a)" style="fill: none; stroke: #b0b0b0; stroke-opacity: 0.25; stroke-width: 0.8; stroke-linecap: square"/>
     </g>
     <g id="line2d_2">
      <defs>
       <path id="m67ed1b4b9e" d="M 0 0 
L 0 3.5 
" style="stroke: #000000; stroke-width: 0.8"/>
      </defs>
      <g>
       <use xlink:href="#m67ed1b4b9e" x="62.470009" y="297.84351" style="stroke: #000000; stroke-width: 0.8"/>
      </g>
     </g>
     <g id="text_1">
      <!-- 0 -->
      <g transform="translate(59.288759 312.441947) scale(0.1 -0.1)">
       <defs>
        <path id="DejaVuSans-30" d="M 2034 4250 
Q 1547 4250 1301 3770 
Q 1056 3291 1056 2328 
Q 1056 1369 1301 889 
Q 1547 409 2034 409 
Q 2525 409 2770 889 
Q 3016 1369 3016 2328 
Q 3016 3291 2770 3770 
Q 2525 4250 2034 4250 
z
M 2034 4750 
Q 2819 4750 3233 4129 
Q 3647 3509 3647 2328 
Q 3647 1150 3233 529 
Q 2819 -91 2034 -91 
Q 1250 -91 836 529 
Q 422 1150 422 2328 
Q 422 3509 836 4129 
Q 1250 4750 2034 4750 
z
" transform="scale(0.015625)"/>
       </defs>
       <use xlink:href="#DejaVuSans-30"/>
      </g>
     </g>
    </g>
    <g id="xtick_2">
     <g id="line2d_3">
      <path d="M 107.445433 297.84351 
L 107.445433 18.118365 
" clip-path="url(#p44f9e1a88a)" style="fill: none; stroke: #b0b0b0; stroke-opacity: 0.25; stroke-width: 0.8; stroke-linecap: square"/>
     </g>
     <g id="line2d_4">
      <g>
       <use xlink:href="#m67ed1b4b9e" x="107.445433" y="297.84351" style="stroke: #000000; stroke-width: 0.8"/>
      </g>
     </g>
     <g id="text_2">
      <!-- 20 -->
      <g transform="translate(101.082933 312.441947) scale(0.1 -0.1)">
       <defs>
        <path id="DejaVuSans-32" d="M 1228 531 
L 3431 531 
L 3431 0 
L 469 0 
L 469 531 
Q 828 903 1448 1529 
Q 2069 2156 2228 2338 
Q 2531 2678 2651 2914 
Q 2772 3150 2772 3378 
Q 2772 3750 2511 3984 
Q 2250 4219 1831 4219 
Q 1534 4219 1204 4116 
Q 875 4013 500 3803 
L 500 4441 
Q 881 4594 1212 4672 
Q 1544 4750 1819 4750 
Q 2544 4750 2975 4387 
Q 3406 4025 3406 3419 
Q 3406 3131 3298 2873 
Q 3191 2616 2906 2266 
Q 2828 2175 2409 1742 
Q 1991 1309 1228 531 
z
" transform="scale(0.015625)"/>
       </defs>
       <use xlink:href="#DejaVuSans-32"/>
       <use xlink:href="#DejaVuSans-30" x="63.623047"/>
      </g>
     </g>
    </g>
    <g id="xtick_3">
     <g id="line2d_5">
      <path d="M 152.420856 297.84351 
L 152.420856 18.118365 
" clip-path="url(#p44f9e1a88a)" style="fill: none; stroke: #b0b0b0; stroke-opacity: 0.25; stroke-width: 0.8; stroke-linecap: square"/>
     </g>
     <g id="line2d_6">
      <g>
       <use xlink:href="#m67ed1b4b9e" x="152.420856" y="297.84351" style="stroke: #000000; stroke-width: 0.8"/>
      </g>
     </g>
     <g id="text_3">
      <!-- 40 -->
      <g transform="translate(146.058356 312.441947) scale(0.1 -0.1)">
       <defs>
        <path id="DejaVuSans-34" d="M 2419 4116 
L 825 1625 
L 2419 1625 
L 2419 4116 
z
M 2253 4666 
L 3047 4666 
L 3047 1625 
L 3713 1625 
L 3713 1100 
L 3047 1100 
L 3047 0 
L 2419 0 
L 2419 1100 
L 313 1100 
L 313 1709 
L 2253 4666 
z
" transform="scale(0.015625)"/>
       </defs>
       <use xlink:href="#DejaVuSans-34"/>
       <use xlink:href="#DejaVuSans-30" x="63.623047"/>
      </g>
     </g>
    </g>
    <g id="xtick_4">
     <g id="line2d_7">
      <path d="M 197.39628 297.84351 
L 197.39628 18.118365 
" clip-path="url(#p44f9e1a88a)" style="fill: none; stroke: #b0b0b0; stroke-opacity: 0.25; stroke-width: 0.8; stroke-linecap: square"/>
     </g>
     <g id="line2d_8">
      <g>
       <use xlink:href="#m67ed1b4b9e" x="197.39628" y="297.84351" style="stroke: #000000; stroke-width: 0.8"/>
      </g>
     </g>
     <g id="text_4">
      <!-- 60 -->
      <g transform="translate(191.03378 312.441947) scale(0.1 -0.1)">
       <defs>
        <path id="DejaVuSans-36" d="M 2113 2584 
Q 1688 2584 1439 2293 
Q 1191 2003 1191 1497 
Q 1191 994 1439 701 
Q 1688 409 2113 409 
Q 2538 409 2786 701 
Q 3034 994 3034 1497 
Q 3034 2003 2786 2293 
Q 2538 2584 2113 2584 
z
M 3366 4563 
L 3366 3988 
Q 3128 4100 2886 4159 
Q 2644 4219 2406 4219 
Q 1781 4219 1451 3797 
Q 1122 3375 1075 2522 
Q 1259 2794 1537 2939 
Q 1816 3084 2150 3084 
Q 2853 3084 3261 2657 
Q 3669 2231 3669 1497 
Q 3669 778 3244 343 
Q 2819 -91 2113 -91 
Q 1303 -91 875 529 
Q 447 1150 447 2328 
Q 447 3434 972 4092 
Q 1497 4750 2381 4750 
Q 2619 4750 2861 4703 
Q 3103 4656 3366 4563 
z
" transform="scale(0.015625)"/>
       </defs>
       <use xlink:href="#DejaVuSans-36"/>
       <use xlink:href="#DejaVuSans-30" x="63.623047"/>
      </g>
     </g>
    </g>
    <g id="xtick_5">
     <g id="line2d_9">
      <path d="M 242.371704 297.84351 
L 242.371704 18.118365 
" clip-path="url(#p44f9e1a88a)" style="fill: none; stroke: #b0b0b0; stroke-opacity: 0.25; stroke-width: 0.8; stroke-linecap: square"/>
     </g>
     <g id="line2d_10">
      <g>
       <use xlink:href="#m67ed1b4b9e" x="242.371704" y="297.84351" style="stroke: #000000; stroke-width: 0.8"/>
      </g>
     </g>
     <g id="text_5">
      <!-- 80 -->
      <g transform="translate(236.009204 312.441947) scale(0.1 -0.1)">
       <defs>
        <path id="DejaVuSans-38" d="M 2034 2216 
Q 1584 2216 1326 1975 
Q 1069 1734 1069 1313 
Q 1069 891 1326 650 
Q 1584 409 2034 409 
Q 2484 409 2743 651 
Q 3003 894 3003 1313 
Q 3003 1734 2745 1975 
Q 2488 2216 2034 2216 
z
M 1403 2484 
Q 997 2584 770 2862 
Q 544 3141 544 3541 
Q 544 4100 942 4425 
Q 1341 4750 2034 4750 
Q 2731 4750 3128 4425 
Q 3525 4100 3525 3541 
Q 3525 3141 3298 2862 
Q 3072 2584 2669 2484 
Q 3125 2378 3379 2068 
Q 3634 1759 3634 1313 
Q 3634 634 3220 271 
Q 2806 -91 2034 -91 
Q 1263 -91 848 271 
Q 434 634 434 1313 
Q 434 1759 690 2068 
Q 947 2378 1403 2484 
z
M 1172 3481 
Q 1172 3119 1398 2916 
Q 1625 2713 2034 2713 
Q 2441 2713 2670 2916 
Q 2900 3119 2900 3481 
Q 2900 3844 2670 4047 
Q 2441 4250 2034 4250 
Q 1625 4250 1398 4047 
Q 1172 3844 1172 3481 
z
" transform="scale(0.015625)"/>
       </defs>
       <use xlink:href="#DejaVuSans-38"/>
       <use xlink:href="#DejaVuSans-30" x="63.623047"/>
      </g>
     </g>
    </g>
    <g id="xtick_6">
     <g id="line2d_11">
      <path d="M 287.347127 297.84351 
L 287.347127 18.118365 
" clip-path="url(#p44f9e1a88a)" style="fill: none; stroke: #b0b0b0; stroke-opacity: 0.25; stroke-width: 0.8; stroke-linecap: square"/>
     </g>
     <g id="line2d_12">
      <g>
       <use xlink:href="#m67ed1b4b9e" x="287.347127" y="297.84351" style="stroke: #000000; stroke-width: 0.8"/>
      </g>
     </g>
     <g id="text_6">
      <!-- 100 -->
      <g transform="translate(277.803377 312.441947) scale(0.1 -0.1)">
       <defs>
        <path id="DejaVuSans-31" d="M 794 531 
L 1825 531 
L 1825 4091 
L 703 3866 
L 703 4441 
L 1819 4666 
L 2450 4666 
L 2450 531 
L 3481 531 
L 3481 0 
L 794 0 
L 794 531 
z
" transform="scale(0.015625)"/>
       </defs>
       <use xlink:href="#DejaVuSans-31"/>
       <use xlink:href="#DejaVuSans-30" x="63.623047"/>
       <use xlink:href="#DejaVuSans-30" x="127.246094"/>
      </g>
     </g>
    </g>
    <g id="xtick_7">
     <g id="line2d_13">
      <path d="M 332.322551 297.84351 
L 332.322551 18.118365 
" clip-path="url(#p44f9e1a88a)" style="fill: none; stroke: #b0b0b0; stroke-opacity: 0.25; stroke-width: 0.8; stroke-linecap: square"/>
     </g>
     <g id="line2d_14">
      <g>
       <use xlink:href="#m67ed1b4b9e" x="332.322551" y="297.84351" style="stroke: #000000; stroke-width: 0.8"/>
      </g>
     </g>
     <g id="text_7">
      <!-- 120 -->
      <g transform="translate(322.778801 312.441947) scale(0.1 -0.1)">
       <use xlink:href="#DejaVuSans-31"/>
       <use xlink:href="#DejaVuSans-32" x="63.623047"/>
       <use xlink:href="#DejaVuSans-30" x="127.246094"/>
      </g>
     </g>
    </g>
    <g id="xtick_8">
     <g id="line2d_15">
      <path d="M 377.297975 297.84351 
L 377.297975 18.118365 
" clip-path="url(#p44f9e1a88a)" style="fill: none; stroke: #b0b0b0; stroke-opacity: 0.25; stroke-width: 0.8; stroke-linecap: square"/>
     </g>
     <g id="line2d_16">
      <g>
       <use xlink:href="#m67ed1b4b9e" x="377.297975" y="297.84351" style="stroke: #000000; stroke-width: 0.8"/>
      </g>
     </g>
     <g id="text_8">
      <!-- 140 -->
      <g transform="translate(367.754225 312.441947) scale(0.1 -0.1)">
       <use xlink:href="#DejaVuSans-31"/>
       <use xlink:href="#DejaVuSans-34" x="63.623047"/>
       <use xlink:href="#DejaVuSans-30" x="127.246094"/>
      </g>
     </g>
    </g>
    <g id="xtick_9">
     <g id="line2d_17">
      <path d="M 422.273398 297.84351 
L 422.273398 18.118365 
" clip-path="url(#p44f9e1a88a)" style="fill: none; stroke: #b0b0b0; stroke-opacity: 0.25; stroke-width: 0.8; stroke-linecap: square"/>
     </g>
     <g id="line2d_18">
      <g>
       <use xlink:href="#m67ed1b4b9e" x="422.273398" y="297.84351" style="stroke: #000000; stroke-width: 0.8"/>
      </g>
     </g>
     <g id="text_9">
      <!-- 160 -->
      <g transform="translate(412.729648 312.441947) scale(0.1 -0.1)">
       <use xlink:href="#DejaVuSans-31"/>
       <use xlink:href="#DejaVuSans-36" x="63.623047"/>
       <use xlink:href="#DejaVuSans-30" x="127.246094"/>
      </g>
     </g>
    </g>
    <g id="text_10">
     <!-- epoch -->
     <g transform="translate(224.894807 326.120072) scale(0.1 -0.1)">
      <defs>
       <path id="DejaVuSans-65" d="M 3597 1894 
L 3597 1613 
L 953 1613 
Q 991 1019 1311 708 
Q 1631 397 2203 397 
Q 2534 397 2845 478 
Q 3156 559 3463 722 
L 3463 178 
Q 3153 47 2828 -22 
Q 2503 -91 2169 -91 
Q 1331 -91 842 396 
Q 353 884 353 1716 
Q 353 2575 817 3079 
Q 1281 3584 2069 3584 
Q 2775 3584 3186 3129 
Q 3597 2675 3597 1894 
z
M 3022 2063 
Q 3016 2534 2758 2815 
Q 2500 3097 2075 3097 
Q 1594 3097 1305 2825 
Q 1016 2553 972 2059 
L 3022 2063 
z
" transform="scale(0.015625)"/>
       <path id="DejaVuSans-70" d="M 1159 525 
L 1159 -1331 
L 581 -1331 
L 581 3500 
L 1159 3500 
L 1159 2969 
Q 1341 3281 1617 3432 
Q 1894 3584 2278 3584 
Q 2916 3584 3314 3078 
Q 3713 2572 3713 1747 
Q 3713 922 3314 415 
Q 2916 -91 2278 -91 
Q 1894 -91 1617 61 
Q 1341 213 1159 525 
z
M 3116 1747 
Q 3116 2381 2855 2742 
Q 2594 3103 2138 3103 
Q 1681 3103 1420 2742 
Q 1159 2381 1159 1747 
Q 1159 1113 1420 752 
Q 1681 391 2138 391 
Q 2594 391 2855 752 
Q 3116 1113 3116 1747 
z
" transform="scale(0.015625)"/>
       <path id="DejaVuSans-6f" d="M 1959 3097 
Q 1497 3097 1228 2736 
Q 959 2375 959 1747 
Q 959 1119 1226 758 
Q 1494 397 1959 397 
Q 2419 397 2687 759 
Q 2956 1122 2956 1747 
Q 2956 2369 2687 2733 
Q 2419 3097 1959 3097 
z
M 1959 3584 
Q 2709 3584 3137 3096 
Q 3566 2609 3566 1747 
Q 3566 888 3137 398 
Q 2709 -91 1959 -91 
Q 1206 -91 779 398 
Q 353 888 353 1747 
Q 353 2609 779 3096 
Q 1206 3584 1959 3584 
z
" transform="scale(0.015625)"/>
       <path id="DejaVuSans-63" d="M 3122 3366 
L 3122 2828 
Q 2878 2963 2633 3030 
Q 2388 3097 2138 3097 
Q 1578 3097 1268 2742 
Q 959 2388 959 1747 
Q 959 1106 1268 751 
Q 1578 397 2138 397 
Q 2388 397 2633 464 
Q 2878 531 3122 666 
L 3122 134 
Q 2881 22 2623 -34 
Q 2366 -91 2075 -91 
Q 1284 -91 818 406 
Q 353 903 353 1747 
Q 353 2603 823 3093 
Q 1294 3584 2113 3584 
Q 2378 3584 2631 3529 
Q 2884 3475 3122 3366 
z
" transform="scale(0.015625)"/>
       <path id="DejaVuSans-68" d="M 3513 2113 
L 3513 0 
L 2938 0 
L 2938 2094 
Q 2938 2591 2744 2837 
Q 2550 3084 2163 3084 
Q 1697 3084 1428 2787 
Q 1159 2491 1159 1978 
L 1159 0 
L 581 0 
L 581 4863 
L 1159 4863 
L 1159 2956 
Q 1366 3272 1645 3428 
Q 1925 3584 2291 3584 
Q 2894 3584 3203 3211 
Q 3513 2838 3513 2113 
z
" transform="scale(0.015625)"/>
      </defs>
      <use xlink:href="#DejaVuSans-65"/>
      <use xlink:href="#DejaVuSans-70" x="61.523438"/>
      <use xlink:href="#DejaVuSans-6f" x="125"/>
      <use xlink:href="#DejaVuSans-63" x="186.181641"/>
      <use xlink:href="#DejaVuSans-68" x="241.162109"/>
     </g>
    </g>
   </g>
   <g id="matplotlib.axis_2">
    <g id="ytick_1">
     <g id="line2d_19">
      <path d="M 47.178365 280.57686 
L 433.0675 280.57686 
" clip-path="url(#p44f9e1a88a)" style="fill: none; stroke: #b0b0b0; stroke-opacity: 0.25; stroke-width: 0.8; stroke-linecap: square"/>
     </g>
     <g id="line2d_20">
      <defs>
       <path id="mb27efd7ca1" d="M 0 0 
L -3.5 0 
" style="stroke: #000000; stroke-width: 0.8"/>
      </defs>
      <g>
       <use xlink:href="#mb27efd7ca1" x="47.178365" y="280.57686" style="stroke: #000000; stroke-width: 0.8"/>
      </g>
     </g>
     <g id="text_11">
      <!-- $\mathdefault{10^{-2}}$ -->
      <g transform="translate(16.678365 284.376079) scale(0.1 -0.1)">
       <defs>
        <path id="DejaVuSans-2212" d="M 678 2272 
L 4684 2272 
L 4684 1741 
L 678 1741 
L 678 2272 
z
" transform="scale(0.015625)"/>
       </defs>
       <use xlink:href="#DejaVuSans-31" transform="translate(0 0.765625)"/>
       <use xlink:href="#DejaVuSans-30" transform="translate(63.623047 0.765625)"/>
       <use xlink:href="#DejaVuSans-2212" transform="translate(128.203125 39.046875) scale(0.7)"/>
       <use xlink:href="#DejaVuSans-32" transform="translate(186.855469 39.046875) scale(0.7)"/>
      </g>
     </g>
    </g>
    <g id="ytick_2">
     <g id="line2d_21">
      <path d="M 47.178365 152.770509 
L 433.0675 152.770509 
" clip-path="url(#p44f9e1a88a)" style="fill: none; stroke: #b0b0b0; stroke-opacity: 0.25; stroke-width: 0.8; stroke-linecap: square"/>
     </g>
     <g id="line2d_22">
      <g>
       <use xlink:href="#mb27efd7ca1" x="47.178365" y="152.770509" style="stroke: #000000; stroke-width: 0.8"/>
      </g>
     </g>
     <g id="text_12">
      <!-- $\mathdefault{10^{-1}}$ -->
      <g transform="translate(16.678365 156.569728) scale(0.1 -0.1)">
       <use xlink:href="#DejaVuSans-31" transform="translate(0 0.684375)"/>
       <use xlink:href="#DejaVuSans-30" transform="translate(63.623047 0.684375)"/>
       <use xlink:href="#DejaVuSans-2212" transform="translate(128.203125 38.965625) scale(0.7)"/>
       <use xlink:href="#DejaVuSans-31" transform="translate(186.855469 38.965625) scale(0.7)"/>
      </g>
     </g>
    </g>
    <g id="ytick_3">
     <g id="line2d_23">
      <path d="M 47.178365 24.964159 
L 433.0675 24.964159 
" clip-path="url(#p44f9e1a88a)" style="fill: none; stroke: #b0b0b0; stroke-opacity: 0.25; stroke-width: 0.8; stroke-linecap: square"/>
     </g>
     <g id="line2d_24">
      <g>
       <use xlink:href="#mb27efd7ca1" x="47.178365" y="24.964159" style="stroke: #000000; stroke-width: 0.8"/>
      </g>
     </g>
     <g id="text_13">
      <!-- $\mathdefault{10^{0}}$ -->
      <g transform="translate(22.578365 28.763377) scale(0.1 -0.1)">
       <use xlink:href="#DejaVuSans-31" transform="translate(0 0.765625)"/>
       <use xlink:href="#DejaVuSans-30" transform="translate(63.623047 0.765625)"/>
       <use xlink:href="#DejaVuSans-30" transform="translate(128.203125 39.046875) scale(0.7)"/>
      </g>
     </g>
    </g>
    <g id="ytick_4">
     <g id="line2d_25">
      <path d="M 47.178365 292.962575 
L 433.0675 292.962575 
" clip-path="url(#p44f9e1a88a)" style="fill: none; stroke: #b0b0b0; stroke-opacity: 0.25; stroke-width: 0.8; stroke-linecap: square"/>
     </g>
     <g id="line2d_26">
      <defs>
       <path id="m6189db38dc" d="M 0 0 
L -2 0 
" style="stroke: #000000; stroke-width: 0.6"/>
      </defs>
      <g>
       <use xlink:href="#m6189db38dc" x="47.178365" y="292.962575" style="stroke: #000000; stroke-width: 0.6"/>
      </g>
     </g>
    </g>
    <g id="ytick_5">
     <g id="line2d_27">
      <path d="M 47.178365 286.424958 
L 433.0675 286.424958 
" clip-path="url(#p44f9e1a88a)" style="fill: none; stroke: #b0b0b0; stroke-opacity: 0.25; stroke-width: 0.8; stroke-linecap: square"/>
     </g>
     <g id="line2d_28">
      <g>
       <use xlink:href="#m6189db38dc" x="47.178365" y="286.424958" style="stroke: #000000; stroke-width: 0.6"/>
      </g>
     </g>
    </g>
    <g id="ytick_6">
     <g id="line2d_29">
      <path d="M 47.178365 242.103315 
L 433.0675 242.103315 
" clip-path="url(#p44f9e1a88a)" style="fill: none; stroke: #b0b0b0; stroke-opacity: 0.25; stroke-width: 0.8; stroke-linecap: square"/>
     </g>
     <g id="line2d_30">
      <g>
       <use xlink:href="#m6189db38dc" x="47.178365" y="242.103315" style="stroke: #000000; stroke-width: 0.6"/>
      </g>
     </g>
    </g>
    <g id="ytick_7">
     <g id="line2d_31">
      <path d="M 47.178365 219.597734 
L 433.0675 219.597734 
" clip-path="url(#p44f9e1a88a)" style="fill: none; stroke: #b0b0b0; stroke-opacity: 0.25; stroke-width: 0.8; stroke-linecap: square"/>
     </g>
     <g id="line2d_32">
      <g>
       <use xlink:href="#m6189db38dc" x="47.178365" y="219.597734" style="stroke: #000000; stroke-width: 0.6"/>
      </g>
     </g>
    </g>
    <g id="ytick_8">
     <g id="line2d_33">
      <path d="M 47.178365 203.62977 
L 433.0675 203.62977 
" clip-path="url(#p44f9e1a88a)" style="fill: none; stroke: #b0b0b0; stroke-opacity: 0.25; stroke-width: 0.8; stroke-linecap: square"/>
     </g>
     <g id="line2d_34">
      <g>
       <use xlink:href="#m6189db38dc" x="47.178365" y="203.62977" style="stroke: #000000; stroke-width: 0.6"/>
      </g>
     </g>
    </g>
    <g id="ytick_9">
     <g id="line2d_35">
      <path d="M 47.178365 191.244055 
L 433.0675 191.244055 
" clip-path="url(#p44f9e1a88a)" style="fill: none; stroke: #b0b0b0; stroke-opacity: 0.25; stroke-width: 0.8; stroke-linecap: square"/>
     </g>
     <g id="line2d_36">
      <g>
       <use xlink:href="#m6189db38dc" x="47.178365" y="191.244055" style="stroke: #000000; stroke-width: 0.6"/>
      </g>
     </g>
    </g>
    <g id="ytick_10">
     <g id="line2d_37">
      <path d="M 47.178365 181.124188 
L 433.0675 181.124188 
" clip-path="url(#p44f9e1a88a)" style="fill: none; stroke: #b0b0b0; stroke-opacity: 0.25; stroke-width: 0.8; stroke-linecap: square"/>
     </g>
     <g id="line2d_38">
      <g>
       <use xlink:href="#m6189db38dc" x="47.178365" y="181.124188" style="stroke: #000000; stroke-width: 0.6"/>
      </g>
     </g>
    </g>
    <g id="ytick_11">
     <g id="line2d_39">
      <path d="M 47.178365 172.567964 
L 433.0675 172.567964 
" clip-path="url(#p44f9e1a88a)" style="fill: none; stroke: #b0b0b0; stroke-opacity: 0.25; stroke-width: 0.8; stroke-linecap: square"/>
     </g>
     <g id="line2d_40">
      <g>
       <use xlink:href="#m6189db38dc" x="47.178365" y="172.567964" style="stroke: #000000; stroke-width: 0.6"/>
      </g>
     </g>
    </g>
    <g id="ytick_12">
     <g id="line2d_41">
      <path d="M 47.178365 165.156224 
L 433.0675 165.156224 
" clip-path="url(#p44f9e1a88a)" style="fill: none; stroke: #b0b0b0; stroke-opacity: 0.25; stroke-width: 0.8; stroke-linecap: square"/>
     </g>
     <g id="line2d_42">
      <g>
       <use xlink:href="#m6189db38dc" x="47.178365" y="165.156224" style="stroke: #000000; stroke-width: 0.6"/>
      </g>
     </g>
    </g>
    <g id="ytick_13">
     <g id="line2d_43">
      <path d="M 47.178365 158.618607 
L 433.0675 158.618607 
" clip-path="url(#p44f9e1a88a)" style="fill: none; stroke: #b0b0b0; stroke-opacity: 0.25; stroke-width: 0.8; stroke-linecap: square"/>
     </g>
     <g id="line2d_44">
      <g>
       <use xlink:href="#m6189db38dc" x="47.178365" y="158.618607" style="stroke: #000000; stroke-width: 0.6"/>
      </g>
     </g>
    </g>
    <g id="ytick_14">
     <g id="line2d_45">
      <path d="M 47.178365 114.296964 
L 433.0675 114.296964 
" clip-path="url(#p44f9e1a88a)" style="fill: none; stroke: #b0b0b0; stroke-opacity: 0.25; stroke-width: 0.8; stroke-linecap: square"/>
     </g>
     <g id="line2d_46">
      <g>
       <use xlink:href="#m6189db38dc" x="47.178365" y="114.296964" style="stroke: #000000; stroke-width: 0.6"/>
      </g>
     </g>
    </g>
    <g id="ytick_15">
     <g id="line2d_47">
      <path d="M 47.178365 91.791383 
L 433.0675 91.791383 
" clip-path="url(#p44f9e1a88a)" style="fill: none; stroke: #b0b0b0; stroke-opacity: 0.25; stroke-width: 0.8; stroke-linecap: square"/>
     </g>
     <g id="line2d_48">
      <g>
       <use xlink:href="#m6189db38dc" x="47.178365" y="91.791383" style="stroke: #000000; stroke-width: 0.6"/>
      </g>
     </g>
    </g>
    <g id="ytick_16">
     <g id="line2d_49">
      <path d="M 47.178365 75.823419 
L 433.0675 75.823419 
" clip-path="url(#p44f9e1a88a)" style="fill: none; stroke: #b0b0b0; stroke-opacity: 0.25; stroke-width: 0.8; stroke-linecap: square"/>
     </g>
     <g id="line2d_50">
      <g>
       <use xlink:href="#m6189db38dc" x="47.178365" y="75.823419" style="stroke: #000000; stroke-width: 0.6"/>
      </g>
     </g>
    </g>
    <g id="ytick_17">
     <g id="line2d_51">
      <path d="M 47.178365 63.437704 
L 433.0675 63.437704 
" clip-path="url(#p44f9e1a88a)" style="fill: none; stroke: #b0b0b0; stroke-opacity: 0.25; stroke-width: 0.8; stroke-linecap: square"/>
     </g>
     <g id="line2d_52">
      <g>
       <use xlink:href="#m6189db38dc" x="47.178365" y="63.437704" style="stroke: #000000; stroke-width: 0.6"/>
      </g>
     </g>
    </g>
    <g id="ytick_18">
     <g id="line2d_53">
      <path d="M 47.178365 53.317838 
L 433.0675 53.317838 
" clip-path="url(#p44f9e1a88a)" style="fill: none; stroke: #b0b0b0; stroke-opacity: 0.25; stroke-width: 0.8; stroke-linecap: square"/>
     </g>
     <g id="line2d_54">
      <g>
       <use xlink:href="#m6189db38dc" x="47.178365" y="53.317838" style="stroke: #000000; stroke-width: 0.6"/>
      </g>
     </g>
    </g>
    <g id="ytick_19">
     <g id="line2d_55">
      <path d="M 47.178365 44.761613 
L 433.0675 44.761613 
" clip-path="url(#p44f9e1a88a)" style="fill: none; stroke: #b0b0b0; stroke-opacity: 0.25; stroke-width: 0.8; stroke-linecap: square"/>
     </g>
     <g id="line2d_56">
      <g>
       <use xlink:href="#m6189db38dc" x="47.178365" y="44.761613" style="stroke: #000000; stroke-width: 0.6"/>
      </g>
     </g>
    </g>
    <g id="ytick_20">
     <g id="line2d_57">
      <path d="M 47.178365 37.349874 
L 433.0675 37.349874 
" clip-path="url(#p44f9e1a88a)" style="fill: none; stroke: #b0b0b0; stroke-opacity: 0.25; stroke-width: 0.8; stroke-linecap: square"/>
     </g>
     <g id="line2d_58">
      <g>
       <use xlink:href="#m6189db38dc" x="47.178365" y="37.349874" style="stroke: #000000; stroke-width: 0.6"/>
      </g>
     </g>
    </g>
    <g id="ytick_21">
     <g id="line2d_59">
      <path d="M 47.178365 30.812256 
L 433.0675 30.812256 
" clip-path="url(#p44f9e1a88a)" style="fill: none; stroke: #b0b0b0; stroke-opacity: 0.25; stroke-width: 0.8; stroke-linecap: square"/>
     </g>
     <g id="line2d_60">
      <g>
       <use xlink:href="#m6189db38dc" x="47.178365" y="30.812256" style="stroke: #000000; stroke-width: 0.6"/>
      </g>
     </g>
    </g>
    <g id="text_14">
     <!-- weighted BC loss (log scale) -->
     <g transform="translate(10.598678 228.345781) rotate(-90) scale(0.1 -0.1)">
      <defs>
       <path id="DejaVuSans-77" d="M 269 3500 
L 844 3500 
L 1563 769 
L 2278 3500 
L 2956 3500 
L 3675 769 
L 4391 3500 
L 4966 3500 
L 4050 0 
L 3372 0 
L 2619 2869 
L 1863 0 
L 1184 0 
L 269 3500 
z
" transform="scale(0.015625)"/>
       <path id="DejaVuSans-69" d="M 603 3500 
L 1178 3500 
L 1178 0 
L 603 0 
L 603 3500 
z
M 603 4863 
L 1178 4863 
L 1178 4134 
L 603 4134 
L 603 4863 
z
" transform="scale(0.015625)"/>
       <path id="DejaVuSans-67" d="M 2906 1791 
Q 2906 2416 2648 2759 
Q 2391 3103 1925 3103 
Q 1463 3103 1205 2759 
Q 947 2416 947 1791 
Q 947 1169 1205 825 
Q 1463 481 1925 481 
Q 2391 481 2648 825 
Q 2906 1169 2906 1791 
z
M 3481 434 
Q 3481 -459 3084 -895 
Q 2688 -1331 1869 -1331 
Q 1566 -1331 1297 -1286 
Q 1028 -1241 775 -1147 
L 775 -588 
Q 1028 -725 1275 -790 
Q 1522 -856 1778 -856 
Q 2344 -856 2625 -561 
Q 2906 -266 2906 331 
L 2906 616 
Q 2728 306 2450 153 
Q 2172 0 1784 0 
Q 1141 0 747 490 
Q 353 981 353 1791 
Q 353 2603 747 3093 
Q 1141 3584 1784 3584 
Q 2172 3584 2450 3431 
Q 2728 3278 2906 2969 
L 2906 3500 
L 3481 3500 
L 3481 434 
z
" transform="scale(0.015625)"/>
       <path id="DejaVuSans-74" d="M 1172 4494 
L 1172 3500 
L 2356 3500 
L 2356 3053 
L 1172 3053 
L 1172 1153 
Q 1172 725 1289 603 
Q 1406 481 1766 481 
L 2356 481 
L 2356 0 
L 1766 0 
Q 1100 0 847 248 
Q 594 497 594 1153 
L 594 3053 
L 172 3053 
L 172 3500 
L 594 3500 
L 594 4494 
L 1172 4494 
z
" transform="scale(0.015625)"/>
       <path id="DejaVuSans-64" d="M 2906 2969 
L 2906 4863 
L 3481 4863 
L 3481 0 
L 2906 0 
L 2906 525 
Q 2725 213 2448 61 
Q 2172 -91 1784 -91 
Q 1150 -91 751 415 
Q 353 922 353 1747 
Q 353 2572 751 3078 
Q 1150 3584 1784 3584 
Q 2172 3584 2448 3432 
Q 2725 3281 2906 2969 
z
M 947 1747 
Q 947 1113 1208 752 
Q 1469 391 1925 391 
Q 2381 391 2643 752 
Q 2906 1113 2906 1747 
Q 2906 2381 2643 2742 
Q 2381 3103 1925 3103 
Q 1469 3103 1208 2742 
Q 947 2381 947 1747 
z
" transform="scale(0.015625)"/>
       <path id="DejaVuSans-20" transform="scale(0.015625)"/>
       <path id="DejaVuSans-42" d="M 1259 2228 
L 1259 519 
L 2272 519 
Q 2781 519 3026 730 
Q 3272 941 3272 1375 
Q 3272 1813 3026 2020 
Q 2781 2228 2272 2228 
L 1259 2228 
z
M 1259 4147 
L 1259 2741 
L 2194 2741 
Q 2656 2741 2882 2914 
Q 3109 3088 3109 3444 
Q 3109 3797 2882 3972 
Q 2656 4147 2194 4147 
L 1259 4147 
z
M 628 4666 
L 2241 4666 
Q 2963 4666 3353 4366 
Q 3744 4066 3744 3513 
Q 3744 3084 3544 2831 
Q 3344 2578 2956 2516 
Q 3422 2416 3680 2098 
Q 3938 1781 3938 1306 
Q 3938 681 3513 340 
Q 3088 0 2303 0 
L 628 0 
L 628 4666 
z
" transform="scale(0.015625)"/>
       <path id="DejaVuSans-43" d="M 4122 4306 
L 4122 3641 
Q 3803 3938 3442 4084 
Q 3081 4231 2675 4231 
Q 1875 4231 1450 3742 
Q 1025 3253 1025 2328 
Q 1025 1406 1450 917 
Q 1875 428 2675 428 
Q 3081 428 3442 575 
Q 3803 722 4122 1019 
L 4122 359 
Q 3791 134 3420 21 
Q 3050 -91 2638 -91 
Q 1578 -91 968 557 
Q 359 1206 359 2328 
Q 359 3453 968 4101 
Q 1578 4750 2638 4750 
Q 3056 4750 3426 4639 
Q 3797 4528 4122 4306 
z
" transform="scale(0.015625)"/>
       <path id="DejaVuSans-6c" d="M 603 4863 
L 1178 4863 
L 1178 0 
L 603 0 
L 603 4863 
z
" transform="scale(0.015625)"/>
       <path id="DejaVuSans-73" d="M 2834 3397 
L 2834 2853 
Q 2591 2978 2328 3040 
Q 2066 3103 1784 3103 
Q 1356 3103 1142 2972 
Q 928 2841 928 2578 
Q 928 2378 1081 2264 
Q 1234 2150 1697 2047 
L 1894 2003 
Q 2506 1872 2764 1633 
Q 3022 1394 3022 966 
Q 3022 478 2636 193 
Q 2250 -91 1575 -91 
Q 1294 -91 989 -36 
Q 684 19 347 128 
L 347 722 
Q 666 556 975 473 
Q 1284 391 1588 391 
Q 1994 391 2212 530 
Q 2431 669 2431 922 
Q 2431 1156 2273 1281 
Q 2116 1406 1581 1522 
L 1381 1569 
Q 847 1681 609 1914 
Q 372 2147 372 2553 
Q 372 3047 722 3315 
Q 1072 3584 1716 3584 
Q 2034 3584 2315 3537 
Q 2597 3491 2834 3397 
z
" transform="scale(0.015625)"/>
       <path id="DejaVuSans-28" d="M 1984 4856 
Q 1566 4138 1362 3434 
Q 1159 2731 1159 2009 
Q 1159 1288 1364 580 
Q 1569 -128 1984 -844 
L 1484 -844 
Q 1016 -109 783 600 
Q 550 1309 550 2009 
Q 550 2706 781 3412 
Q 1013 4119 1484 4856 
L 1984 4856 
z
" transform="scale(0.015625)"/>
       <path id="DejaVuSans-61" d="M 2194 1759 
Q 1497 1759 1228 1600 
Q 959 1441 959 1056 
Q 959 750 1161 570 
Q 1363 391 1709 391 
Q 2188 391 2477 730 
Q 2766 1069 2766 1631 
L 2766 1759 
L 2194 1759 
z
M 3341 1997 
L 3341 0 
L 2766 0 
L 2766 531 
Q 2569 213 2275 61 
Q 1981 -91 1556 -91 
Q 1019 -91 701 211 
Q 384 513 384 1019 
Q 384 1609 779 1909 
Q 1175 2209 1959 2209 
L 2766 2209 
L 2766 2266 
Q 2766 2663 2505 2880 
Q 2244 3097 1772 3097 
Q 1472 3097 1187 3025 
Q 903 2953 641 2809 
L 641 3341 
Q 956 3463 1253 3523 
Q 1550 3584 1831 3584 
Q 2591 3584 2966 3190 
Q 3341 2797 3341 1997 
z
" transform="scale(0.015625)"/>
       <path id="DejaVuSans-29" d="M 513 4856 
L 1013 4856 
Q 1481 4119 1714 3412 
Q 1947 2706 1947 2009 
Q 1947 1309 1714 600 
Q 1481 -109 1013 -844 
L 513 -844 
Q 928 -128 1133 580 
Q 1338 1288 1338 2009 
Q 1338 2731 1133 3434 
Q 928 4138 513 4856 
z
" transform="scale(0.015625)"/>
      </defs>
      <use xlink:href="#DejaVuSans-77"/>
      <use xlink:href="#DejaVuSans-65" x="81.787109"/>
      <use xlink:href="#DejaVuSans-69" x="143.310547"/>
      <use xlink:href="#DejaVuSans-67" x="171.09375"/>
      <use xlink:href="#DejaVuSans-68" x="234.570312"/>
      <use xlink:href="#DejaVuSans-74" x="297.949219"/>
      <use xlink:href="#DejaVuSans-65" x="337.158203"/>
      <use xlink:href="#DejaVuSans-64" x="398.681641"/>
      <use xlink:href="#DejaVuSans-20" x="462.158203"/>
      <use xlink:href="#DejaVuSans-42" x="493.945312"/>
      <use xlink:href="#DejaVuSans-43" x="560.798828"/>
      <use xlink:href="#DejaVuSans-20" x="630.623047"/>
      <use xlink:href="#DejaVuSans-6c" x="662.410156"/>
      <use xlink:href="#DejaVuSans-6f" x="690.193359"/>
      <use xlink:href="#DejaVuSans-73" x="751.375"/>
      <use xlink:href="#DejaVuSans-73" x="803.474609"/>
      <use xlink:href="#DejaVuSans-20" x="855.574219"/>
      <use xlink:href="#DejaVuSans-28" x="887.361328"/>
      <use xlink:href="#DejaVuSans-6c" x="926.375"/>
      <use xlink:href="#DejaVuSans-6f" x="954.158203"/>
      <use xlink:href="#DejaVuSans-67" x="1015.339844"/>
      <use xlink:href="#DejaVuSans-20" x="1078.816406"/>
      <use xlink:href="#DejaVuSans-73" x="1110.603516"/>
      <use xlink:href="#DejaVuSans-63" x="1162.703125"/>
      <use xlink:href="#DejaVuSans-61" x="1217.683594"/>
      <use xlink:href="#DejaVuSans-6c" x="1278.962891"/>
      <use xlink:href="#DejaVuSans-65" x="1306.746094"/>
      <use xlink:href="#DejaVuSans-29" x="1368.269531"/>
     </g>
    </g>
   </g>
   <g id="line2d_61">
    <path d="M 64.71878 30.833144 
L 66.967551 89.738879 
L 69.216323 113.94869 
L 71.465094 130.515648 
L 73.713865 144.941499 
L 75.962636 157.37009 
L 78.211407 168.956127 
L 82.70895 194.18617 
L 84.957721 203.367479 
L 87.206492 210.990527 
L 89.455263 217.696751 
L 91.704034 223.541342 
L 93.952806 228.223877 
L 96.201577 229.870715 
L 98.450348 232.830416 
L 100.699119 241.213705 
L 102.94789 242.003613 
L 105.196662 234.678857 
L 107.445433 237.204677 
L 109.694204 243.784833 
L 111.942975 248.750905 
L 114.191746 249.400892 
L 116.440517 247.95693 
L 118.689289 250.034771 
L 120.93806 253.66191 
L 123.186831 254.848777 
L 125.435602 253.940326 
L 127.684373 252.410319 
L 129.933145 256.666319 
L 132.181916 257.878743 
L 134.430687 255.584121 
L 136.679458 256.685393 
L 138.928229 259.01449 
L 141.177 258.414896 
L 143.425772 259.194071 
L 145.674543 260.114739 
L 147.923314 261.351268 
L 150.172085 259.67874 
L 152.420856 260.039518 
L 154.669628 264.879173 
L 156.918399 262.874245 
L 159.16717 264.379152 
L 161.415941 261.812417 
L 163.664712 262.415993 
L 165.913483 262.23853 
L 168.162255 263.430811 
L 170.411026 265.556125 
L 172.659797 265.787255 
L 174.908568 267.167214 
L 177.157339 268.234994 
L 179.406111 264.865904 
L 181.654882 263.313058 
L 183.903653 256.641796 
L 186.152424 262.518357 
L 188.401195 264.293735 
L 190.649966 268.977438 
L 192.898738 265.640923 
L 195.147509 268.987186 
L 197.39628 265.841157 
L 199.645051 265.760608 
L 201.893822 267.551778 
L 204.142594 269.974591 
L 206.391365 266.9315 
L 208.640136 270.481173 
L 210.888907 269.39377 
L 213.137678 267.523128 
L 215.386449 266.079192 
L 217.635221 266.548274 
L 219.883992 265.125717 
L 222.132763 268.169388 
L 224.381534 268.358217 
L 226.630305 268.80483 
L 228.879077 269.644399 
L 233.376619 272.584798 
L 235.62539 272.819296 
L 237.874161 274.683342 
L 240.122932 272.487196 
L 242.371704 265.87046 
L 244.620475 271.174518 
L 246.869246 269.956469 
L 249.118017 266.121541 
L 251.366788 263.041026 
L 255.864331 275.491664 
L 258.113102 272.13488 
L 260.361873 274.693321 
L 262.610644 272.01839 
L 264.859416 271.14416 
L 267.108187 272.408434 
L 269.356958 273.294358 
L 271.605729 270.833936 
L 273.8545 264.20127 
L 276.103271 264.971697 
L 278.352043 272.582338 
L 280.600814 277.208289 
L 282.849585 277.385804 
L 285.098356 276.775546 
L 287.347127 275.236657 
L 289.595899 266.88051 
L 291.84467 268.279678 
L 294.093441 272.36124 
L 296.342212 273.862047 
L 300.839754 275.021293 
L 303.088526 277.400387 
L 305.337297 278.12781 
L 307.586068 279.423872 
L 309.834839 278.910172 
L 312.08361 276.588775 
L 314.332382 278.054961 
L 316.581153 277.654856 
L 318.829924 278.209131 
L 321.078695 277.418877 
L 323.327466 281.098103 
L 325.576237 282.455457 
L 327.825009 281.565805 
L 330.07378 279.261029 
L 332.322551 276.631788 
L 334.571322 268.131786 
L 336.820093 279.799504 
L 339.068865 275.91866 
L 341.317636 277.109776 
L 343.566407 281.058209 
L 345.815178 282.594012 
L 350.31272 278.887541 
L 352.561492 281.812716 
L 354.810263 280.610776 
L 357.059034 282.674528 
L 359.307805 279.905108 
L 361.556576 278.471615 
L 363.805348 269.578691 
L 366.054119 275.250238 
L 368.30289 282.499682 
L 370.551661 282.586844 
L 372.800432 281.229753 
L 375.049203 282.100341 
L 377.297975 281.184171 
L 379.546746 276.482035 
L 381.795517 279.441522 
L 384.044288 278.146819 
L 386.293059 278.572113 
L 388.541831 283.688074 
L 390.790602 281.041455 
L 393.039373 280.996817 
L 395.288144 277.084469 
L 397.536915 276.88761 
L 402.034458 273.137015 
L 404.283229 282.41447 
L 406.532 285.128731 
L 408.780771 279.011424 
L 411.029542 279.166034 
L 413.278314 280.865918 
L 415.527085 281.833847 
L 415.527085 281.833847 
" clip-path="url(#p44f9e1a88a)" style="fill: none; stroke: #1f77b4; stroke-width: 1.6; stroke-linecap: square"/>
   </g>
   <g id="line2d_62">
    <path d="M 64.71878 66.466794 
L 66.967551 91.046415 
L 69.216323 104.439405 
L 71.465094 114.726998 
L 73.713865 121.116039 
L 75.962636 126.865842 
L 78.211407 132.276929 
L 80.460179 138.43997 
L 82.70895 142.168199 
L 84.957721 145.015084 
L 87.206492 147.240364 
L 89.455263 147.814287 
L 91.704034 148.54294 
L 93.952806 148.707765 
L 96.201577 147.48753 
L 98.450348 149.689919 
L 100.699119 150.407795 
L 102.94789 150.443428 
L 105.196662 149.124459 
L 107.445433 150.3722 
L 109.694204 150.776721 
L 111.942975 150.127934 
L 114.191746 150.665572 
L 116.440517 150.729484 
L 118.689289 150.574218 
L 120.93806 151.96174 
L 123.186831 151.206427 
L 125.435602 151.710186 
L 127.684373 151.210525 
L 129.933145 151.792917 
L 132.181916 152.047139 
L 134.430687 151.415149 
L 136.679458 152.29392 
L 138.928229 152.677495 
L 141.177 152.288019 
L 143.425772 150.920447 
L 145.674543 152.444435 
L 147.923314 151.913088 
L 150.172085 152.393987 
L 152.420856 152.692857 
L 154.669628 153.1893 
L 156.918399 152.861945 
L 159.16717 152.421707 
L 163.664712 152.57838 
L 165.913483 152.392571 
L 168.162255 152.765172 
L 170.411026 151.745007 
L 172.659797 153.070983 
L 174.908568 153.342417 
L 177.157339 152.687771 
L 179.406111 152.948074 
L 181.654882 152.77881 
L 183.903653 152.901727 
L 186.152424 152.49026 
L 190.649966 153.44441 
L 192.898738 152.977098 
L 195.147509 153.407613 
L 197.39628 153.222893 
L 199.645051 152.4166 
L 201.893822 153.790457 
L 204.142594 152.247387 
L 206.391365 153.222533 
L 208.640136 152.629415 
L 210.888907 152.827979 
L 213.137678 153.330892 
L 215.386449 153.005168 
L 217.635221 152.220997 
L 219.883992 152.883844 
L 222.132763 153.42041 
L 224.381534 153.534085 
L 226.630305 153.112192 
L 228.879077 153.431611 
L 231.127848 153.541791 
L 233.376619 153.51559 
L 235.62539 153.247439 
L 237.874161 153.411584 
L 240.122932 152.702056 
L 242.371704 153.843939 
L 244.620475 153.2426 
L 246.869246 151.503064 
L 249.118017 152.150593 
L 253.61556 152.819729 
L 255.864331 153.381865 
L 258.113102 152.803803 
L 260.361873 153.858252 
L 262.610644 152.8495 
L 264.859416 152.866011 
L 267.108187 153.071533 
L 269.356958 153.594083 
L 271.605729 151.713676 
L 273.8545 152.662603 
L 276.103271 152.842135 
L 278.352043 153.631653 
L 282.849585 153.340757 
L 287.347127 153.035995 
L 289.595899 153.798638 
L 291.84467 153.182365 
L 294.093441 153.170608 
L 296.342212 153.640788 
L 298.590983 153.09612 
L 300.839754 153.556657 
L 305.337297 154.208587 
L 307.586068 152.871547 
L 309.834839 153.153675 
L 312.08361 153.69514 
L 314.332382 153.203316 
L 316.581153 154.133191 
L 318.829924 152.992279 
L 321.078695 153.463754 
L 323.327466 153.497713 
L 325.576237 153.297751 
L 327.825009 152.577829 
L 330.07378 152.805614 
L 332.322551 152.494837 
L 334.571322 153.40473 
L 336.820093 153.057548 
L 339.068865 152.835371 
L 341.317636 153.33096 
L 343.566407 153.636575 
L 345.815178 153.439768 
L 348.063949 154.243041 
L 350.31272 153.122985 
L 352.561492 153.885969 
L 354.810263 153.417491 
L 357.059034 153.11786 
L 359.307805 153.133338 
L 361.556576 152.182303 
L 363.805348 152.493589 
L 366.054119 153.203781 
L 368.30289 153.453206 
L 370.551661 152.567028 
L 372.800432 153.150396 
L 375.049203 153.004694 
L 377.297975 153.542055 
L 379.546746 153.370707 
L 381.795517 153.016082 
L 384.044288 152.941101 
L 386.293059 152.690632 
L 388.541831 153.706705 
L 390.790602 152.796808 
L 393.039373 152.786141 
L 395.288144 152.236544 
L 397.536915 152.438684 
L 402.034458 152.580001 
L 404.283229 153.548501 
L 406.532 152.535604 
L 408.780771 153.153906 
L 411.029542 153.513249 
L 413.278314 152.411134 
L 415.527085 153.303915 
L 415.527085 153.303915 
" clip-path="url(#p44f9e1a88a)" style="fill: none; stroke: #ff7f0e; stroke-width: 1.6; stroke-linecap: square"/>
   </g>
   <g id="patch_3">
    <path d="M 47.178365 297.84351 
L 47.178365 18.118365 
" style="fill: none; stroke: #000000; stroke-width: 0.8; stroke-linejoin: miter; stroke-linecap: square"/>
   </g>
   <g id="patch_4">
    <path d="M 433.0675 297.84351 
L 433.0675 18.118365 
" style="fill: none; stroke: #000000; stroke-width: 0.8; stroke-linejoin: miter; stroke-linecap: square"/>
   </g>
   <g id="patch_5">
    <path d="M 47.178365 297.84351 
L 433.0675 297.84351 
" style="fill: none; stroke: #000000; stroke-width: 0.8; stroke-linejoin: miter; stroke-linecap: square"/>
   </g>
   <g id="patch_6">
    <path d="M 47.178365 18.118365 
L 433.0675 18.118365 
" style="fill: none; stroke: #000000; stroke-width: 0.8; stroke-linejoin: miter; stroke-linecap: square"/>
   </g>
   <g id="text_15">
    <!-- Three-object BC training -->
    <g transform="translate(166.914495 12.118365) scale(0.12 -0.12)">
     <defs>
      <path id="DejaVuSans-54" d="M -19 4666 
L 3928 4666 
L 3928 4134 
L 2272 4134 
L 2272 0 
L 1638 0 
L 1638 4134 
L -19 4134 
L -19 4666 
z
" transform="scale(0.015625)"/>
      <path id="DejaVuSans-72" d="M 2631 2963 
Q 2534 3019 2420 3045 
Q 2306 3072 2169 3072 
Q 1681 3072 1420 2755 
Q 1159 2438 1159 1844 
L 1159 0 
L 581 0 
L 581 3500 
L 1159 3500 
L 1159 2956 
Q 1341 3275 1631 3429 
Q 1922 3584 2338 3584 
Q 2397 3584 2469 3576 
Q 2541 3569 2628 3553 
L 2631 2963 
z
" transform="scale(0.015625)"/>
      <path id="DejaVuSans-2d" d="M 313 2009 
L 1997 2009 
L 1997 1497 
L 313 1497 
L 313 2009 
z
" transform="scale(0.015625)"/>
      <path id="DejaVuSans-62" d="M 3116 1747 
Q 3116 2381 2855 2742 
Q 2594 3103 2138 3103 
Q 1681 3103 1420 2742 
Q 1159 2381 1159 1747 
Q 1159 1113 1420 752 
Q 1681 391 2138 391 
Q 2594 391 2855 752 
Q 3116 1113 3116 1747 
z
M 1159 2969 
Q 1341 3281 1617 3432 
Q 1894 3584 2278 3584 
Q 2916 3584 3314 3078 
Q 3713 2572 3713 1747 
Q 3713 922 3314 415 
Q 2916 -91 2278 -91 
Q 1894 -91 1617 61 
Q 1341 213 1159 525 
L 1159 0 
L 581 0 
L 581 4863 
L 1159 4863 
L 1159 2969 
z
" transform="scale(0.015625)"/>
      <path id="DejaVuSans-6a" d="M 603 3500 
L 1178 3500 
L 1178 -63 
Q 1178 -731 923 -1031 
Q 669 -1331 103 -1331 
L -116 -1331 
L -116 -844 
L 38 -844 
Q 366 -844 484 -692 
Q 603 -541 603 -63 
L 603 3500 
z
M 603 4863 
L 1178 4863 
L 1178 4134 
L 603 4134 
L 603 4863 
z
" transform="scale(0.015625)"/>
      <path id="DejaVuSans-6e" d="M 3513 2113 
L 3513 0 
L 2938 0 
L 2938 2094 
Q 2938 2591 2744 2837 
Q 2550 3084 2163 3084 
Q 1697 3084 1428 2787 
Q 1159 2491 1159 1978 
L 1159 0 
L 581 0 
L 581 3500 
L 1159 3500 
L 1159 2956 
Q 1366 3272 1645 3428 
Q 1925 3584 2291 3584 
Q 2894 3584 3203 3211 
Q 3513 2838 3513 2113 
z
" transform="scale(0.015625)"/>
     </defs>
     <use xlink:href="#DejaVuSans-54"/>
     <use xlink:href="#DejaVuSans-68" x="61.083984"/>
     <use xlink:href="#DejaVuSans-72" x="124.462891"/>
     <use xlink:href="#DejaVuSans-65" x="163.326172"/>
     <use xlink:href="#DejaVuSans-65" x="224.849609"/>
     <use xlink:href="#DejaVuSans-2d" x="286.373047"/>
     <use xlink:href="#DejaVuSans-6f" x="324.332031"/>
     <use xlink:href="#DejaVuSans-62" x="385.513672"/>
     <use xlink:href="#DejaVuSans-6a" x="448.990234"/>
     <use xlink:href="#DejaVuSans-65" x="476.773438"/>
     <use xlink:href="#DejaVuSans-63" x="538.296875"/>
     <use xlink:href="#DejaVuSans-74" x="593.277344"/>
     <use xlink:href="#DejaVuSans-20" x="632.486328"/>
     <use xlink:href="#DejaVuSans-42" x="664.273438"/>
     <use xlink:href="#DejaVuSans-43" x="731.126953"/>
     <use xlink:href="#DejaVuSans-20" x="800.951172"/>
     <use xlink:href="#DejaVuSans-74" x="832.738281"/>
     <use xlink:href="#DejaVuSans-72" x="871.947266"/>
     <use xlink:href="#DejaVuSans-61" x="913.060547"/>
     <use xlink:href="#DejaVuSans-69" x="974.339844"/>
     <use xlink:href="#DejaVuSans-6e" x="1002.123047"/>
     <use xlink:href="#DejaVuSans-69" x="1065.501953"/>
     <use xlink:href="#DejaVuSans-6e" x="1093.285156"/>
     <use xlink:href="#DejaVuSans-67" x="1156.664062"/>
    </g>
   </g>
   <g id="PathCollection_1">
    <defs>
     <path id="m2e13451204" d="M 0 -5.477226 
L -1.229714 -1.692556 
L -5.209151 -1.692556 
L -1.989719 0.646499 
L -3.219432 4.431169 
L -0 2.092114 
L 3.219432 4.431169 
L 1.989719 0.646499 
L 5.209151 -1.692556 
L 1.229714 -1.692556 
z
" style="stroke: #1f77b4"/>
    </defs>
    <g clip-path="url(#p44f9e1a88a)">
     <use xlink:href="#m2e13451204" x="348.063949" y="154.243041" style="fill: #1f77b4; stroke: #1f77b4"/>
    </g>
   </g>
   <g id="legend_1">
    <g id="patch_7">
     <path d="M 305.4925 70.15274 
L 426.0675 70.15274 
Q 428.0675 70.15274 428.0675 68.15274 
L 428.0675 25.118365 
Q 428.0675 23.118365 426.0675 23.118365 
L 305.4925 23.118365 
Q 303.4925 23.118365 303.4925 25.118365 
L 303.4925 68.15274 
Q 303.4925 70.15274 305.4925 70.15274 
z
" style="fill: #ffffff; opacity: 0.8; stroke: #cccccc; stroke-linejoin: miter"/>
    </g>
    <g id="line2d_63">
     <path d="M 307.4925 31.216802 
L 317.4925 31.216802 
L 327.4925 31.216802 
" style="fill: none; stroke: #1f77b4; stroke-width: 1.6; stroke-linecap: square"/>
    </g>
    <g id="text_16">
     <!-- train BC loss -->
     <g transform="translate(335.4925 34.716802) scale(0.1 -0.1)">
      <use xlink:href="#DejaVuSans-74"/>
      <use xlink:href="#DejaVuSans-72" x="39.208984"/>
      <use xlink:href="#DejaVuSans-61" x="80.322266"/>
      <use xlink:href="#DejaVuSans-69" x="141.601562"/>
      <use xlink:href="#DejaVuSans-6e" x="169.384766"/>
      <use xlink:href="#DejaVuSans-20" x="232.763672"/>
      <use xlink:href="#DejaVuSans-42" x="264.550781"/>
      <use xlink:href="#DejaVuSans-43" x="331.404297"/>
      <use xlink:href="#DejaVuSans-20" x="401.228516"/>
      <use xlink:href="#DejaVuSans-6c" x="433.015625"/>
      <use xlink:href="#DejaVuSans-6f" x="460.798828"/>
      <use xlink:href="#DejaVuSans-73" x="521.980469"/>
      <use xlink:href="#DejaVuSans-73" x="574.080078"/>
     </g>
    </g>
    <g id="line2d_64">
     <path d="M 307.4925 45.894927 
L 317.4925 45.894927 
L 327.4925 45.894927 
" style="fill: none; stroke: #ff7f0e; stroke-width: 1.6; stroke-linecap: square"/>
    </g>
    <g id="text_17">
     <!-- validation BC loss -->
     <g transform="translate(335.4925 49.394927) scale(0.1 -0.1)">
      <defs>
       <path id="DejaVuSans-76" d="M 191 3500 
L 800 3500 
L 1894 563 
L 2988 3500 
L 3597 3500 
L 2284 0 
L 1503 0 
L 191 3500 
z
" transform="scale(0.015625)"/>
      </defs>
      <use xlink:href="#DejaVuSans-76"/>
      <use xlink:href="#DejaVuSans-61" x="59.179688"/>
      <use xlink:href="#DejaVuSans-6c" x="120.458984"/>
      <use xlink:href="#DejaVuSans-69" x="148.242188"/>
      <use xlink:href="#DejaVuSans-64" x="176.025391"/>
      <use xlink:href="#DejaVuSans-61" x="239.501953"/>
      <use xlink:href="#DejaVuSans-74" x="300.78125"/>
      <use xlink:href="#DejaVuSans-69" x="339.990234"/>
      <use xlink:href="#DejaVuSans-6f" x="367.773438"/>
      <use xlink:href="#DejaVuSans-6e" x="428.955078"/>
      <use xlink:href="#DejaVuSans-20" x="492.333984"/>
      <use xlink:href="#DejaVuSans-42" x="524.121094"/>
      <use xlink:href="#DejaVuSans-43" x="590.974609"/>
      <use xlink:href="#DejaVuSans-20" x="660.798828"/>
      <use xlink:href="#DejaVuSans-6c" x="692.585938"/>
      <use xlink:href="#DejaVuSans-6f" x="720.369141"/>
      <use xlink:href="#DejaVuSans-73" x="781.550781"/>
      <use xlink:href="#DejaVuSans-73" x="833.650391"/>
     </g>
    </g>
    <g id="PathCollection_2">
     <g>
      <use xlink:href="#m2e13451204" x="317.4925" y="61.448052" style="fill: #1f77b4; stroke: #1f77b4"/>
     </g>
    </g>
    <g id="text_18">
     <!-- best checkpoint -->
     <g transform="translate(335.4925 64.073052) scale(0.1 -0.1)">
      <defs>
       <path id="DejaVuSans-6b" d="M 581 4863 
L 1159 4863 
L 1159 1991 
L 2875 3500 
L 3609 3500 
L 1753 1863 
L 3688 0 
L 2938 0 
L 1159 1709 
L 1159 0 
L 581 0 
L 581 4863 
z
" transform="scale(0.015625)"/>
      </defs>
      <use xlink:href="#DejaVuSans-62"/>
      <use xlink:href="#DejaVuSans-65" x="63.476562"/>
      <use xlink:href="#DejaVuSans-73" x="125"/>
      <use xlink:href="#DejaVuSans-74" x="177.099609"/>
      <use xlink:href="#DejaVuSans-20" x="216.308594"/>
      <use xlink:href="#DejaVuSans-63" x="248.095703"/>
      <use xlink:href="#DejaVuSans-68" x="303.076172"/>
      <use xlink:href="#DejaVuSans-65" x="366.455078"/>
      <use xlink:href="#DejaVuSans-63" x="427.978516"/>
      <use xlink:href="#DejaVuSans-6b" x="482.958984"/>
      <use xlink:href="#DejaVuSans-70" x="540.869141"/>
      <use xlink:href="#DejaVuSans-6f" x="604.345703"/>
      <use xlink:href="#DejaVuSans-69" x="665.527344"/>
      <use xlink:href="#DejaVuSans-6e" x="693.310547"/>
      <use xlink:href="#DejaVuSans-74" x="756.689453"/>
     </g>
    </g>
   </g>
  </g>
  <g id="axes_2">
   <g id="patch_8">
    <path d="M 475.110625 297.84351 
L 860.99976 297.84351 
L 860.99976 18.118365 
L 475.110625 18.118365 
z
" style="fill: #ffffff"/>
   </g>
   <g id="patch_9">
    <path d="M 492.65104 297.84351 
L 539.081551 297.84351 
L 539.081551 262.877867 
L 492.65104 262.877867 
z
" clip-path="url(#p5e2ffd923a)" style="fill: #1f77b4"/>
   </g>
   <g id="patch_10">
    <path d="M 621.624682 297.84351 
L 668.055192 297.84351 
L 668.055192 297.84351 
L 621.624682 297.84351 
z
" clip-path="url(#p5e2ffd923a)" style="fill: #1f77b4"/>
   </g>
   <g id="patch_11">
    <path d="M 750.598323 297.84351 
L 797.028834 297.84351 
L 797.028834 297.84351 
L 750.598323 297.84351 
z
" clip-path="url(#p5e2ffd923a)" style="fill: #1f77b4"/>
   </g>
   <g id="patch_12">
    <path d="M 539.081551 297.84351 
L 585.512062 297.84351 
L 585.512062 157.980937 
L 539.081551 157.980937 
z
" clip-path="url(#p5e2ffd923a)" style="fill: #ff7f0e"/>
   </g>
   <g id="patch_13">
    <path d="M 668.055192 297.84351 
L 714.485703 297.84351 
L 714.485703 297.84351 
L 668.055192 297.84351 
z
" clip-path="url(#p5e2ffd923a)" style="fill: #ff7f0e"/>
   </g>
   <g id="patch_14">
    <path d="M 797.028834 297.84351 
L 843.459345 297.84351 
L 843.459345 53.084008 
L 797.028834 53.084008 
z
" clip-path="url(#p5e2ffd923a)" style="fill: #ff7f0e"/>
   </g>
   <g id="matplotlib.axis_3">
    <g id="xtick_10">
     <g id="line2d_65">
      <g>
       <use xlink:href="#m67ed1b4b9e" x="539.081551" y="297.84351" style="stroke: #000000; stroke-width: 0.8"/>
      </g>
     </g>
     <g id="text_19">
      <!-- Jar -->
      <g transform="translate(532.48702 312.441947) scale(0.1 -0.1)">
       <defs>
        <path id="DejaVuSans-4a" d="M 628 4666 
L 1259 4666 
L 1259 325 
Q 1259 -519 939 -900 
Q 619 -1281 -91 -1281 
L -331 -1281 
L -331 -750 
L -134 -750 
Q 284 -750 456 -515 
Q 628 -281 628 325 
L 628 4666 
z
" transform="scale(0.015625)"/>
       </defs>
       <use xlink:href="#DejaVuSans-4a"/>
       <use xlink:href="#DejaVuSans-61" x="29.492188"/>
       <use xlink:href="#DejaVuSans-72" x="90.771484"/>
      </g>
     </g>
    </g>
    <g id="xtick_11">
     <g id="line2d_66">
      <g>
       <use xlink:href="#m67ed1b4b9e" x="668.055192" y="297.84351" style="stroke: #000000; stroke-width: 0.8"/>
      </g>
     </g>
     <g id="text_20">
      <!-- Cellphone -->
      <g transform="translate(643.061442 312.441947) scale(0.1 -0.1)">
       <use xlink:href="#DejaVuSans-43"/>
       <use xlink:href="#DejaVuSans-65" x="69.824219"/>
       <use xlink:href="#DejaVuSans-6c" x="131.347656"/>
       <use xlink:href="#DejaVuSans-6c" x="159.130859"/>
       <use xlink:href="#DejaVuSans-70" x="186.914062"/>
       <use xlink:href="#DejaVuSans-68" x="250.390625"/>
       <use xlink:href="#DejaVuSans-6f" x="313.769531"/>
       <use xlink:href="#DejaVuSans-6e" x="374.951172"/>
       <use xlink:href="#DejaVuSans-65" x="438.330078"/>
      </g>
     </g>
    </g>
    <g id="xtick_12">
     <g id="line2d_67">
      <g>
       <use xlink:href="#m67ed1b4b9e" x="797.028834" y="297.84351" style="stroke: #000000; stroke-width: 0.8"/>
      </g>
     </g>
     <g id="text_21">
      <!-- USB stick -->
      <g transform="translate(773.577271 312.441947) scale(0.1 -0.1)">
       <defs>
        <path id="DejaVuSans-55" d="M 556 4666 
L 1191 4666 
L 1191 1831 
Q 1191 1081 1462 751 
Q 1734 422 2344 422 
Q 2950 422 3222 751 
Q 3494 1081 3494 1831 
L 3494 4666 
L 4128 4666 
L 4128 1753 
Q 4128 841 3676 375 
Q 3225 -91 2344 -91 
Q 1459 -91 1007 375 
Q 556 841 556 1753 
L 556 4666 
z
" transform="scale(0.015625)"/>
        <path id="DejaVuSans-53" d="M 3425 4513 
L 3425 3897 
Q 3066 4069 2747 4153 
Q 2428 4238 2131 4238 
Q 1616 4238 1336 4038 
Q 1056 3838 1056 3469 
Q 1056 3159 1242 3001 
Q 1428 2844 1947 2747 
L 2328 2669 
Q 3034 2534 3370 2195 
Q 3706 1856 3706 1288 
Q 3706 609 3251 259 
Q 2797 -91 1919 -91 
Q 1588 -91 1214 -16 
Q 841 59 441 206 
L 441 856 
Q 825 641 1194 531 
Q 1563 422 1919 422 
Q 2459 422 2753 634 
Q 3047 847 3047 1241 
Q 3047 1584 2836 1778 
Q 2625 1972 2144 2069 
L 1759 2144 
Q 1053 2284 737 2584 
Q 422 2884 422 3419 
Q 422 4038 858 4394 
Q 1294 4750 2059 4750 
Q 2388 4750 2728 4690 
Q 3069 4631 3425 4513 
z
" transform="scale(0.015625)"/>
       </defs>
       <use xlink:href="#DejaVuSans-55"/>
       <use xlink:href="#DejaVuSans-53" x="73.193359"/>
       <use xlink:href="#DejaVuSans-42" x="136.669922"/>
       <use xlink:href="#DejaVuSans-20" x="205.273438"/>
       <use xlink:href="#DejaVuSans-73" x="237.060547"/>
       <use xlink:href="#DejaVuSans-74" x="289.160156"/>
       <use xlink:href="#DejaVuSans-69" x="328.369141"/>
       <use xlink:href="#DejaVuSans-63" x="356.152344"/>
       <use xlink:href="#DejaVuSans-6b" x="411.132812"/>
      </g>
     </g>
    </g>
   </g>
   <g id="matplotlib.axis_4">
    <g id="ytick_22">
     <g id="line2d_68">
      <path d="M 475.110625 297.84351 
L 860.99976 297.84351 
" clip-path="url(#p5e2ffd923a)" style="fill: none; stroke: #b0b0b0; stroke-opacity: 0.25; stroke-width: 0.8; stroke-linecap: square"/>
     </g>
     <g id="line2d_69">
      <g>
       <use xlink:href="#mb27efd7ca1" x="475.110625" y="297.84351" style="stroke: #000000; stroke-width: 0.8"/>
      </g>
     </g>
     <g id="text_22">
      <!-- 0 -->
      <g transform="translate(461.748125 301.642729) scale(0.1 -0.1)">
       <use xlink:href="#DejaVuSans-30"/>
      </g>
     </g>
    </g>
    <g id="ytick_23">
     <g id="line2d_70">
      <path d="M 475.110625 262.877867 
L 860.99976 262.877867 
" clip-path="url(#p5e2ffd923a)" style="fill: none; stroke: #b0b0b0; stroke-opacity: 0.25; stroke-width: 0.8; stroke-linecap: square"/>
     </g>
     <g id="line2d_71">
      <g>
       <use xlink:href="#mb27efd7ca1" x="475.110625" y="262.877867" style="stroke: #000000; stroke-width: 0.8"/>
      </g>
     </g>
     <g id="text_23">
      <!-- 5 -->
      <g transform="translate(461.748125 266.677086) scale(0.1 -0.1)">
       <defs>
        <path id="DejaVuSans-35" d="M 691 4666 
L 3169 4666 
L 3169 4134 
L 1269 4134 
L 1269 2991 
Q 1406 3038 1543 3061 
Q 1681 3084 1819 3084 
Q 2600 3084 3056 2656 
Q 3513 2228 3513 1497 
Q 3513 744 3044 326 
Q 2575 -91 1722 -91 
Q 1428 -91 1123 -41 
Q 819 9 494 109 
L 494 744 
Q 775 591 1075 516 
Q 1375 441 1709 441 
Q 2250 441 2565 725 
Q 2881 1009 2881 1497 
Q 2881 1984 2565 2268 
Q 2250 2553 1709 2553 
Q 1456 2553 1204 2497 
Q 953 2441 691 2322 
L 691 4666 
z
" transform="scale(0.015625)"/>
       </defs>
       <use xlink:href="#DejaVuSans-35"/>
      </g>
     </g>
    </g>
    <g id="ytick_24">
     <g id="line2d_72">
      <path d="M 475.110625 227.912224 
L 860.99976 227.912224 
" clip-path="url(#p5e2ffd923a)" style="fill: none; stroke: #b0b0b0; stroke-opacity: 0.25; stroke-width: 0.8; stroke-linecap: square"/>
     </g>
     <g id="line2d_73">
      <g>
       <use xlink:href="#mb27efd7ca1" x="475.110625" y="227.912224" style="stroke: #000000; stroke-width: 0.8"/>
      </g>
     </g>
     <g id="text_24">
      <!-- 10 -->
      <g transform="translate(455.385625 231.711442) scale(0.1 -0.1)">
       <use xlink:href="#DejaVuSans-31"/>
       <use xlink:href="#DejaVuSans-30" x="63.623047"/>
      </g>
     </g>
    </g>
    <g id="ytick_25">
     <g id="line2d_74">
      <path d="M 475.110625 192.946581 
L 860.99976 192.946581 
" clip-path="url(#p5e2ffd923a)" style="fill: none; stroke: #b0b0b0; stroke-opacity: 0.25; stroke-width: 0.8; stroke-linecap: square"/>
     </g>
     <g id="line2d_75">
      <g>
       <use xlink:href="#mb27efd7ca1" x="475.110625" y="192.946581" style="stroke: #000000; stroke-width: 0.8"/>
      </g>
     </g>
     <g id="text_25">
      <!-- 15 -->
      <g transform="translate(455.385625 196.745799) scale(0.1 -0.1)">
       <use xlink:href="#DejaVuSans-31"/>
       <use xlink:href="#DejaVuSans-35" x="63.623047"/>
      </g>
     </g>
    </g>
    <g id="ytick_26">
     <g id="line2d_76">
      <path d="M 475.110625 157.980937 
L 860.99976 157.980937 
" clip-path="url(#p5e2ffd923a)" style="fill: none; stroke: #b0b0b0; stroke-opacity: 0.25; stroke-width: 0.8; stroke-linecap: square"/>
     </g>
     <g id="line2d_77">
      <g>
       <use xlink:href="#mb27efd7ca1" x="475.110625" y="157.980937" style="stroke: #000000; stroke-width: 0.8"/>
      </g>
     </g>
     <g id="text_26">
      <!-- 20 -->
      <g transform="translate(455.385625 161.780156) scale(0.1 -0.1)">
       <use xlink:href="#DejaVuSans-32"/>
       <use xlink:href="#DejaVuSans-30" x="63.623047"/>
      </g>
     </g>
    </g>
    <g id="ytick_27">
     <g id="line2d_78">
      <path d="M 475.110625 123.015294 
L 860.99976 123.015294 
" clip-path="url(#p5e2ffd923a)" style="fill: none; stroke: #b0b0b0; stroke-opacity: 0.25; stroke-width: 0.8; stroke-linecap: square"/>
     </g>
     <g id="line2d_79">
      <g>
       <use xlink:href="#mb27efd7ca1" x="475.110625" y="123.015294" style="stroke: #000000; stroke-width: 0.8"/>
      </g>
     </g>
     <g id="text_27">
      <!-- 25 -->
      <g transform="translate(455.385625 126.814513) scale(0.1 -0.1)">
       <use xlink:href="#DejaVuSans-32"/>
       <use xlink:href="#DejaVuSans-35" x="63.623047"/>
      </g>
     </g>
    </g>
    <g id="ytick_28">
     <g id="line2d_80">
      <path d="M 475.110625 88.049651 
L 860.99976 88.049651 
" clip-path="url(#p5e2ffd923a)" style="fill: none; stroke: #b0b0b0; stroke-opacity: 0.25; stroke-width: 0.8; stroke-linecap: square"/>
     </g>
     <g id="line2d_81">
      <g>
       <use xlink:href="#mb27efd7ca1" x="475.110625" y="88.049651" style="stroke: #000000; stroke-width: 0.8"/>
      </g>
     </g>
     <g id="text_28">
      <!-- 30 -->
      <g transform="translate(455.385625 91.84887) scale(0.1 -0.1)">
       <defs>
        <path id="DejaVuSans-33" d="M 2597 2516 
Q 3050 2419 3304 2112 
Q 3559 1806 3559 1356 
Q 3559 666 3084 287 
Q 2609 -91 1734 -91 
Q 1441 -91 1130 -33 
Q 819 25 488 141 
L 488 750 
Q 750 597 1062 519 
Q 1375 441 1716 441 
Q 2309 441 2620 675 
Q 2931 909 2931 1356 
Q 2931 1769 2642 2001 
Q 2353 2234 1838 2234 
L 1294 2234 
L 1294 2753 
L 1863 2753 
Q 2328 2753 2575 2939 
Q 2822 3125 2822 3475 
Q 2822 3834 2567 4026 
Q 2313 4219 1838 4219 
Q 1578 4219 1281 4162 
Q 984 4106 628 3988 
L 628 4550 
Q 988 4650 1302 4700 
Q 1616 4750 1894 4750 
Q 2613 4750 3031 4423 
Q 3450 4097 3450 3541 
Q 3450 3153 3228 2886 
Q 3006 2619 2597 2516 
z
" transform="scale(0.015625)"/>
       </defs>
       <use xlink:href="#DejaVuSans-33"/>
       <use xlink:href="#DejaVuSans-30" x="63.623047"/>
      </g>
     </g>
    </g>
    <g id="ytick_29">
     <g id="line2d_82">
      <path d="M 475.110625 53.084008 
L 860.99976 53.084008 
" clip-path="url(#p5e2ffd923a)" style="fill: none; stroke: #b0b0b0; stroke-opacity: 0.25; stroke-width: 0.8; stroke-linecap: square"/>
     </g>
     <g id="line2d_83">
      <g>
       <use xlink:href="#mb27efd7ca1" x="475.110625" y="53.084008" style="stroke: #000000; stroke-width: 0.8"/>
      </g>
     </g>
     <g id="text_29">
      <!-- 35 -->
      <g transform="translate(455.385625 56.883227) scale(0.1 -0.1)">
       <use xlink:href="#DejaVuSans-33"/>
       <use xlink:href="#DejaVuSans-35" x="63.623047"/>
      </g>
     </g>
    </g>
    <g id="ytick_30">
     <g id="line2d_84">
      <path d="M 475.110625 18.118365 
L 860.99976 18.118365 
" clip-path="url(#p5e2ffd923a)" style="fill: none; stroke: #b0b0b0; stroke-opacity: 0.25; stroke-width: 0.8; stroke-linecap: square"/>
     </g>
     <g id="line2d_85">
      <g>
       <use xlink:href="#mb27efd7ca1" x="475.110625" y="18.118365" style="stroke: #000000; stroke-width: 0.8"/>
      </g>
     </g>
     <g id="text_30">
      <!-- 40 -->
      <g transform="translate(455.385625 21.917584) scale(0.1 -0.1)">
       <use xlink:href="#DejaVuSans-34"/>
       <use xlink:href="#DejaVuSans-30" x="63.623047"/>
      </g>
     </g>
    </g>
    <g id="text_31">
     <!-- success rate (%) -->
     <g transform="translate(449.305937 199.525469) rotate(-90) scale(0.1 -0.1)">
      <defs>
       <path id="DejaVuSans-75" d="M 544 1381 
L 544 3500 
L 1119 3500 
L 1119 1403 
Q 1119 906 1312 657 
Q 1506 409 1894 409 
Q 2359 409 2629 706 
Q 2900 1003 2900 1516 
L 2900 3500 
L 3475 3500 
L 3475 0 
L 2900 0 
L 2900 538 
Q 2691 219 2414 64 
Q 2138 -91 1772 -91 
Q 1169 -91 856 284 
Q 544 659 544 1381 
z
M 1991 3584 
L 1991 3584 
z
" transform="scale(0.015625)"/>
       <path id="DejaVuSans-25" d="M 4653 2053 
Q 4381 2053 4226 1822 
Q 4072 1591 4072 1178 
Q 4072 772 4226 539 
Q 4381 306 4653 306 
Q 4919 306 5073 539 
Q 5228 772 5228 1178 
Q 5228 1588 5073 1820 
Q 4919 2053 4653 2053 
z
M 4653 2450 
Q 5147 2450 5437 2106 
Q 5728 1763 5728 1178 
Q 5728 594 5436 251 
Q 5144 -91 4653 -91 
Q 4153 -91 3862 251 
Q 3572 594 3572 1178 
Q 3572 1766 3864 2108 
Q 4156 2450 4653 2450 
z
M 1428 4353 
Q 1159 4353 1004 4120 
Q 850 3888 850 3481 
Q 850 3069 1003 2837 
Q 1156 2606 1428 2606 
Q 1700 2606 1854 2837 
Q 2009 3069 2009 3481 
Q 2009 3884 1853 4118 
Q 1697 4353 1428 4353 
z
M 4250 4750 
L 4750 4750 
L 1831 -91 
L 1331 -91 
L 4250 4750 
z
M 1428 4750 
Q 1922 4750 2215 4408 
Q 2509 4066 2509 3481 
Q 2509 2891 2217 2550 
Q 1925 2209 1428 2209 
Q 931 2209 642 2551 
Q 353 2894 353 3481 
Q 353 4063 643 4406 
Q 934 4750 1428 4750 
z
" transform="scale(0.015625)"/>
      </defs>
      <use xlink:href="#DejaVuSans-73"/>
      <use xlink:href="#DejaVuSans-75" x="52.099609"/>
      <use xlink:href="#DejaVuSans-63" x="115.478516"/>
      <use xlink:href="#DejaVuSans-63" x="170.458984"/>
      <use xlink:href="#DejaVuSans-65" x="225.439453"/>
      <use xlink:href="#DejaVuSans-73" x="286.962891"/>
      <use xlink:href="#DejaVuSans-73" x="339.0625"/>
      <use xlink:href="#DejaVuSans-20" x="391.162109"/>
      <use xlink:href="#DejaVuSans-72" x="422.949219"/>
      <use xlink:href="#DejaVuSans-61" x="464.0625"/>
      <use xlink:href="#DejaVuSans-74" x="525.341797"/>
      <use xlink:href="#DejaVuSans-65" x="564.550781"/>
      <use xlink:href="#DejaVuSans-20" x="626.074219"/>
      <use xlink:href="#DejaVuSans-28" x="657.861328"/>
      <use xlink:href="#DejaVuSans-25" x="696.875"/>
      <use xlink:href="#DejaVuSans-29" x="791.894531"/>
     </g>
    </g>
   </g>
   <g id="patch_15">
    <path d="M 475.110625 297.84351 
L 475.110625 18.118365 
" style="fill: none; stroke: #000000; stroke-width: 0.8; stroke-linejoin: miter; stroke-linecap: square"/>
   </g>
   <g id="patch_16">
    <path d="M 860.99976 297.84351 
L 860.99976 18.118365 
" style="fill: none; stroke: #000000; stroke-width: 0.8; stroke-linejoin: miter; stroke-linecap: square"/>
   </g>
   <g id="patch_17">
    <path d="M 475.110625 297.84351 
L 860.99976 297.84351 
" style="fill: none; stroke: #000000; stroke-width: 0.8; stroke-linejoin: miter; stroke-linecap: square"/>
   </g>
   <g id="patch_18">
    <path d="M 475.110625 18.118365 
L 860.99976 18.118365 
" style="fill: none; stroke: #000000; stroke-width: 0.8; stroke-linejoin: miter; stroke-linecap: square"/>
   </g>
   <g id="text_32">
    <!-- Isaac Gym rollout (20 sequences/object) -->
    <g transform="translate(546.80363 12.118365) scale(0.12 -0.12)">
     <defs>
      <path id="DejaVuSans-49" d="M 628 4666 
L 1259 4666 
L 1259 0 
L 628 0 
L 628 4666 
z
" transform="scale(0.015625)"/>
      <path id="DejaVuSans-47" d="M 3809 666 
L 3809 1919 
L 2778 1919 
L 2778 2438 
L 4434 2438 
L 4434 434 
Q 4069 175 3628 42 
Q 3188 -91 2688 -91 
Q 1594 -91 976 548 
Q 359 1188 359 2328 
Q 359 3472 976 4111 
Q 1594 4750 2688 4750 
Q 3144 4750 3555 4637 
Q 3966 4525 4313 4306 
L 4313 3634 
Q 3963 3931 3569 4081 
Q 3175 4231 2741 4231 
Q 1884 4231 1454 3753 
Q 1025 3275 1025 2328 
Q 1025 1384 1454 906 
Q 1884 428 2741 428 
Q 3075 428 3337 486 
Q 3600 544 3809 666 
z
" transform="scale(0.015625)"/>
      <path id="DejaVuSans-79" d="M 2059 -325 
Q 1816 -950 1584 -1140 
Q 1353 -1331 966 -1331 
L 506 -1331 
L 506 -850 
L 844 -850 
Q 1081 -850 1212 -737 
Q 1344 -625 1503 -206 
L 1606 56 
L 191 3500 
L 800 3500 
L 1894 763 
L 2988 3500 
L 3597 3500 
L 2059 -325 
z
" transform="scale(0.015625)"/>
      <path id="DejaVuSans-6d" d="M 3328 2828 
Q 3544 3216 3844 3400 
Q 4144 3584 4550 3584 
Q 5097 3584 5394 3201 
Q 5691 2819 5691 2113 
L 5691 0 
L 5113 0 
L 5113 2094 
Q 5113 2597 4934 2840 
Q 4756 3084 4391 3084 
Q 3944 3084 3684 2787 
Q 3425 2491 3425 1978 
L 3425 0 
L 2847 0 
L 2847 2094 
Q 2847 2600 2669 2842 
Q 2491 3084 2119 3084 
Q 1678 3084 1418 2786 
Q 1159 2488 1159 1978 
L 1159 0 
L 581 0 
L 581 3500 
L 1159 3500 
L 1159 2956 
Q 1356 3278 1631 3431 
Q 1906 3584 2284 3584 
Q 2666 3584 2933 3390 
Q 3200 3197 3328 2828 
z
" transform="scale(0.015625)"/>
      <path id="DejaVuSans-71" d="M 947 1747 
Q 947 1113 1208 752 
Q 1469 391 1925 391 
Q 2381 391 2643 752 
Q 2906 1113 2906 1747 
Q 2906 2381 2643 2742 
Q 2381 3103 1925 3103 
Q 1469 3103 1208 2742 
Q 947 2381 947 1747 
z
M 2906 525 
Q 2725 213 2448 61 
Q 2172 -91 1784 -91 
Q 1150 -91 751 415 
Q 353 922 353 1747 
Q 353 2572 751 3078 
Q 1150 3584 1784 3584 
Q 2172 3584 2448 3432 
Q 2725 3281 2906 2969 
L 2906 3500 
L 3481 3500 
L 3481 -1331 
L 2906 -1331 
L 2906 525 
z
" transform="scale(0.015625)"/>
      <path id="DejaVuSans-2f" d="M 1625 4666 
L 2156 4666 
L 531 -594 
L 0 -594 
L 1625 4666 
z
" transform="scale(0.015625)"/>
     </defs>
     <use xlink:href="#DejaVuSans-49"/>
     <use xlink:href="#DejaVuSans-73" x="29.492188"/>
     <use xlink:href="#DejaVuSans-61" x="81.591797"/>
     <use xlink:href="#DejaVuSans-61" x="142.871094"/>
     <use xlink:href="#DejaVuSans-63" x="204.150391"/>
     <use xlink:href="#DejaVuSans-20" x="259.130859"/>
     <use xlink:href="#DejaVuSans-47" x="290.917969"/>
     <use xlink:href="#DejaVuSans-79" x="368.408203"/>
     <use xlink:href="#DejaVuSans-6d" x="427.587891"/>
     <use xlink:href="#DejaVuSans-20" x="525"/>
     <use xlink:href="#DejaVuSans-72" x="556.787109"/>
     <use xlink:href="#DejaVuSans-6f" x="595.650391"/>
     <use xlink:href="#DejaVuSans-6c" x="656.832031"/>
     <use xlink:href="#DejaVuSans-6c" x="684.615234"/>
     <use xlink:href="#DejaVuSans-6f" x="712.398438"/>
     <use xlink:href="#DejaVuSans-75" x="773.580078"/>
     <use xlink:href="#DejaVuSans-74" x="836.958984"/>
     <use xlink:href="#DejaVuSans-20" x="876.167969"/>
     <use xlink:href="#DejaVuSans-28" x="907.955078"/>
     <use xlink:href="#DejaVuSans-32" x="946.96875"/>
     <use xlink:href="#DejaVuSans-30" x="1010.591797"/>
     <use xlink:href="#DejaVuSans-20" x="1074.214844"/>
     <use xlink:href="#DejaVuSans-73" x="1106.001953"/>
     <use xlink:href="#DejaVuSans-65" x="1158.101562"/>
     <use xlink:href="#DejaVuSans-71" x="1219.625"/>
     <use xlink:href="#DejaVuSans-75" x="1283.101562"/>
     <use xlink:href="#DejaVuSans-65" x="1346.480469"/>
     <use xlink:href="#DejaVuSans-6e" x="1408.003906"/>
     <use xlink:href="#DejaVuSans-63" x="1471.382812"/>
     <use xlink:href="#DejaVuSans-65" x="1526.363281"/>
     <use xlink:href="#DejaVuSans-73" x="1587.886719"/>
     <use xlink:href="#DejaVuSans-2f" x="1639.986328"/>
     <use xlink:href="#DejaVuSans-6f" x="1673.677734"/>
     <use xlink:href="#DejaVuSans-62" x="1734.859375"/>
     <use xlink:href="#DejaVuSans-6a" x="1798.335938"/>
     <use xlink:href="#DejaVuSans-65" x="1826.119141"/>
     <use xlink:href="#DejaVuSans-63" x="1887.642578"/>
     <use xlink:href="#DejaVuSans-74" x="1942.623047"/>
     <use xlink:href="#DejaVuSans-29" x="1981.832031"/>
    </g>
   </g>
   <g id="legend_2">
    <g id="patch_19">
     <path d="M 482.110625 55.474615 
L 631.7075 55.474615 
Q 633.7075 55.474615 633.7075 53.474615 
L 633.7075 25.118365 
Q 633.7075 23.118365 631.7075 23.118365 
L 482.110625 23.118365 
Q 480.110625 23.118365 480.110625 25.118365 
L 480.110625 53.474615 
Q 480.110625 55.474615 482.110625 55.474615 
z
" style="fill: #ffffff; opacity: 0.8; stroke: #cccccc; stroke-linejoin: miter"/>
    </g>
    <g id="patch_20">
     <path d="M 484.110625 34.716802 
L 504.110625 34.716802 
L 504.110625 27.716802 
L 484.110625 27.716802 
z
" style="fill: #1f77b4"/>
    </g>
    <g id="text_33">
     <!-- official checkpoint -->
     <g transform="translate(512.110625 34.716802) scale(0.1 -0.1)">
      <defs>
       <path id="DejaVuSans-66" d="M 2375 4863 
L 2375 4384 
L 1825 4384 
Q 1516 4384 1395 4259 
Q 1275 4134 1275 3809 
L 1275 3500 
L 2222 3500 
L 2222 3053 
L 1275 3053 
L 1275 0 
L 697 0 
L 697 3053 
L 147 3053 
L 147 3500 
L 697 3500 
L 697 3744 
Q 697 4328 969 4595 
Q 1241 4863 1831 4863 
L 2375 4863 
z
" transform="scale(0.015625)"/>
      </defs>
      <use xlink:href="#DejaVuSans-6f"/>
      <use xlink:href="#DejaVuSans-66" x="61.181641"/>
      <use xlink:href="#DejaVuSans-66" x="96.386719"/>
      <use xlink:href="#DejaVuSans-69" x="131.591797"/>
      <use xlink:href="#DejaVuSans-63" x="159.375"/>
      <use xlink:href="#DejaVuSans-69" x="214.355469"/>
      <use xlink:href="#DejaVuSans-61" x="242.138672"/>
      <use xlink:href="#DejaVuSans-6c" x="303.417969"/>
      <use xlink:href="#DejaVuSans-20" x="331.201172"/>
      <use xlink:href="#DejaVuSans-63" x="362.988281"/>
      <use xlink:href="#DejaVuSans-68" x="417.96875"/>
      <use xlink:href="#DejaVuSans-65" x="481.347656"/>
      <use xlink:href="#DejaVuSans-63" x="542.871094"/>
      <use xlink:href="#DejaVuSans-6b" x="597.851562"/>
      <use xlink:href="#DejaVuSans-70" x="655.761719"/>
      <use xlink:href="#DejaVuSans-6f" x="719.238281"/>
      <use xlink:href="#DejaVuSans-69" x="780.419922"/>
      <use xlink:href="#DejaVuSans-6e" x="808.203125"/>
      <use xlink:href="#DejaVuSans-74" x="871.582031"/>
     </g>
    </g>
    <g id="patch_21">
     <path d="M 484.110625 49.394927 
L 504.110625 49.394927 
L 504.110625 42.394927 
L 484.110625 42.394927 
z
" style="fill: #ff7f0e"/>
    </g>
    <g id="text_34">
     <!-- Gate D best checkpoint -->
     <g transform="translate(512.110625 49.394927) scale(0.1 -0.1)">
      <defs>
       <path id="DejaVuSans-44" d="M 1259 4147 
L 1259 519 
L 2022 519 
Q 2988 519 3436 956 
Q 3884 1394 3884 2338 
Q 3884 3275 3436 3711 
Q 2988 4147 2022 4147 
L 1259 4147 
z
M 628 4666 
L 1925 4666 
Q 3281 4666 3915 4102 
Q 4550 3538 4550 2338 
Q 4550 1131 3912 565 
Q 3275 0 1925 0 
L 628 0 
L 628 4666 
z
" transform="scale(0.015625)"/>
      </defs>
      <use xlink:href="#DejaVuSans-47"/>
      <use xlink:href="#DejaVuSans-61" x="77.490234"/>
      <use xlink:href="#DejaVuSans-74" x="138.769531"/>
      <use xlink:href="#DejaVuSans-65" x="177.978516"/>
      <use xlink:href="#DejaVuSans-20" x="239.501953"/>
      <use xlink:href="#DejaVuSans-44" x="271.289062"/>
      <use xlink:href="#DejaVuSans-20" x="348.291016"/>
      <use xlink:href="#DejaVuSans-62" x="380.078125"/>
      <use xlink:href="#DejaVuSans-65" x="443.554688"/>
      <use xlink:href="#DejaVuSans-73" x="505.078125"/>
      <use xlink:href="#DejaVuSans-74" x="557.177734"/>
      <use xlink:href="#DejaVuSans-20" x="596.386719"/>
      <use xlink:href="#DejaVuSans-63" x="628.173828"/>
      <use xlink:href="#DejaVuSans-68" x="683.154297"/>
      <use xlink:href="#DejaVuSans-65" x="746.533203"/>
      <use xlink:href="#DejaVuSans-63" x="808.056641"/>
      <use xlink:href="#DejaVuSans-6b" x="863.037109"/>
      <use xlink:href="#DejaVuSans-70" x="920.947266"/>
      <use xlink:href="#DejaVuSans-6f" x="984.423828"/>
      <use xlink:href="#DejaVuSans-69" x="1045.605469"/>
      <use xlink:href="#DejaVuSans-6e" x="1073.388672"/>
      <use xlink:href="#DejaVuSans-74" x="1136.767578"/>
     </g>
    </g>
   </g>
  </g>
 </g>
 <defs>
  <clipPath id="p44f9e1a88a">
   <rect x="47.178365" y="18.118365" width="385.889135" height="279.725145"/>
  </clipPath>
  <clipPath id="p5e2ffd923a">
   <rect x="475.110625" y="18.118365" width="385.889135" height="279.725145"/>
  </clipPath>
 </defs>
</svg>
